%TF.GenerationSoftware,KiCad,Pcbnew,7.0.6-1.fc38*%
%TF.CreationDate,2023-08-16T20:18:50-04:00*%
%TF.ProjectId,atomic-pi-power-distribution,61746f6d-6963-42d7-9069-2d706f776572,rev?*%
%TF.SameCoordinates,Original*%
%TF.FileFunction,Copper,L1,Top*%
%TF.FilePolarity,Positive*%
%FSLAX46Y46*%
G04 Gerber Fmt 4.6, Leading zero omitted, Abs format (unit mm)*
G04 Created by KiCad (PCBNEW 7.0.6-1.fc38) date 2023-08-16 20:18:50*
%MOMM*%
%LPD*%
G01*
G04 APERTURE LIST*
%TA.AperFunction,ComponentPad*%
%ADD10C,3.600000*%
%TD*%
%TA.AperFunction,ConnectorPad*%
%ADD11C,6.400000*%
%TD*%
%TA.AperFunction,ComponentPad*%
%ADD12R,1.980000X3.960000*%
%TD*%
%TA.AperFunction,ComponentPad*%
%ADD13O,1.980000X3.960000*%
%TD*%
%TA.AperFunction,ComponentPad*%
%ADD14R,1.700000X1.700000*%
%TD*%
%TA.AperFunction,ComponentPad*%
%ADD15O,1.700000X1.700000*%
%TD*%
%TA.AperFunction,ComponentPad*%
%ADD16R,3.960000X1.980000*%
%TD*%
%TA.AperFunction,ComponentPad*%
%ADD17O,3.960000X1.980000*%
%TD*%
%TA.AperFunction,ViaPad*%
%ADD18C,1.000000*%
%TD*%
%TA.AperFunction,Conductor*%
%ADD19C,0.750000*%
%TD*%
%TA.AperFunction,Conductor*%
%ADD20C,1.000000*%
%TD*%
G04 APERTURE END LIST*
D10*
%TO.P,H5,1,1*%
%TO.N,GND*%
X175000000Y-55000000D03*
D11*
X175000000Y-55000000D03*
%TD*%
D10*
%TO.P,H6,1,1*%
%TO.N,GND*%
X175000000Y-145000000D03*
D11*
X175000000Y-145000000D03*
%TD*%
D10*
%TO.P,H4,1,1*%
%TO.N,GND*%
X115000000Y-145000000D03*
D11*
X115000000Y-145000000D03*
%TD*%
D10*
%TO.P,H3,1,1*%
%TO.N,GND*%
X115000000Y-55000000D03*
D11*
X115000000Y-55000000D03*
%TD*%
D10*
%TO.P,H2,1,1*%
%TO.N,GND*%
X55000000Y-145000000D03*
D11*
X55000000Y-145000000D03*
%TD*%
D10*
%TO.P,H1,1,1*%
%TO.N,GND*%
X55000000Y-55000000D03*
D11*
X55000000Y-55000000D03*
%TD*%
D12*
%TO.P,J5,1,Pin_1*%
%TO.N,Net-(J1-Pin_11)*%
X160000000Y-90000000D03*
D13*
%TO.P,J5,2,Pin_2*%
%TO.N,+5V*%
X155000000Y-90000000D03*
%TD*%
D12*
%TO.P,J7,1,Pin_1*%
%TO.N,Net-(J3-Pin_11)*%
X120000000Y-90000000D03*
D13*
%TO.P,J7,2,Pin_2*%
%TO.N,+5V*%
X115000000Y-90000000D03*
%TD*%
D12*
%TO.P,J8,1,Pin_1*%
%TO.N,Net-(J4-Pin_11)*%
X100000000Y-90020000D03*
D13*
%TO.P,J8,2,Pin_2*%
%TO.N,+5V*%
X95000000Y-90020000D03*
%TD*%
D14*
%TO.P,J4,1,Pin_1*%
%TO.N,unconnected-(J4-Pin_1-Pad1)*%
X108540000Y-95000000D03*
D15*
%TO.P,J4,2,Pin_2*%
%TO.N,GND*%
X106000000Y-95000000D03*
%TO.P,J4,3,Pin_3*%
%TO.N,Net-(J4-Pin_11)*%
X108540000Y-92460000D03*
%TO.P,J4,4,Pin_4*%
%TO.N,GND*%
X106000000Y-92460000D03*
%TO.P,J4,5,Pin_5*%
%TO.N,Net-(J4-Pin_11)*%
X108540000Y-89920000D03*
%TO.P,J4,6,Pin_6*%
%TO.N,GND*%
X106000000Y-89920000D03*
%TO.P,J4,7,Pin_7*%
%TO.N,Net-(J4-Pin_11)*%
X108540000Y-87380000D03*
%TO.P,J4,8,Pin_8*%
%TO.N,GND*%
X106000000Y-87380000D03*
%TO.P,J4,9,Pin_9*%
%TO.N,Net-(J4-Pin_11)*%
X108540000Y-84840000D03*
%TO.P,J4,10,Pin_10*%
%TO.N,GND*%
X106000000Y-84840000D03*
%TO.P,J4,11,Pin_11*%
%TO.N,Net-(J4-Pin_11)*%
X108540000Y-82300000D03*
%TO.P,J4,12,Pin_12*%
%TO.N,GND*%
X106000000Y-82300000D03*
%TO.P,J4,13,Pin_13*%
%TO.N,Net-(J4-Pin_11)*%
X108540000Y-79760000D03*
%TO.P,J4,14,Pin_14*%
%TO.N,GND*%
X106000000Y-79760000D03*
%TO.P,J4,15,Pin_15*%
%TO.N,unconnected-(J4-Pin_15-Pad15)*%
X108540000Y-77220000D03*
%TO.P,J4,16,Pin_16*%
%TO.N,unconnected-(J4-Pin_16-Pad16)*%
X106000000Y-77220000D03*
%TO.P,J4,17,Pin_17*%
%TO.N,GND*%
X108540000Y-74680000D03*
%TO.P,J4,18,Pin_18*%
%TO.N,unconnected-(J4-Pin_18-Pad18)*%
X106000000Y-74680000D03*
%TO.P,J4,19,Pin_19*%
%TO.N,unconnected-(J4-Pin_19-Pad19)*%
X108540000Y-72140000D03*
%TO.P,J4,20,Pin_20*%
%TO.N,unconnected-(J4-Pin_20-Pad20)*%
X106000000Y-72140000D03*
%TO.P,J4,21,Pin_21*%
%TO.N,unconnected-(J4-Pin_21-Pad21)*%
X108540000Y-69600000D03*
%TO.P,J4,22,Pin_22*%
%TO.N,unconnected-(J4-Pin_22-Pad22)*%
X106000000Y-69600000D03*
%TO.P,J4,23,Pin_23*%
%TO.N,unconnected-(J4-Pin_23-Pad23)*%
X108540000Y-67060000D03*
%TO.P,J4,24,Pin_24*%
%TO.N,unconnected-(J4-Pin_24-Pad24)*%
X106000000Y-67060000D03*
%TO.P,J4,25,Pin_25*%
%TO.N,unconnected-(J4-Pin_25-Pad25)*%
X108540000Y-64520000D03*
%TO.P,J4,26,Pin_26*%
%TO.N,unconnected-(J4-Pin_26-Pad26)*%
X106000000Y-64520000D03*
%TD*%
%TO.P,J2,26,Pin_26*%
%TO.N,unconnected-(J2-Pin_26-Pad26)*%
X146000000Y-64520000D03*
%TO.P,J2,25,Pin_25*%
%TO.N,unconnected-(J2-Pin_25-Pad25)*%
X148540000Y-64520000D03*
%TO.P,J2,24,Pin_24*%
%TO.N,unconnected-(J2-Pin_24-Pad24)*%
X146000000Y-67060000D03*
%TO.P,J2,23,Pin_23*%
%TO.N,unconnected-(J2-Pin_23-Pad23)*%
X148540000Y-67060000D03*
%TO.P,J2,22,Pin_22*%
%TO.N,unconnected-(J2-Pin_22-Pad22)*%
X146000000Y-69600000D03*
%TO.P,J2,21,Pin_21*%
%TO.N,unconnected-(J2-Pin_21-Pad21)*%
X148540000Y-69600000D03*
%TO.P,J2,20,Pin_20*%
%TO.N,unconnected-(J2-Pin_20-Pad20)*%
X146000000Y-72140000D03*
%TO.P,J2,19,Pin_19*%
%TO.N,unconnected-(J2-Pin_19-Pad19)*%
X148540000Y-72140000D03*
%TO.P,J2,18,Pin_18*%
%TO.N,unconnected-(J2-Pin_18-Pad18)*%
X146000000Y-74680000D03*
%TO.P,J2,17,Pin_17*%
%TO.N,GND*%
X148540000Y-74680000D03*
%TO.P,J2,16,Pin_16*%
%TO.N,unconnected-(J2-Pin_16-Pad16)*%
X146000000Y-77220000D03*
%TO.P,J2,15,Pin_15*%
%TO.N,unconnected-(J2-Pin_15-Pad15)*%
X148540000Y-77220000D03*
%TO.P,J2,14,Pin_14*%
%TO.N,GND*%
X146000000Y-79760000D03*
%TO.P,J2,13,Pin_13*%
%TO.N,Net-(J2-Pin_11)*%
X148540000Y-79760000D03*
%TO.P,J2,12,Pin_12*%
%TO.N,GND*%
X146000000Y-82300000D03*
%TO.P,J2,11,Pin_11*%
%TO.N,Net-(J2-Pin_11)*%
X148540000Y-82300000D03*
%TO.P,J2,10,Pin_10*%
%TO.N,GND*%
X146000000Y-84840000D03*
%TO.P,J2,9,Pin_9*%
%TO.N,Net-(J2-Pin_11)*%
X148540000Y-84840000D03*
%TO.P,J2,8,Pin_8*%
%TO.N,GND*%
X146000000Y-87380000D03*
%TO.P,J2,7,Pin_7*%
%TO.N,Net-(J2-Pin_11)*%
X148540000Y-87380000D03*
%TO.P,J2,6,Pin_6*%
%TO.N,GND*%
X146000000Y-89920000D03*
%TO.P,J2,5,Pin_5*%
%TO.N,Net-(J2-Pin_11)*%
X148540000Y-89920000D03*
%TO.P,J2,4,Pin_4*%
%TO.N,GND*%
X146000000Y-92460000D03*
%TO.P,J2,3,Pin_3*%
%TO.N,Net-(J2-Pin_11)*%
X148540000Y-92460000D03*
%TO.P,J2,2,Pin_2*%
%TO.N,GND*%
X146000000Y-95000000D03*
D14*
%TO.P,J2,1,Pin_1*%
%TO.N,unconnected-(J2-Pin_1-Pad1)*%
X148540000Y-95000000D03*
%TD*%
D16*
%TO.P,J10,1,Pin_1*%
%TO.N,GND*%
X61500000Y-69000000D03*
D17*
%TO.P,J10,2,Pin_2*%
X61500000Y-64000000D03*
%TD*%
D15*
%TO.P,J1,26,Pin_26*%
%TO.N,unconnected-(J1-Pin_26-Pad26)*%
X166000000Y-64520000D03*
%TO.P,J1,25,Pin_25*%
%TO.N,unconnected-(J1-Pin_25-Pad25)*%
X168540000Y-64520000D03*
%TO.P,J1,24,Pin_24*%
%TO.N,unconnected-(J1-Pin_24-Pad24)*%
X166000000Y-67060000D03*
%TO.P,J1,23,Pin_23*%
%TO.N,unconnected-(J1-Pin_23-Pad23)*%
X168540000Y-67060000D03*
%TO.P,J1,22,Pin_22*%
%TO.N,unconnected-(J1-Pin_22-Pad22)*%
X166000000Y-69600000D03*
%TO.P,J1,21,Pin_21*%
%TO.N,unconnected-(J1-Pin_21-Pad21)*%
X168540000Y-69600000D03*
%TO.P,J1,20,Pin_20*%
%TO.N,unconnected-(J1-Pin_20-Pad20)*%
X166000000Y-72140000D03*
%TO.P,J1,19,Pin_19*%
%TO.N,unconnected-(J1-Pin_19-Pad19)*%
X168540000Y-72140000D03*
%TO.P,J1,18,Pin_18*%
%TO.N,unconnected-(J1-Pin_18-Pad18)*%
X166000000Y-74680000D03*
%TO.P,J1,17,Pin_17*%
%TO.N,GND*%
X168540000Y-74680000D03*
%TO.P,J1,16,Pin_16*%
%TO.N,unconnected-(J1-Pin_16-Pad16)*%
X166000000Y-77220000D03*
%TO.P,J1,15,Pin_15*%
%TO.N,unconnected-(J1-Pin_15-Pad15)*%
X168540000Y-77220000D03*
%TO.P,J1,14,Pin_14*%
%TO.N,GND*%
X166000000Y-79760000D03*
%TO.P,J1,13,Pin_13*%
%TO.N,Net-(J1-Pin_11)*%
X168540000Y-79760000D03*
%TO.P,J1,12,Pin_12*%
%TO.N,GND*%
X166000000Y-82300000D03*
%TO.P,J1,11,Pin_11*%
%TO.N,Net-(J1-Pin_11)*%
X168540000Y-82300000D03*
%TO.P,J1,10,Pin_10*%
%TO.N,GND*%
X166000000Y-84840000D03*
%TO.P,J1,9,Pin_9*%
%TO.N,Net-(J1-Pin_11)*%
X168540000Y-84840000D03*
%TO.P,J1,8,Pin_8*%
%TO.N,GND*%
X166000000Y-87380000D03*
%TO.P,J1,7,Pin_7*%
%TO.N,Net-(J1-Pin_11)*%
X168540000Y-87380000D03*
%TO.P,J1,6,Pin_6*%
%TO.N,GND*%
X166000000Y-89920000D03*
%TO.P,J1,5,Pin_5*%
%TO.N,Net-(J1-Pin_11)*%
X168540000Y-89920000D03*
%TO.P,J1,4,Pin_4*%
%TO.N,GND*%
X166000000Y-92460000D03*
%TO.P,J1,3,Pin_3*%
%TO.N,Net-(J1-Pin_11)*%
X168540000Y-92460000D03*
%TO.P,J1,2,Pin_2*%
%TO.N,GND*%
X166000000Y-95000000D03*
D14*
%TO.P,J1,1,Pin_1*%
%TO.N,unconnected-(J1-Pin_1-Pad1)*%
X168540000Y-95000000D03*
%TD*%
D12*
%TO.P,J6,1,Pin_1*%
%TO.N,Net-(J2-Pin_11)*%
X140000000Y-90000000D03*
D13*
%TO.P,J6,2,Pin_2*%
%TO.N,+5V*%
X135000000Y-90000000D03*
%TD*%
D16*
%TO.P,J9,1,Pin_1*%
%TO.N,+5V*%
X61500000Y-84000000D03*
D17*
%TO.P,J9,2,Pin_2*%
X61500000Y-79000000D03*
%TD*%
D15*
%TO.P,J3,26,Pin_26*%
%TO.N,unconnected-(J3-Pin_26-Pad26)*%
X126000000Y-64600000D03*
%TO.P,J3,25,Pin_25*%
%TO.N,unconnected-(J3-Pin_25-Pad25)*%
X128540000Y-64600000D03*
%TO.P,J3,24,Pin_24*%
%TO.N,unconnected-(J3-Pin_24-Pad24)*%
X126000000Y-67140000D03*
%TO.P,J3,23,Pin_23*%
%TO.N,unconnected-(J3-Pin_23-Pad23)*%
X128540000Y-67140000D03*
%TO.P,J3,22,Pin_22*%
%TO.N,unconnected-(J3-Pin_22-Pad22)*%
X126000000Y-69680000D03*
%TO.P,J3,21,Pin_21*%
%TO.N,unconnected-(J3-Pin_21-Pad21)*%
X128540000Y-69680000D03*
%TO.P,J3,20,Pin_20*%
%TO.N,unconnected-(J3-Pin_20-Pad20)*%
X126000000Y-72220000D03*
%TO.P,J3,19,Pin_19*%
%TO.N,unconnected-(J3-Pin_19-Pad19)*%
X128540000Y-72220000D03*
%TO.P,J3,18,Pin_18*%
%TO.N,unconnected-(J3-Pin_18-Pad18)*%
X126000000Y-74760000D03*
%TO.P,J3,17,Pin_17*%
%TO.N,GND*%
X128540000Y-74760000D03*
%TO.P,J3,16,Pin_16*%
%TO.N,unconnected-(J3-Pin_16-Pad16)*%
X126000000Y-77300000D03*
%TO.P,J3,15,Pin_15*%
%TO.N,unconnected-(J3-Pin_15-Pad15)*%
X128540000Y-77300000D03*
%TO.P,J3,14,Pin_14*%
%TO.N,GND*%
X126000000Y-79840000D03*
%TO.P,J3,13,Pin_13*%
%TO.N,Net-(J3-Pin_11)*%
X128540000Y-79840000D03*
%TO.P,J3,12,Pin_12*%
%TO.N,GND*%
X126000000Y-82380000D03*
%TO.P,J3,11,Pin_11*%
%TO.N,Net-(J3-Pin_11)*%
X128540000Y-82380000D03*
%TO.P,J3,10,Pin_10*%
%TO.N,GND*%
X126000000Y-84920000D03*
%TO.P,J3,9,Pin_9*%
%TO.N,Net-(J3-Pin_11)*%
X128540000Y-84920000D03*
%TO.P,J3,8,Pin_8*%
%TO.N,GND*%
X126000000Y-87460000D03*
%TO.P,J3,7,Pin_7*%
%TO.N,Net-(J3-Pin_11)*%
X128540000Y-87460000D03*
%TO.P,J3,6,Pin_6*%
%TO.N,GND*%
X126000000Y-90000000D03*
%TO.P,J3,5,Pin_5*%
%TO.N,Net-(J3-Pin_11)*%
X128540000Y-90000000D03*
%TO.P,J3,4,Pin_4*%
%TO.N,GND*%
X126000000Y-92540000D03*
%TO.P,J3,3,Pin_3*%
%TO.N,Net-(J3-Pin_11)*%
X128540000Y-92540000D03*
%TO.P,J3,2,Pin_2*%
%TO.N,GND*%
X126000000Y-95080000D03*
D14*
%TO.P,J3,1,Pin_1*%
%TO.N,unconnected-(J3-Pin_1-Pad1)*%
X128540000Y-95080000D03*
%TD*%
D18*
%TO.N,GND*%
X55000000Y-141000000D03*
X59000000Y-145000000D03*
X111000000Y-145000000D03*
X119000000Y-145000000D03*
X171000000Y-145000000D03*
X175000000Y-141000000D03*
X175000000Y-59000000D03*
X171000000Y-55000000D03*
X119000000Y-55000000D03*
X111000000Y-55000000D03*
X55000000Y-59000000D03*
X59000000Y-55000000D03*
X58000000Y-58000000D03*
%TD*%
D19*
%TO.N,Net-(J3-Pin_11)*%
X130265000Y-96805000D02*
X124075000Y-96805000D01*
X124075000Y-96805000D02*
X120000000Y-92730000D01*
X120000000Y-92730000D02*
X120000000Y-90000000D01*
%TO.N,Net-(J4-Pin_11)*%
X100000000Y-90020000D02*
X100000000Y-92750000D01*
X100000000Y-92750000D02*
X103975000Y-96725000D01*
X103975000Y-96725000D02*
X110265000Y-96725000D01*
X110265000Y-89500000D02*
X110265000Y-92000000D01*
X110265000Y-92000000D02*
X110265000Y-93275000D01*
X108540000Y-89920000D02*
X110265000Y-91645000D01*
X110265000Y-91645000D02*
X110265000Y-92000000D01*
X110265000Y-87000000D02*
X110265000Y-89500000D01*
X108540000Y-87380000D02*
X110265000Y-89105000D01*
X110265000Y-89105000D02*
X110265000Y-89500000D01*
X110265000Y-84500000D02*
X110265000Y-87000000D01*
X108540000Y-84840000D02*
X110265000Y-86565000D01*
X110265000Y-86565000D02*
X110265000Y-87000000D01*
X110265000Y-81485000D02*
X110265000Y-84500000D01*
X108540000Y-82300000D02*
X110265000Y-84025000D01*
X110265000Y-84025000D02*
X110265000Y-84500000D01*
X108540000Y-79760000D02*
X110265000Y-81485000D01*
%TO.N,Net-(J1-Pin_11)*%
X170265000Y-92000000D02*
X170265000Y-92982919D01*
X170265000Y-96725000D02*
X170265000Y-92982919D01*
X170265000Y-92982919D02*
X169742081Y-92460000D01*
X169742081Y-92460000D02*
X168540000Y-92460000D01*
X170265000Y-89500000D02*
X170265000Y-92000000D01*
X168540000Y-89920000D02*
X170265000Y-91645000D01*
X170265000Y-91645000D02*
X170265000Y-92000000D01*
X170265000Y-86500000D02*
X170265000Y-89500000D01*
X168540000Y-87380000D02*
X170265000Y-89105000D01*
X170265000Y-89105000D02*
X170265000Y-89500000D01*
X170265000Y-84500000D02*
X170265000Y-86500000D01*
X168540000Y-84840000D02*
X170200000Y-86500000D01*
X170200000Y-86500000D02*
X170265000Y-86500000D01*
X170265000Y-81485000D02*
X170265000Y-84500000D01*
X168540000Y-82300000D02*
X170265000Y-84025000D01*
X170265000Y-84025000D02*
X170265000Y-84500000D01*
X168540000Y-79760000D02*
X170265000Y-81485000D01*
%TO.N,Net-(J2-Pin_11)*%
X150265000Y-89500000D02*
X150265000Y-92000000D01*
X150265000Y-92000000D02*
X150265000Y-92982919D01*
X148540000Y-89920000D02*
X150265000Y-91645000D01*
X150265000Y-91645000D02*
X150265000Y-92000000D01*
X150265000Y-86500000D02*
X150265000Y-89500000D01*
X148540000Y-87380000D02*
X150265000Y-89105000D01*
X150265000Y-89105000D02*
X150265000Y-89500000D01*
X150265000Y-84000000D02*
X150265000Y-86500000D01*
X148540000Y-84840000D02*
X150200000Y-86500000D01*
X150200000Y-86500000D02*
X150265000Y-86500000D01*
X150265000Y-81485000D02*
X150265000Y-84000000D01*
X148540000Y-82300000D02*
X150240000Y-84000000D01*
X150240000Y-84000000D02*
X150265000Y-84000000D01*
X148540000Y-79760000D02*
X150265000Y-81485000D01*
%TO.N,Net-(J3-Pin_11)*%
X130265000Y-89500000D02*
X130265000Y-92000000D01*
X128540000Y-90000000D02*
X130265000Y-91725000D01*
X130265000Y-92000000D02*
X130265000Y-93062919D01*
X130265000Y-91725000D02*
X130265000Y-92000000D01*
X130265000Y-87000000D02*
X130265000Y-89500000D01*
X128540000Y-87460000D02*
X130265000Y-89185000D01*
X130265000Y-89185000D02*
X130265000Y-89500000D01*
X130265000Y-84500000D02*
X130265000Y-87000000D01*
X128540000Y-84920000D02*
X130265000Y-86645000D01*
X130265000Y-86645000D02*
X130265000Y-87000000D01*
X130265000Y-81565000D02*
X130265000Y-84500000D01*
X128540000Y-82380000D02*
X130265000Y-84105000D01*
X130265000Y-84105000D02*
X130265000Y-84500000D01*
X128540000Y-79840000D02*
X130265000Y-81565000D01*
%TO.N,+5V*%
X135000000Y-90000000D02*
X142975000Y-97975000D01*
X142975000Y-97975000D02*
X150782767Y-97975000D01*
X150782767Y-97975000D02*
X155000000Y-93757767D01*
X155000000Y-93757767D02*
X155000000Y-90000000D01*
X115000000Y-90000000D02*
X123055000Y-98055000D01*
X123055000Y-98055000D02*
X130945000Y-98055000D01*
X130945000Y-98055000D02*
X135000000Y-94000000D01*
X135000000Y-94000000D02*
X135000000Y-90000000D01*
X115000000Y-90000000D02*
X115000000Y-93757767D01*
X115000000Y-93757767D02*
X110782767Y-97975000D01*
X110782767Y-97975000D02*
X102955000Y-97975000D01*
X102955000Y-97975000D02*
X95000000Y-90020000D01*
%TO.N,Net-(J4-Pin_11)*%
X108540000Y-92460000D02*
X109450000Y-92460000D01*
X109450000Y-92460000D02*
X110265000Y-93275000D01*
X110265000Y-93275000D02*
X110265000Y-96725000D01*
%TO.N,Net-(J3-Pin_11)*%
X128540000Y-92540000D02*
X129742081Y-92540000D01*
X130265000Y-93062919D02*
X130265000Y-96805000D01*
X129742081Y-92540000D02*
X130265000Y-93062919D01*
%TO.N,Net-(J2-Pin_11)*%
X148540000Y-92460000D02*
X149742081Y-92460000D01*
X150265000Y-96725000D02*
X143725000Y-96725000D01*
X149742081Y-92460000D02*
X150265000Y-92982919D01*
X150265000Y-92982919D02*
X150265000Y-96725000D01*
X143725000Y-96725000D02*
X140000000Y-93000000D01*
X140000000Y-93000000D02*
X140000000Y-90000000D01*
%TO.N,Net-(J1-Pin_11)*%
X170265000Y-96725000D02*
X163725000Y-96725000D01*
X163725000Y-96725000D02*
X160000000Y-93000000D01*
X160000000Y-93000000D02*
X160000000Y-90000000D01*
%TO.N,+5V*%
X95000000Y-90020000D02*
X67520000Y-90020000D01*
X67520000Y-90020000D02*
X61500000Y-84000000D01*
D20*
X61500000Y-84000000D02*
X61500000Y-79000000D01*
%TD*%
%TA.AperFunction,Conductor*%
%TO.N,GND*%
G36*
X126250000Y-94644498D02*
G01*
X126142315Y-94595320D01*
X126035763Y-94580000D01*
X125964237Y-94580000D01*
X125857685Y-94595320D01*
X125750000Y-94644498D01*
X125750000Y-92975501D01*
X125857685Y-93024680D01*
X125964237Y-93040000D01*
X126035763Y-93040000D01*
X126142315Y-93024680D01*
X126250000Y-92975501D01*
X126250000Y-94644498D01*
G37*
%TD.AperFunction*%
%TA.AperFunction,Conductor*%
G36*
X106250000Y-94564498D02*
G01*
X106142315Y-94515320D01*
X106035763Y-94500000D01*
X105964237Y-94500000D01*
X105857685Y-94515320D01*
X105750000Y-94564498D01*
X105750000Y-92895501D01*
X105857685Y-92944680D01*
X105964237Y-92960000D01*
X106035763Y-92960000D01*
X106142315Y-92944680D01*
X106250000Y-92895501D01*
X106250000Y-94564498D01*
G37*
%TD.AperFunction*%
%TA.AperFunction,Conductor*%
G36*
X146250000Y-94564498D02*
G01*
X146142315Y-94515320D01*
X146035763Y-94500000D01*
X145964237Y-94500000D01*
X145857685Y-94515320D01*
X145750000Y-94564498D01*
X145750000Y-92895501D01*
X145857685Y-92944680D01*
X145964237Y-92960000D01*
X146035763Y-92960000D01*
X146142315Y-92944680D01*
X146250000Y-92895501D01*
X146250000Y-94564498D01*
G37*
%TD.AperFunction*%
%TA.AperFunction,Conductor*%
G36*
X126250000Y-92104498D02*
G01*
X126142315Y-92055320D01*
X126035763Y-92040000D01*
X125964237Y-92040000D01*
X125857685Y-92055320D01*
X125750000Y-92104498D01*
X125750000Y-90435501D01*
X125857685Y-90484680D01*
X125964237Y-90500000D01*
X126035763Y-90500000D01*
X126142315Y-90484680D01*
X126250000Y-90435501D01*
X126250000Y-92104498D01*
G37*
%TD.AperFunction*%
%TA.AperFunction,Conductor*%
G36*
X106250000Y-92024498D02*
G01*
X106142315Y-91975320D01*
X106035763Y-91960000D01*
X105964237Y-91960000D01*
X105857685Y-91975320D01*
X105750000Y-92024498D01*
X105750000Y-90355501D01*
X105857685Y-90404680D01*
X105964237Y-90420000D01*
X106035763Y-90420000D01*
X106142315Y-90404680D01*
X106250000Y-90355501D01*
X106250000Y-92024498D01*
G37*
%TD.AperFunction*%
%TA.AperFunction,Conductor*%
G36*
X146250000Y-92024498D02*
G01*
X146142315Y-91975320D01*
X146035763Y-91960000D01*
X145964237Y-91960000D01*
X145857685Y-91975320D01*
X145750000Y-92024498D01*
X145750000Y-90355501D01*
X145857685Y-90404680D01*
X145964237Y-90420000D01*
X146035763Y-90420000D01*
X146142315Y-90404680D01*
X146250000Y-90355501D01*
X146250000Y-92024498D01*
G37*
%TD.AperFunction*%
%TA.AperFunction,Conductor*%
G36*
X126250000Y-89564498D02*
G01*
X126142315Y-89515320D01*
X126035763Y-89500000D01*
X125964237Y-89500000D01*
X125857685Y-89515320D01*
X125750000Y-89564498D01*
X125750000Y-87895501D01*
X125857685Y-87944680D01*
X125964237Y-87960000D01*
X126035763Y-87960000D01*
X126142315Y-87944680D01*
X126250000Y-87895501D01*
X126250000Y-89564498D01*
G37*
%TD.AperFunction*%
%TA.AperFunction,Conductor*%
G36*
X106250000Y-89484498D02*
G01*
X106142315Y-89435320D01*
X106035763Y-89420000D01*
X105964237Y-89420000D01*
X105857685Y-89435320D01*
X105750000Y-89484498D01*
X105750000Y-87815501D01*
X105857685Y-87864680D01*
X105964237Y-87880000D01*
X106035763Y-87880000D01*
X106142315Y-87864680D01*
X106250000Y-87815501D01*
X106250000Y-89484498D01*
G37*
%TD.AperFunction*%
%TA.AperFunction,Conductor*%
G36*
X146250000Y-89484498D02*
G01*
X146142315Y-89435320D01*
X146035763Y-89420000D01*
X145964237Y-89420000D01*
X145857685Y-89435320D01*
X145750000Y-89484498D01*
X145750000Y-87815501D01*
X145857685Y-87864680D01*
X145964237Y-87880000D01*
X146035763Y-87880000D01*
X146142315Y-87864680D01*
X146250000Y-87815501D01*
X146250000Y-89484498D01*
G37*
%TD.AperFunction*%
%TA.AperFunction,Conductor*%
G36*
X126250000Y-87024498D02*
G01*
X126142315Y-86975320D01*
X126035763Y-86960000D01*
X125964237Y-86960000D01*
X125857685Y-86975320D01*
X125750000Y-87024498D01*
X125750000Y-85355501D01*
X125857685Y-85404680D01*
X125964237Y-85420000D01*
X126035763Y-85420000D01*
X126142315Y-85404680D01*
X126250000Y-85355501D01*
X126250000Y-87024498D01*
G37*
%TD.AperFunction*%
%TA.AperFunction,Conductor*%
G36*
X106250000Y-86944498D02*
G01*
X106142315Y-86895320D01*
X106035763Y-86880000D01*
X105964237Y-86880000D01*
X105857685Y-86895320D01*
X105750000Y-86944498D01*
X105750000Y-85275501D01*
X105857685Y-85324680D01*
X105964237Y-85340000D01*
X106035763Y-85340000D01*
X106142315Y-85324680D01*
X106250000Y-85275501D01*
X106250000Y-86944498D01*
G37*
%TD.AperFunction*%
%TA.AperFunction,Conductor*%
G36*
X146250000Y-86944498D02*
G01*
X146142315Y-86895320D01*
X146035763Y-86880000D01*
X145964237Y-86880000D01*
X145857685Y-86895320D01*
X145750000Y-86944498D01*
X145750000Y-85275501D01*
X145857685Y-85324680D01*
X145964237Y-85340000D01*
X146035763Y-85340000D01*
X146142315Y-85324680D01*
X146250000Y-85275501D01*
X146250000Y-86944498D01*
G37*
%TD.AperFunction*%
%TA.AperFunction,Conductor*%
G36*
X126250000Y-84484498D02*
G01*
X126142315Y-84435320D01*
X126035763Y-84420000D01*
X125964237Y-84420000D01*
X125857685Y-84435320D01*
X125750000Y-84484498D01*
X125750000Y-82815501D01*
X125857685Y-82864680D01*
X125964237Y-82880000D01*
X126035763Y-82880000D01*
X126142315Y-82864680D01*
X126250000Y-82815501D01*
X126250000Y-84484498D01*
G37*
%TD.AperFunction*%
%TA.AperFunction,Conductor*%
G36*
X106250000Y-84404498D02*
G01*
X106142315Y-84355320D01*
X106035763Y-84340000D01*
X105964237Y-84340000D01*
X105857685Y-84355320D01*
X105750000Y-84404498D01*
X105750000Y-82735501D01*
X105857685Y-82784680D01*
X105964237Y-82800000D01*
X106035763Y-82800000D01*
X106142315Y-82784680D01*
X106250000Y-82735501D01*
X106250000Y-84404498D01*
G37*
%TD.AperFunction*%
%TA.AperFunction,Conductor*%
G36*
X146250000Y-84404498D02*
G01*
X146142315Y-84355320D01*
X146035763Y-84340000D01*
X145964237Y-84340000D01*
X145857685Y-84355320D01*
X145750000Y-84404498D01*
X145750000Y-82735501D01*
X145857685Y-82784680D01*
X145964237Y-82800000D01*
X146035763Y-82800000D01*
X146142315Y-82784680D01*
X146250000Y-82735501D01*
X146250000Y-84404498D01*
G37*
%TD.AperFunction*%
%TA.AperFunction,Conductor*%
G36*
X126250000Y-81944498D02*
G01*
X126142315Y-81895320D01*
X126035763Y-81880000D01*
X125964237Y-81880000D01*
X125857685Y-81895320D01*
X125750000Y-81944498D01*
X125750000Y-80275501D01*
X125857685Y-80324680D01*
X125964237Y-80340000D01*
X126035763Y-80340000D01*
X126142315Y-80324680D01*
X126250000Y-80275501D01*
X126250000Y-81944498D01*
G37*
%TD.AperFunction*%
%TA.AperFunction,Conductor*%
G36*
X106250000Y-81864498D02*
G01*
X106142315Y-81815320D01*
X106035763Y-81800000D01*
X105964237Y-81800000D01*
X105857685Y-81815320D01*
X105750000Y-81864498D01*
X105750000Y-80195501D01*
X105857685Y-80244680D01*
X105964237Y-80260000D01*
X106035763Y-80260000D01*
X106142315Y-80244680D01*
X106250000Y-80195501D01*
X106250000Y-81864498D01*
G37*
%TD.AperFunction*%
%TA.AperFunction,Conductor*%
G36*
X146250000Y-81864498D02*
G01*
X146142315Y-81815320D01*
X146035763Y-81800000D01*
X145964237Y-81800000D01*
X145857685Y-81815320D01*
X145750000Y-81864498D01*
X145750000Y-80195501D01*
X145857685Y-80244680D01*
X145964237Y-80260000D01*
X146035763Y-80260000D01*
X146142315Y-80244680D01*
X146250000Y-80195501D01*
X146250000Y-81864498D01*
G37*
%TD.AperFunction*%
%TA.AperFunction,Conductor*%
G36*
X166250000Y-94564498D02*
G01*
X166142315Y-94515320D01*
X166035763Y-94500000D01*
X165964237Y-94500000D01*
X165857685Y-94515320D01*
X165750000Y-94564498D01*
X165750000Y-92895501D01*
X165857685Y-92944680D01*
X165964237Y-92960000D01*
X166035763Y-92960000D01*
X166142315Y-92944680D01*
X166250000Y-92895501D01*
X166250000Y-94564498D01*
G37*
%TD.AperFunction*%
%TA.AperFunction,Conductor*%
G36*
X166250000Y-92024498D02*
G01*
X166142315Y-91975320D01*
X166035763Y-91960000D01*
X165964237Y-91960000D01*
X165857685Y-91975320D01*
X165750000Y-92024498D01*
X165750000Y-90355501D01*
X165857685Y-90404680D01*
X165964237Y-90420000D01*
X166035763Y-90420000D01*
X166142315Y-90404680D01*
X166250000Y-90355501D01*
X166250000Y-92024498D01*
G37*
%TD.AperFunction*%
%TA.AperFunction,Conductor*%
G36*
X166250000Y-89484498D02*
G01*
X166142315Y-89435320D01*
X166035763Y-89420000D01*
X165964237Y-89420000D01*
X165857685Y-89435320D01*
X165750000Y-89484498D01*
X165750000Y-87815501D01*
X165857685Y-87864680D01*
X165964237Y-87880000D01*
X166035763Y-87880000D01*
X166142315Y-87864680D01*
X166250000Y-87815501D01*
X166250000Y-89484498D01*
G37*
%TD.AperFunction*%
%TA.AperFunction,Conductor*%
G36*
X166250000Y-86944498D02*
G01*
X166142315Y-86895320D01*
X166035763Y-86880000D01*
X165964237Y-86880000D01*
X165857685Y-86895320D01*
X165750000Y-86944498D01*
X165750000Y-85275501D01*
X165857685Y-85324680D01*
X165964237Y-85340000D01*
X166035763Y-85340000D01*
X166142315Y-85324680D01*
X166250000Y-85275501D01*
X166250000Y-86944498D01*
G37*
%TD.AperFunction*%
%TA.AperFunction,Conductor*%
G36*
X166250000Y-84404498D02*
G01*
X166142315Y-84355320D01*
X166035763Y-84340000D01*
X165964237Y-84340000D01*
X165857685Y-84355320D01*
X165750000Y-84404498D01*
X165750000Y-82735501D01*
X165857685Y-82784680D01*
X165964237Y-82800000D01*
X166035763Y-82800000D01*
X166142315Y-82784680D01*
X166250000Y-82735501D01*
X166250000Y-84404498D01*
G37*
%TD.AperFunction*%
%TA.AperFunction,Conductor*%
G36*
X166250000Y-81864498D02*
G01*
X166142315Y-81815320D01*
X166035763Y-81800000D01*
X165964237Y-81800000D01*
X165857685Y-81815320D01*
X165750000Y-81864498D01*
X165750000Y-80195501D01*
X165857685Y-80244680D01*
X165964237Y-80260000D01*
X166035763Y-80260000D01*
X166142315Y-80244680D01*
X166250000Y-80195501D01*
X166250000Y-81864498D01*
G37*
%TD.AperFunction*%
%TA.AperFunction,Conductor*%
G36*
X177501867Y-50000613D02*
G01*
X177518189Y-50001600D01*
X177598917Y-50006483D01*
X177806399Y-50020082D01*
X177813502Y-50020963D01*
X177949227Y-50045836D01*
X178115664Y-50078942D01*
X178121961Y-50080544D01*
X178252376Y-50121183D01*
X178261157Y-50123920D01*
X178415039Y-50176155D01*
X178420539Y-50178321D01*
X178556505Y-50239514D01*
X178699853Y-50310206D01*
X178704493Y-50312747D01*
X178832387Y-50390062D01*
X178834758Y-50391570D01*
X178965590Y-50478990D01*
X178969382Y-50481736D01*
X179087552Y-50574316D01*
X179090196Y-50576508D01*
X179208075Y-50679885D01*
X179211037Y-50682659D01*
X179317339Y-50788961D01*
X179320113Y-50791923D01*
X179423490Y-50909802D01*
X179425682Y-50912446D01*
X179518262Y-51030616D01*
X179521008Y-51034408D01*
X179608428Y-51165240D01*
X179609936Y-51167611D01*
X179687251Y-51295505D01*
X179689799Y-51300160D01*
X179760491Y-51443507D01*
X179821675Y-51579454D01*
X179823848Y-51584973D01*
X179876079Y-51738842D01*
X179919446Y-51878008D01*
X179921063Y-51884362D01*
X179954167Y-52050791D01*
X179979033Y-52186486D01*
X179979917Y-52193612D01*
X179993517Y-52401100D01*
X179999387Y-52498134D01*
X179999500Y-52501879D01*
X179999500Y-147498120D01*
X179999387Y-147501865D01*
X179993517Y-147598899D01*
X179979917Y-147806386D01*
X179979033Y-147813512D01*
X179954167Y-147949208D01*
X179921063Y-148115636D01*
X179919446Y-148121990D01*
X179876079Y-148261157D01*
X179823848Y-148415025D01*
X179821675Y-148420544D01*
X179760491Y-148556492D01*
X179689799Y-148699838D01*
X179687251Y-148704493D01*
X179609936Y-148832387D01*
X179608428Y-148834758D01*
X179521008Y-148965590D01*
X179518262Y-148969382D01*
X179425682Y-149087552D01*
X179423490Y-149090196D01*
X179320113Y-149208075D01*
X179317339Y-149211037D01*
X179211037Y-149317339D01*
X179208075Y-149320113D01*
X179090196Y-149423490D01*
X179087552Y-149425682D01*
X178969382Y-149518262D01*
X178965590Y-149521008D01*
X178834758Y-149608428D01*
X178832387Y-149609936D01*
X178704493Y-149687251D01*
X178699838Y-149689799D01*
X178556492Y-149760491D01*
X178420544Y-149821675D01*
X178415025Y-149823848D01*
X178261157Y-149876079D01*
X178121990Y-149919446D01*
X178115636Y-149921063D01*
X177949208Y-149954167D01*
X177813512Y-149979033D01*
X177806386Y-149979917D01*
X177598899Y-149993517D01*
X177501866Y-149999387D01*
X177498121Y-149999500D01*
X52501879Y-149999500D01*
X52498134Y-149999387D01*
X52401100Y-149993517D01*
X52193612Y-149979917D01*
X52186486Y-149979033D01*
X52050791Y-149954167D01*
X51985021Y-149941084D01*
X51884357Y-149921061D01*
X51878012Y-149919447D01*
X51844988Y-149909156D01*
X51738842Y-149876079D01*
X51584973Y-149823848D01*
X51579454Y-149821675D01*
X51443507Y-149760491D01*
X51300160Y-149689799D01*
X51295505Y-149687251D01*
X51167611Y-149609936D01*
X51165240Y-149608428D01*
X51034408Y-149521008D01*
X51030616Y-149518262D01*
X50912446Y-149425682D01*
X50909802Y-149423490D01*
X50791923Y-149320113D01*
X50788961Y-149317339D01*
X50682659Y-149211037D01*
X50679885Y-149208075D01*
X50576508Y-149090196D01*
X50574316Y-149087552D01*
X50481736Y-148969382D01*
X50478990Y-148965590D01*
X50391570Y-148834758D01*
X50390062Y-148832387D01*
X50312747Y-148704493D01*
X50310206Y-148699853D01*
X50239508Y-148556492D01*
X50178321Y-148420539D01*
X50176155Y-148415039D01*
X50123920Y-148261157D01*
X50107570Y-148208689D01*
X50080544Y-148121961D01*
X50078942Y-148115664D01*
X50045836Y-147949227D01*
X50020963Y-147813502D01*
X50020082Y-147806399D01*
X50006479Y-147598851D01*
X50000613Y-147501866D01*
X50000500Y-147498122D01*
X50000500Y-145000000D01*
X51294922Y-145000000D01*
X51315219Y-145387287D01*
X51375886Y-145770323D01*
X51375887Y-145770330D01*
X51476262Y-146144936D01*
X51615244Y-146506994D01*
X51791310Y-146852543D01*
X52002531Y-147177793D01*
X52211095Y-147435350D01*
X52211096Y-147435350D01*
X53702266Y-145944180D01*
X53865130Y-146134870D01*
X54055819Y-146297733D01*
X52564648Y-147788903D01*
X52564649Y-147788904D01*
X52822206Y-147997468D01*
X53147456Y-148208689D01*
X53493005Y-148384755D01*
X53855063Y-148523737D01*
X54229669Y-148624112D01*
X54229676Y-148624113D01*
X54612712Y-148684780D01*
X54999999Y-148705078D01*
X55000001Y-148705078D01*
X55387287Y-148684780D01*
X55770323Y-148624113D01*
X55770330Y-148624112D01*
X56144936Y-148523737D01*
X56506994Y-148384755D01*
X56852543Y-148208689D01*
X57177783Y-147997476D01*
X57177785Y-147997475D01*
X57435349Y-147788902D01*
X55944180Y-146297733D01*
X56134870Y-146134870D01*
X56297733Y-145944180D01*
X57788902Y-147435349D01*
X57997475Y-147177785D01*
X57997476Y-147177783D01*
X58208689Y-146852543D01*
X58384755Y-146506994D01*
X58523737Y-146144936D01*
X58624112Y-145770330D01*
X58624113Y-145770323D01*
X58684780Y-145387287D01*
X58705078Y-145000000D01*
X111294922Y-145000000D01*
X111315219Y-145387287D01*
X111375886Y-145770323D01*
X111375887Y-145770330D01*
X111476262Y-146144936D01*
X111615244Y-146506994D01*
X111791310Y-146852543D01*
X112002531Y-147177793D01*
X112211095Y-147435350D01*
X112211096Y-147435350D01*
X113702266Y-145944180D01*
X113865130Y-146134870D01*
X114055819Y-146297733D01*
X112564648Y-147788903D01*
X112564649Y-147788904D01*
X112822206Y-147997468D01*
X113147456Y-148208689D01*
X113493005Y-148384755D01*
X113855063Y-148523737D01*
X114229669Y-148624112D01*
X114229676Y-148624113D01*
X114612712Y-148684780D01*
X114999999Y-148705078D01*
X115000001Y-148705078D01*
X115387287Y-148684780D01*
X115770323Y-148624113D01*
X115770330Y-148624112D01*
X116144936Y-148523737D01*
X116506994Y-148384755D01*
X116852543Y-148208689D01*
X117177783Y-147997476D01*
X117177785Y-147997475D01*
X117435349Y-147788902D01*
X115944180Y-146297733D01*
X116134870Y-146134870D01*
X116297733Y-145944180D01*
X117788902Y-147435349D01*
X117997475Y-147177785D01*
X117997476Y-147177783D01*
X118208689Y-146852543D01*
X118384755Y-146506994D01*
X118523737Y-146144936D01*
X118624112Y-145770330D01*
X118624113Y-145770323D01*
X118684780Y-145387287D01*
X118705078Y-145000000D01*
X171294922Y-145000000D01*
X171315219Y-145387287D01*
X171375886Y-145770323D01*
X171375887Y-145770330D01*
X171476262Y-146144936D01*
X171615244Y-146506994D01*
X171791310Y-146852543D01*
X172002531Y-147177793D01*
X172211095Y-147435350D01*
X172211096Y-147435350D01*
X173702266Y-145944180D01*
X173865130Y-146134870D01*
X174055819Y-146297733D01*
X172564648Y-147788903D01*
X172564649Y-147788904D01*
X172822206Y-147997468D01*
X173147456Y-148208689D01*
X173493005Y-148384755D01*
X173855063Y-148523737D01*
X174229669Y-148624112D01*
X174229676Y-148624113D01*
X174612712Y-148684780D01*
X174999999Y-148705078D01*
X175000001Y-148705078D01*
X175387287Y-148684780D01*
X175770323Y-148624113D01*
X175770330Y-148624112D01*
X176144936Y-148523737D01*
X176506994Y-148384755D01*
X176852543Y-148208689D01*
X177177783Y-147997476D01*
X177177785Y-147997475D01*
X177435349Y-147788902D01*
X175944180Y-146297733D01*
X176134870Y-146134870D01*
X176297733Y-145944180D01*
X177788902Y-147435349D01*
X177997475Y-147177785D01*
X177997476Y-147177783D01*
X178208689Y-146852543D01*
X178384755Y-146506994D01*
X178523737Y-146144936D01*
X178624112Y-145770330D01*
X178624113Y-145770323D01*
X178684780Y-145387287D01*
X178705078Y-145000000D01*
X178705078Y-144999999D01*
X178684780Y-144612712D01*
X178624113Y-144229676D01*
X178624112Y-144229669D01*
X178523737Y-143855063D01*
X178384755Y-143493005D01*
X178208689Y-143147456D01*
X177997468Y-142822206D01*
X177788904Y-142564649D01*
X177788903Y-142564648D01*
X176297732Y-144055818D01*
X176134870Y-143865130D01*
X175944180Y-143702266D01*
X177435350Y-142211096D01*
X177435350Y-142211095D01*
X177177793Y-142002531D01*
X176852543Y-141791310D01*
X176506994Y-141615244D01*
X176144936Y-141476262D01*
X175770330Y-141375887D01*
X175770323Y-141375886D01*
X175387287Y-141315219D01*
X175000001Y-141294922D01*
X174999999Y-141294922D01*
X174612712Y-141315219D01*
X174229676Y-141375886D01*
X174229669Y-141375887D01*
X173855063Y-141476262D01*
X173493005Y-141615244D01*
X173147456Y-141791310D01*
X172822206Y-142002531D01*
X172564648Y-142211095D01*
X172564648Y-142211096D01*
X174055819Y-143702266D01*
X173865130Y-143865130D01*
X173702266Y-144055818D01*
X172211096Y-142564648D01*
X172211095Y-142564648D01*
X172002531Y-142822206D01*
X171791310Y-143147456D01*
X171615244Y-143493005D01*
X171476262Y-143855063D01*
X171375887Y-144229669D01*
X171375886Y-144229676D01*
X171315219Y-144612712D01*
X171294922Y-144999999D01*
X171294922Y-145000000D01*
X118705078Y-145000000D01*
X118705078Y-144999999D01*
X118684780Y-144612712D01*
X118624113Y-144229676D01*
X118624112Y-144229669D01*
X118523737Y-143855063D01*
X118384755Y-143493005D01*
X118208689Y-143147456D01*
X117997468Y-142822206D01*
X117788904Y-142564649D01*
X117788903Y-142564648D01*
X116297732Y-144055818D01*
X116134870Y-143865130D01*
X115944180Y-143702266D01*
X117435350Y-142211096D01*
X117435350Y-142211095D01*
X117177793Y-142002531D01*
X116852543Y-141791310D01*
X116506994Y-141615244D01*
X116144936Y-141476262D01*
X115770330Y-141375887D01*
X115770323Y-141375886D01*
X115387287Y-141315219D01*
X115000001Y-141294922D01*
X114999999Y-141294922D01*
X114612712Y-141315219D01*
X114229676Y-141375886D01*
X114229669Y-141375887D01*
X113855063Y-141476262D01*
X113493005Y-141615244D01*
X113147456Y-141791310D01*
X112822206Y-142002531D01*
X112564648Y-142211095D01*
X112564648Y-142211096D01*
X114055819Y-143702266D01*
X113865130Y-143865130D01*
X113702266Y-144055819D01*
X112211096Y-142564648D01*
X112211095Y-142564648D01*
X112002531Y-142822206D01*
X111791310Y-143147456D01*
X111615244Y-143493005D01*
X111476262Y-143855063D01*
X111375887Y-144229669D01*
X111375886Y-144229676D01*
X111315219Y-144612712D01*
X111294922Y-144999999D01*
X111294922Y-145000000D01*
X58705078Y-145000000D01*
X58705078Y-144999999D01*
X58684780Y-144612712D01*
X58624113Y-144229676D01*
X58624112Y-144229669D01*
X58523737Y-143855063D01*
X58384755Y-143493005D01*
X58208689Y-143147456D01*
X57997468Y-142822206D01*
X57788904Y-142564649D01*
X57788903Y-142564648D01*
X56297732Y-144055818D01*
X56134870Y-143865130D01*
X55944180Y-143702266D01*
X57435350Y-142211096D01*
X57435350Y-142211095D01*
X57177793Y-142002531D01*
X56852543Y-141791310D01*
X56506994Y-141615244D01*
X56144936Y-141476262D01*
X55770330Y-141375887D01*
X55770323Y-141375886D01*
X55387287Y-141315219D01*
X55000001Y-141294922D01*
X54999999Y-141294922D01*
X54612712Y-141315219D01*
X54229676Y-141375886D01*
X54229669Y-141375887D01*
X53855063Y-141476262D01*
X53493005Y-141615244D01*
X53147456Y-141791310D01*
X52822206Y-142002531D01*
X52564648Y-142211095D01*
X52564648Y-142211096D01*
X54055819Y-143702266D01*
X53865130Y-143865130D01*
X53702266Y-144055818D01*
X52211096Y-142564648D01*
X52211095Y-142564648D01*
X52002531Y-142822206D01*
X51791310Y-143147456D01*
X51615244Y-143493005D01*
X51476262Y-143855063D01*
X51375887Y-144229669D01*
X51375886Y-144229676D01*
X51315219Y-144612712D01*
X51294922Y-144999999D01*
X51294922Y-145000000D01*
X50000500Y-145000000D01*
X50000500Y-133650000D01*
X71994600Y-133650000D01*
X72014192Y-134148639D01*
X72072846Y-134644204D01*
X72170200Y-135133639D01*
X72305655Y-135613927D01*
X72478376Y-136082106D01*
X72687297Y-136535291D01*
X72687299Y-136535294D01*
X72687299Y-136535295D01*
X72931127Y-136970681D01*
X72931130Y-136970686D01*
X72931131Y-136970687D01*
X73208373Y-137385610D01*
X73517316Y-137777502D01*
X73856054Y-138143946D01*
X74222498Y-138482684D01*
X74614390Y-138791627D01*
X74976188Y-139033372D01*
X75029319Y-139068873D01*
X75464705Y-139312701D01*
X75464709Y-139312703D01*
X75917894Y-139521624D01*
X75917897Y-139521625D01*
X75917899Y-139521626D01*
X76003032Y-139553033D01*
X76006719Y-139554530D01*
X76024435Y-139562390D01*
X76031307Y-139563464D01*
X76370861Y-139688733D01*
X76386084Y-139694349D01*
X76462657Y-139715944D01*
X76477274Y-139720066D01*
X76481005Y-139721247D01*
X76498354Y-139727345D01*
X76504847Y-139727842D01*
X76866361Y-139829800D01*
X76963121Y-139849046D01*
X76966870Y-139849914D01*
X76982813Y-139854130D01*
X76987689Y-139854075D01*
X76995544Y-139855496D01*
X77355796Y-139927154D01*
X77457766Y-139939223D01*
X77461485Y-139939779D01*
X77477284Y-139942637D01*
X77480957Y-139942305D01*
X77499050Y-139944110D01*
X77851360Y-139985808D01*
X77851359Y-139985808D01*
X77860619Y-139986171D01*
X77957973Y-139989996D01*
X77961644Y-139990251D01*
X77971294Y-139991214D01*
X77971306Y-139991214D01*
X77977171Y-139991799D01*
X77979622Y-139991379D01*
X78007005Y-139991923D01*
X78350000Y-140005400D01*
X78460676Y-140001051D01*
X78464249Y-140001016D01*
X78476302Y-140001256D01*
X78476305Y-140001255D01*
X78476515Y-140001260D01*
X78476539Y-140001260D01*
X78479357Y-140001316D01*
X78480599Y-140001000D01*
X78502652Y-139999682D01*
X78516350Y-139998863D01*
X78812994Y-139987208D01*
X78848641Y-139985808D01*
X78848640Y-139985808D01*
X78862040Y-139984221D01*
X78962621Y-139972317D01*
X78966185Y-139972000D01*
X78974010Y-139971532D01*
X78980511Y-139971144D01*
X78980515Y-139971143D01*
X78980689Y-139971133D01*
X78980762Y-139971108D01*
X79023929Y-139965061D01*
X79344204Y-139927154D01*
X79460801Y-139903961D01*
X79464254Y-139903376D01*
X79480734Y-139901068D01*
X79480745Y-139901065D01*
X79481712Y-139900930D01*
X79481888Y-139900859D01*
X79480774Y-139901059D01*
X79526576Y-139890878D01*
X79833639Y-139829800D01*
X79952050Y-139796404D01*
X79955361Y-139795570D01*
X79973808Y-139791470D01*
X79973806Y-139791470D01*
X79973813Y-139791469D01*
X79973811Y-139791469D01*
X80021096Y-139776931D01*
X80222731Y-139720065D01*
X80313916Y-139694349D01*
X80313915Y-139694349D01*
X80313922Y-139694346D01*
X80313927Y-139694345D01*
X80433276Y-139650314D01*
X80436411Y-139649255D01*
X80452006Y-139644460D01*
X80454485Y-139643699D01*
X80454486Y-139643703D01*
X80454509Y-139643691D01*
X80456615Y-139643044D01*
X80504543Y-139624022D01*
X80782106Y-139521624D01*
X80901423Y-139466617D01*
X80904438Y-139465325D01*
X80926102Y-139456728D01*
X80926102Y-139456729D01*
X80926560Y-139456503D01*
X80973900Y-139433205D01*
X81235291Y-139312703D01*
X81353631Y-139246428D01*
X81356440Y-139244952D01*
X81379307Y-139233700D01*
X81379308Y-139233699D01*
X81379321Y-139233693D01*
X81379316Y-139233695D01*
X81393043Y-139225524D01*
X81426255Y-139205757D01*
X81593663Y-139112004D01*
X81670681Y-139068873D01*
X81695339Y-139052397D01*
X81786975Y-138991167D01*
X81789654Y-138989477D01*
X81813356Y-138975371D01*
X81858752Y-138943208D01*
X82085610Y-138791627D01*
X82085615Y-138791622D01*
X82085621Y-138791619D01*
X82113387Y-138769729D01*
X82198845Y-138702359D01*
X82201321Y-138700509D01*
X82225510Y-138683372D01*
X82268738Y-138647260D01*
X82468507Y-138489775D01*
X82477506Y-138482681D01*
X82505109Y-138457163D01*
X82586571Y-138381861D01*
X82588851Y-138379857D01*
X82613161Y-138359551D01*
X82653718Y-138319790D01*
X82843946Y-138143946D01*
X82947761Y-138031639D01*
X82949821Y-138029518D01*
X82973859Y-138005954D01*
X82973859Y-138005953D01*
X82973866Y-138005947D01*
X82973865Y-138005947D01*
X83011263Y-137962943D01*
X83182684Y-137777502D01*
X83182686Y-137777500D01*
X83182687Y-137777499D01*
X83215706Y-137735614D01*
X83280119Y-137653905D01*
X83281999Y-137651636D01*
X83282643Y-137650896D01*
X83284112Y-137649209D01*
X83284114Y-137649204D01*
X83305323Y-137624818D01*
X83339185Y-137578981D01*
X83429828Y-137464001D01*
X83491626Y-137385613D01*
X83538940Y-137314800D01*
X83581558Y-137251017D01*
X83583209Y-137248669D01*
X83605455Y-137218558D01*
X83605455Y-137218559D01*
X83611438Y-137208945D01*
X83635464Y-137170341D01*
X83768869Y-136970687D01*
X83850204Y-136825452D01*
X83851617Y-136823060D01*
X83872367Y-136789724D01*
X83898286Y-136739597D01*
X84012701Y-136535295D01*
X84012703Y-136535291D01*
X84084323Y-136379933D01*
X84085504Y-136377516D01*
X84104362Y-136341046D01*
X84126003Y-136289522D01*
X84221624Y-136082106D01*
X84282914Y-135915971D01*
X84299979Y-135875347D01*
X84306313Y-135856110D01*
X84317243Y-135822918D01*
X84394345Y-135613927D01*
X84394345Y-135613926D01*
X84394349Y-135613916D01*
X84410506Y-135556621D01*
X84443702Y-135438917D01*
X84457971Y-135395593D01*
X84470814Y-135342786D01*
X84529800Y-135133639D01*
X84566207Y-134950605D01*
X84577351Y-134904795D01*
X84585813Y-134852038D01*
X84627154Y-134644204D01*
X84649658Y-134454062D01*
X84657359Y-134406066D01*
X84657359Y-134406064D01*
X84661523Y-134353825D01*
X84685808Y-134148642D01*
X84685808Y-134148641D01*
X84686347Y-134134919D01*
X84693520Y-133952358D01*
X84697490Y-133902554D01*
X84698170Y-133833999D01*
X84705400Y-133650000D01*
X96994600Y-133650000D01*
X97014192Y-134148639D01*
X97072846Y-134644204D01*
X97170200Y-135133639D01*
X97305655Y-135613927D01*
X97478376Y-136082106D01*
X97687297Y-136535291D01*
X97687299Y-136535294D01*
X97687299Y-136535295D01*
X97931127Y-136970681D01*
X97931130Y-136970686D01*
X97931131Y-136970687D01*
X98208373Y-137385610D01*
X98517316Y-137777502D01*
X98856054Y-138143946D01*
X99222498Y-138482684D01*
X99614390Y-138791627D01*
X99976188Y-139033372D01*
X100029319Y-139068873D01*
X100464705Y-139312701D01*
X100464709Y-139312703D01*
X100917894Y-139521624D01*
X100917897Y-139521625D01*
X100917899Y-139521626D01*
X101003032Y-139553033D01*
X101006719Y-139554530D01*
X101024435Y-139562390D01*
X101031307Y-139563464D01*
X101370861Y-139688733D01*
X101386084Y-139694349D01*
X101462657Y-139715944D01*
X101477274Y-139720066D01*
X101481005Y-139721247D01*
X101498354Y-139727345D01*
X101504847Y-139727842D01*
X101866361Y-139829800D01*
X101963121Y-139849046D01*
X101966870Y-139849914D01*
X101982813Y-139854130D01*
X101987689Y-139854075D01*
X101995544Y-139855496D01*
X102355796Y-139927154D01*
X102457766Y-139939223D01*
X102461485Y-139939779D01*
X102477284Y-139942637D01*
X102480957Y-139942305D01*
X102499050Y-139944110D01*
X102851360Y-139985808D01*
X102851359Y-139985808D01*
X102860619Y-139986171D01*
X102957973Y-139989996D01*
X102961644Y-139990251D01*
X102971294Y-139991214D01*
X102971306Y-139991214D01*
X102977171Y-139991799D01*
X102979622Y-139991379D01*
X103007005Y-139991923D01*
X103350000Y-140005400D01*
X103460676Y-140001051D01*
X103464249Y-140001016D01*
X103476302Y-140001256D01*
X103476305Y-140001255D01*
X103476515Y-140001260D01*
X103476539Y-140001260D01*
X103479357Y-140001316D01*
X103480599Y-140001000D01*
X103502652Y-139999682D01*
X103516350Y-139998863D01*
X103812994Y-139987208D01*
X103848641Y-139985808D01*
X103848640Y-139985808D01*
X103862040Y-139984221D01*
X103962621Y-139972317D01*
X103966185Y-139972000D01*
X103974010Y-139971532D01*
X103980511Y-139971144D01*
X103980515Y-139971143D01*
X103980689Y-139971133D01*
X103980762Y-139971108D01*
X104023929Y-139965061D01*
X104344204Y-139927154D01*
X104460801Y-139903961D01*
X104464254Y-139903376D01*
X104480734Y-139901068D01*
X104480745Y-139901065D01*
X104481712Y-139900930D01*
X104481888Y-139900859D01*
X104480774Y-139901059D01*
X104526576Y-139890878D01*
X104833639Y-139829800D01*
X104952050Y-139796404D01*
X104955361Y-139795570D01*
X104973808Y-139791470D01*
X104973806Y-139791470D01*
X104973813Y-139791469D01*
X104973811Y-139791469D01*
X105021096Y-139776931D01*
X105222731Y-139720065D01*
X105313916Y-139694349D01*
X105313915Y-139694349D01*
X105313922Y-139694346D01*
X105313927Y-139694345D01*
X105433276Y-139650314D01*
X105436411Y-139649255D01*
X105452006Y-139644460D01*
X105454485Y-139643699D01*
X105454486Y-139643703D01*
X105454509Y-139643691D01*
X105456615Y-139643044D01*
X105504543Y-139624022D01*
X105782106Y-139521624D01*
X105901423Y-139466617D01*
X105904438Y-139465325D01*
X105926102Y-139456728D01*
X105926102Y-139456729D01*
X105926560Y-139456503D01*
X105973900Y-139433205D01*
X106235291Y-139312703D01*
X106353631Y-139246428D01*
X106356440Y-139244952D01*
X106379307Y-139233700D01*
X106379308Y-139233699D01*
X106379321Y-139233693D01*
X106379316Y-139233695D01*
X106393043Y-139225524D01*
X106426255Y-139205757D01*
X106593663Y-139112004D01*
X106670681Y-139068873D01*
X106695339Y-139052397D01*
X106786975Y-138991167D01*
X106789654Y-138989477D01*
X106813356Y-138975371D01*
X106858752Y-138943208D01*
X107085610Y-138791627D01*
X107085615Y-138791622D01*
X107085621Y-138791619D01*
X107113387Y-138769729D01*
X107198845Y-138702359D01*
X107201321Y-138700509D01*
X107225510Y-138683372D01*
X107268738Y-138647260D01*
X107468507Y-138489775D01*
X107477506Y-138482681D01*
X107505109Y-138457163D01*
X107586571Y-138381861D01*
X107588851Y-138379857D01*
X107613161Y-138359551D01*
X107653718Y-138319790D01*
X107843946Y-138143946D01*
X107947761Y-138031639D01*
X107949821Y-138029518D01*
X107973859Y-138005954D01*
X107973859Y-138005953D01*
X107973866Y-138005947D01*
X107973865Y-138005947D01*
X108011263Y-137962943D01*
X108182684Y-137777502D01*
X108182686Y-137777500D01*
X108182687Y-137777499D01*
X108215706Y-137735614D01*
X108280119Y-137653905D01*
X108281999Y-137651636D01*
X108282643Y-137650896D01*
X108284112Y-137649209D01*
X108284114Y-137649204D01*
X108305323Y-137624818D01*
X108339185Y-137578981D01*
X108429828Y-137464001D01*
X108491626Y-137385613D01*
X108538940Y-137314800D01*
X108581558Y-137251017D01*
X108583209Y-137248669D01*
X108605455Y-137218558D01*
X108605455Y-137218559D01*
X108611438Y-137208945D01*
X108635464Y-137170341D01*
X108768869Y-136970687D01*
X108850204Y-136825452D01*
X108851617Y-136823060D01*
X108872367Y-136789724D01*
X108898286Y-136739597D01*
X109012701Y-136535295D01*
X109012703Y-136535291D01*
X109084323Y-136379933D01*
X109085504Y-136377516D01*
X109104362Y-136341046D01*
X109126003Y-136289522D01*
X109221624Y-136082106D01*
X109282914Y-135915971D01*
X109299979Y-135875347D01*
X109306313Y-135856110D01*
X109317243Y-135822918D01*
X109394345Y-135613927D01*
X109394345Y-135613926D01*
X109394349Y-135613916D01*
X109410506Y-135556621D01*
X109443702Y-135438917D01*
X109457971Y-135395593D01*
X109470814Y-135342786D01*
X109529800Y-135133639D01*
X109566207Y-134950605D01*
X109577351Y-134904795D01*
X109585813Y-134852038D01*
X109627154Y-134644204D01*
X109649658Y-134454062D01*
X109657359Y-134406066D01*
X109657359Y-134406064D01*
X109661523Y-134353825D01*
X109685808Y-134148642D01*
X109685808Y-134148641D01*
X109686347Y-134134919D01*
X109691648Y-134000000D01*
X121994600Y-134000000D01*
X122014192Y-134498640D01*
X122031421Y-134644202D01*
X122072846Y-134994204D01*
X122170200Y-135483639D01*
X122305655Y-135963927D01*
X122305657Y-135963934D01*
X122305659Y-135963939D01*
X122459145Y-136379978D01*
X122478376Y-136432106D01*
X122687297Y-136885291D01*
X122687299Y-136885294D01*
X122687299Y-136885295D01*
X122931127Y-137320681D01*
X122931130Y-137320686D01*
X122931131Y-137320687D01*
X123208373Y-137735610D01*
X123517316Y-138127502D01*
X123856054Y-138493946D01*
X124222498Y-138832684D01*
X124614390Y-139141627D01*
X124870421Y-139312701D01*
X125029319Y-139418873D01*
X125464705Y-139662701D01*
X125464709Y-139662703D01*
X125917894Y-139871624D01*
X125997705Y-139901068D01*
X126003032Y-139903033D01*
X126006719Y-139904530D01*
X126024435Y-139912390D01*
X126031307Y-139913464D01*
X126370861Y-140038733D01*
X126386084Y-140044349D01*
X126462657Y-140065944D01*
X126477274Y-140070066D01*
X126481005Y-140071247D01*
X126498354Y-140077345D01*
X126504847Y-140077842D01*
X126866361Y-140179800D01*
X126963121Y-140199046D01*
X126966870Y-140199914D01*
X126982813Y-140204130D01*
X126987689Y-140204075D01*
X126995544Y-140205496D01*
X127355796Y-140277154D01*
X127457766Y-140289223D01*
X127461485Y-140289779D01*
X127477284Y-140292637D01*
X127480957Y-140292305D01*
X127499050Y-140294110D01*
X127851360Y-140335808D01*
X127851359Y-140335808D01*
X127860619Y-140336171D01*
X127957973Y-140339996D01*
X127961644Y-140340251D01*
X127971294Y-140341214D01*
X127971306Y-140341214D01*
X127977171Y-140341799D01*
X127979622Y-140341379D01*
X128007005Y-140341923D01*
X128350000Y-140355400D01*
X128460676Y-140351051D01*
X128464249Y-140351016D01*
X128476302Y-140351256D01*
X128476305Y-140351255D01*
X128476515Y-140351260D01*
X128476539Y-140351260D01*
X128479357Y-140351316D01*
X128480599Y-140351000D01*
X128502652Y-140349682D01*
X128516350Y-140348863D01*
X128812994Y-140337208D01*
X128848641Y-140335808D01*
X128848640Y-140335808D01*
X128862040Y-140334221D01*
X128962621Y-140322317D01*
X128966185Y-140322000D01*
X128974010Y-140321532D01*
X128980511Y-140321144D01*
X128980515Y-140321143D01*
X128980689Y-140321133D01*
X128980762Y-140321108D01*
X129023929Y-140315061D01*
X129344204Y-140277154D01*
X129460801Y-140253961D01*
X129464254Y-140253376D01*
X129480734Y-140251068D01*
X129480745Y-140251065D01*
X129481712Y-140250930D01*
X129481888Y-140250859D01*
X129480774Y-140251059D01*
X129526576Y-140240878D01*
X129833639Y-140179800D01*
X129952050Y-140146404D01*
X129955361Y-140145570D01*
X129973808Y-140141470D01*
X129973806Y-140141470D01*
X129973813Y-140141469D01*
X129973811Y-140141469D01*
X130021096Y-140126931D01*
X130222731Y-140070065D01*
X130313916Y-140044349D01*
X130313915Y-140044349D01*
X130313922Y-140044346D01*
X130313927Y-140044345D01*
X130433276Y-140000314D01*
X130436411Y-139999255D01*
X130452006Y-139994460D01*
X130454485Y-139993699D01*
X130454486Y-139993703D01*
X130454509Y-139993691D01*
X130456615Y-139993044D01*
X130504543Y-139974022D01*
X130782106Y-139871624D01*
X130901423Y-139816617D01*
X130904438Y-139815325D01*
X130926102Y-139806728D01*
X130926102Y-139806729D01*
X130926560Y-139806503D01*
X130973900Y-139783205D01*
X131235291Y-139662703D01*
X131353631Y-139596428D01*
X131356440Y-139594952D01*
X131379307Y-139583700D01*
X131379308Y-139583699D01*
X131379321Y-139583693D01*
X131379316Y-139583695D01*
X131393043Y-139575524D01*
X131426255Y-139555757D01*
X131603487Y-139456503D01*
X131670681Y-139418873D01*
X131678215Y-139413839D01*
X131786975Y-139341167D01*
X131789654Y-139339477D01*
X131813356Y-139325371D01*
X131858752Y-139293208D01*
X132085610Y-139141627D01*
X132085615Y-139141622D01*
X132085621Y-139141619D01*
X132113387Y-139119729D01*
X132198845Y-139052359D01*
X132201321Y-139050509D01*
X132225510Y-139033372D01*
X132268738Y-138997260D01*
X132463557Y-138843676D01*
X132477506Y-138832681D01*
X132521921Y-138791623D01*
X132586571Y-138731861D01*
X132588851Y-138729857D01*
X132613161Y-138709551D01*
X132653718Y-138669790D01*
X132843946Y-138493946D01*
X132947761Y-138381639D01*
X132949821Y-138379518D01*
X132973859Y-138355954D01*
X132973859Y-138355953D01*
X132973866Y-138355947D01*
X132973865Y-138355947D01*
X133011263Y-138312943D01*
X133182684Y-138127502D01*
X133182686Y-138127500D01*
X133182687Y-138127499D01*
X133203410Y-138101210D01*
X133280119Y-138003905D01*
X133281999Y-138001636D01*
X133282643Y-138000896D01*
X133284112Y-137999209D01*
X133284114Y-137999204D01*
X133305323Y-137974818D01*
X133339185Y-137928981D01*
X133429828Y-137814001D01*
X133491626Y-137735613D01*
X133549358Y-137649209D01*
X133581558Y-137601017D01*
X133583209Y-137598669D01*
X133605455Y-137568558D01*
X133605455Y-137568559D01*
X133611438Y-137558945D01*
X133635464Y-137520341D01*
X133768869Y-137320687D01*
X133850204Y-137175452D01*
X133851617Y-137173060D01*
X133872367Y-137139724D01*
X133898286Y-137089597D01*
X134012701Y-136885295D01*
X134012703Y-136885291D01*
X134084323Y-136729933D01*
X134085504Y-136727516D01*
X134104362Y-136691046D01*
X134126003Y-136639522D01*
X134221624Y-136432106D01*
X134282914Y-136265971D01*
X134299979Y-136225347D01*
X134306313Y-136206110D01*
X134317243Y-136172918D01*
X134394345Y-135963927D01*
X134394345Y-135963926D01*
X134394349Y-135963916D01*
X134424752Y-135856110D01*
X134443702Y-135788917D01*
X134457971Y-135745593D01*
X134470814Y-135692786D01*
X134529800Y-135483639D01*
X134566207Y-135300605D01*
X134577351Y-135254795D01*
X134585813Y-135202038D01*
X134627154Y-134994204D01*
X134649658Y-134804062D01*
X134657359Y-134756066D01*
X134657359Y-134756064D01*
X134661523Y-134703825D01*
X134685808Y-134498642D01*
X134685808Y-134498641D01*
X134689445Y-134406064D01*
X134693520Y-134302358D01*
X134697490Y-134252554D01*
X134698170Y-134183999D01*
X134705400Y-134000000D01*
X134698170Y-133816001D01*
X134697490Y-133747446D01*
X134693520Y-133697641D01*
X134691648Y-133650000D01*
X146994600Y-133650000D01*
X147014192Y-134148639D01*
X147072846Y-134644204D01*
X147170200Y-135133639D01*
X147305655Y-135613927D01*
X147478376Y-136082106D01*
X147687297Y-136535291D01*
X147687299Y-136535294D01*
X147687299Y-136535295D01*
X147931127Y-136970681D01*
X147931130Y-136970686D01*
X147931131Y-136970687D01*
X148208373Y-137385610D01*
X148517316Y-137777502D01*
X148856054Y-138143946D01*
X149222498Y-138482684D01*
X149614390Y-138791627D01*
X149976188Y-139033372D01*
X150029319Y-139068873D01*
X150464705Y-139312701D01*
X150464709Y-139312703D01*
X150917894Y-139521624D01*
X150917897Y-139521625D01*
X150917899Y-139521626D01*
X151003032Y-139553033D01*
X151006719Y-139554530D01*
X151024435Y-139562390D01*
X151031307Y-139563464D01*
X151370861Y-139688733D01*
X151386084Y-139694349D01*
X151462657Y-139715944D01*
X151477274Y-139720066D01*
X151481005Y-139721247D01*
X151498354Y-139727345D01*
X151504847Y-139727842D01*
X151866361Y-139829800D01*
X151963121Y-139849046D01*
X151966870Y-139849914D01*
X151982813Y-139854130D01*
X151987689Y-139854075D01*
X151995544Y-139855496D01*
X152355796Y-139927154D01*
X152457766Y-139939223D01*
X152461485Y-139939779D01*
X152477284Y-139942637D01*
X152480957Y-139942305D01*
X152499050Y-139944110D01*
X152851360Y-139985808D01*
X152851359Y-139985808D01*
X152860619Y-139986171D01*
X152957973Y-139989996D01*
X152961644Y-139990251D01*
X152971294Y-139991214D01*
X152971306Y-139991214D01*
X152977171Y-139991799D01*
X152979622Y-139991379D01*
X153007005Y-139991923D01*
X153350000Y-140005400D01*
X153460676Y-140001051D01*
X153464249Y-140001016D01*
X153476302Y-140001256D01*
X153476305Y-140001255D01*
X153476515Y-140001260D01*
X153476539Y-140001260D01*
X153479357Y-140001316D01*
X153480599Y-140001000D01*
X153502652Y-139999682D01*
X153516350Y-139998863D01*
X153812994Y-139987208D01*
X153848641Y-139985808D01*
X153848640Y-139985808D01*
X153862040Y-139984221D01*
X153962621Y-139972317D01*
X153966185Y-139972000D01*
X153974010Y-139971532D01*
X153980511Y-139971144D01*
X153980515Y-139971143D01*
X153980689Y-139971133D01*
X153980762Y-139971108D01*
X154023929Y-139965061D01*
X154344204Y-139927154D01*
X154460801Y-139903961D01*
X154464254Y-139903376D01*
X154480734Y-139901068D01*
X154480745Y-139901065D01*
X154481712Y-139900930D01*
X154481888Y-139900859D01*
X154480774Y-139901059D01*
X154526576Y-139890878D01*
X154833639Y-139829800D01*
X154952050Y-139796404D01*
X154955361Y-139795570D01*
X154973808Y-139791470D01*
X154973806Y-139791470D01*
X154973813Y-139791469D01*
X154973811Y-139791469D01*
X155021096Y-139776931D01*
X155222731Y-139720065D01*
X155313916Y-139694349D01*
X155313915Y-139694349D01*
X155313922Y-139694346D01*
X155313927Y-139694345D01*
X155433276Y-139650314D01*
X155436411Y-139649255D01*
X155452006Y-139644460D01*
X155454485Y-139643699D01*
X155454486Y-139643703D01*
X155454509Y-139643691D01*
X155456615Y-139643044D01*
X155504543Y-139624022D01*
X155782106Y-139521624D01*
X155901423Y-139466617D01*
X155904438Y-139465325D01*
X155926102Y-139456728D01*
X155926102Y-139456729D01*
X155926560Y-139456503D01*
X155973900Y-139433205D01*
X156235291Y-139312703D01*
X156353631Y-139246428D01*
X156356440Y-139244952D01*
X156379307Y-139233700D01*
X156379308Y-139233699D01*
X156379321Y-139233693D01*
X156379316Y-139233695D01*
X156393043Y-139225524D01*
X156426255Y-139205757D01*
X156593663Y-139112004D01*
X156670681Y-139068873D01*
X156695339Y-139052397D01*
X156786975Y-138991167D01*
X156789654Y-138989477D01*
X156813356Y-138975371D01*
X156858752Y-138943208D01*
X157085610Y-138791627D01*
X157085615Y-138791622D01*
X157085621Y-138791619D01*
X157113387Y-138769729D01*
X157198845Y-138702359D01*
X157201321Y-138700509D01*
X157225510Y-138683372D01*
X157268738Y-138647260D01*
X157468507Y-138489775D01*
X157477506Y-138482681D01*
X157505109Y-138457163D01*
X157586571Y-138381861D01*
X157588851Y-138379857D01*
X157613161Y-138359551D01*
X157653718Y-138319790D01*
X157843946Y-138143946D01*
X157947761Y-138031639D01*
X157949821Y-138029518D01*
X157973859Y-138005954D01*
X157973859Y-138005953D01*
X157973866Y-138005947D01*
X157973865Y-138005947D01*
X158011263Y-137962943D01*
X158182684Y-137777502D01*
X158182686Y-137777500D01*
X158182687Y-137777499D01*
X158215706Y-137735614D01*
X158280119Y-137653905D01*
X158281999Y-137651636D01*
X158282643Y-137650896D01*
X158284112Y-137649209D01*
X158284114Y-137649204D01*
X158305323Y-137624818D01*
X158339185Y-137578981D01*
X158429828Y-137464001D01*
X158491626Y-137385613D01*
X158538940Y-137314800D01*
X158581558Y-137251017D01*
X158583209Y-137248669D01*
X158605455Y-137218558D01*
X158605455Y-137218559D01*
X158611438Y-137208945D01*
X158635464Y-137170341D01*
X158768869Y-136970687D01*
X158850204Y-136825452D01*
X158851617Y-136823060D01*
X158872367Y-136789724D01*
X158898286Y-136739597D01*
X159012701Y-136535295D01*
X159012703Y-136535291D01*
X159084323Y-136379933D01*
X159085504Y-136377516D01*
X159104362Y-136341046D01*
X159126003Y-136289522D01*
X159221624Y-136082106D01*
X159282914Y-135915971D01*
X159299979Y-135875347D01*
X159306313Y-135856110D01*
X159317243Y-135822918D01*
X159394345Y-135613927D01*
X159394345Y-135613926D01*
X159394349Y-135613916D01*
X159410506Y-135556621D01*
X159443702Y-135438917D01*
X159457971Y-135395593D01*
X159470814Y-135342786D01*
X159529800Y-135133639D01*
X159566207Y-134950605D01*
X159577351Y-134904795D01*
X159585813Y-134852038D01*
X159627154Y-134644204D01*
X159649658Y-134454062D01*
X159657359Y-134406066D01*
X159657359Y-134406064D01*
X159661523Y-134353825D01*
X159685808Y-134148642D01*
X159685808Y-134148641D01*
X159686347Y-134134919D01*
X159693520Y-133952358D01*
X159697490Y-133902554D01*
X159698170Y-133833999D01*
X159705400Y-133650000D01*
X159698170Y-133466001D01*
X159697490Y-133397446D01*
X159693520Y-133347641D01*
X159685808Y-133151361D01*
X159661521Y-132946166D01*
X159657359Y-132893936D01*
X159649660Y-132845950D01*
X159627154Y-132655796D01*
X159585818Y-132447984D01*
X159577350Y-132395199D01*
X159577350Y-132395200D01*
X159566206Y-132349388D01*
X159529800Y-132166361D01*
X159470821Y-131957236D01*
X159457971Y-131904407D01*
X159457969Y-131904401D01*
X159457970Y-131904402D01*
X159452079Y-131886518D01*
X159443700Y-131861075D01*
X159403407Y-131718205D01*
X159394345Y-131686072D01*
X159394345Y-131686073D01*
X159317245Y-131477086D01*
X159299976Y-131424646D01*
X159299973Y-131424639D01*
X159299974Y-131424640D01*
X159282913Y-131384025D01*
X159221624Y-131217894D01*
X159221623Y-131217894D01*
X159126007Y-131010485D01*
X159104364Y-130958960D01*
X159104362Y-130958954D01*
X159085507Y-130922490D01*
X159084320Y-130920060D01*
X159012703Y-130764709D01*
X158898283Y-130560399D01*
X158883268Y-130531359D01*
X158872365Y-130510271D01*
X158872365Y-130510272D01*
X158851632Y-130476961D01*
X158850174Y-130474493D01*
X158768873Y-130329319D01*
X158635484Y-130129688D01*
X158605459Y-130081448D01*
X158605458Y-130081447D01*
X158597761Y-130071028D01*
X158583209Y-130051330D01*
X158581552Y-130048973D01*
X158491627Y-129914390D01*
X158491622Y-129914384D01*
X158491619Y-129914379D01*
X158339200Y-129721038D01*
X158305323Y-129675182D01*
X158281996Y-129648359D01*
X158280089Y-129646056D01*
X158278504Y-129644046D01*
X158185705Y-129526330D01*
X158182686Y-129522500D01*
X158182686Y-129522501D01*
X158182684Y-129522498D01*
X158011276Y-129337070D01*
X157995664Y-129319119D01*
X157973860Y-129294046D01*
X157949856Y-129270516D01*
X157947729Y-129268326D01*
X157854356Y-129167316D01*
X157843946Y-129156054D01*
X157757942Y-129076552D01*
X157653739Y-128980227D01*
X157613158Y-128940446D01*
X157613157Y-128940446D01*
X157588869Y-128920157D01*
X157586531Y-128918101D01*
X157540518Y-128875568D01*
X157477502Y-128817316D01*
X157296502Y-128674627D01*
X157268768Y-128652763D01*
X157225505Y-128616624D01*
X157201346Y-128599508D01*
X157198803Y-128597607D01*
X157173758Y-128577864D01*
X157085610Y-128508373D01*
X156975602Y-128434868D01*
X156858777Y-128356807D01*
X156813353Y-128324627D01*
X156813351Y-128324625D01*
X156800571Y-128317019D01*
X156789658Y-128310524D01*
X156786921Y-128308796D01*
X156670681Y-128231127D01*
X156426271Y-128094251D01*
X156379305Y-128066299D01*
X156379304Y-128066298D01*
X156356488Y-128055069D01*
X156353571Y-128053536D01*
X156294296Y-128020341D01*
X156235291Y-127987297D01*
X156108308Y-127928757D01*
X155973933Y-127866809D01*
X155926109Y-127843274D01*
X155926110Y-127843275D01*
X155926104Y-127843272D01*
X155904465Y-127834684D01*
X155901399Y-127833370D01*
X155793930Y-127783827D01*
X155782106Y-127778376D01*
X155702794Y-127749116D01*
X155504581Y-127675991D01*
X155493289Y-127671510D01*
X155456615Y-127656956D01*
X155456606Y-127656953D01*
X155456603Y-127656952D01*
X155456597Y-127656950D01*
X155454459Y-127656292D01*
X155454457Y-127656290D01*
X155436451Y-127650755D01*
X155433212Y-127649661D01*
X155313939Y-127605659D01*
X155313934Y-127605657D01*
X155313927Y-127605655D01*
X155112403Y-127548819D01*
X155021128Y-127523077D01*
X154999504Y-127516429D01*
X154973808Y-127508530D01*
X154970218Y-127507732D01*
X154955398Y-127504437D01*
X154952025Y-127503587D01*
X154833648Y-127470202D01*
X154833641Y-127470200D01*
X154833639Y-127470200D01*
X154526586Y-127409123D01*
X154512386Y-127405967D01*
X154480732Y-127398931D01*
X154480735Y-127398931D01*
X154481758Y-127399116D01*
X154481643Y-127399058D01*
X154480735Y-127398931D01*
X154480732Y-127398931D01*
X154480723Y-127398929D01*
X154464264Y-127396624D01*
X154460772Y-127396032D01*
X154371318Y-127378239D01*
X154344204Y-127372846D01*
X154270027Y-127364066D01*
X154023953Y-127334941D01*
X153980763Y-127328891D01*
X153980705Y-127328864D01*
X153966186Y-127327998D01*
X153962595Y-127327678D01*
X153848639Y-127314192D01*
X153848640Y-127314192D01*
X153516365Y-127301136D01*
X153480595Y-127298999D01*
X153479696Y-127298675D01*
X153464281Y-127298982D01*
X153460614Y-127298946D01*
X153350000Y-127294600D01*
X153007043Y-127308075D01*
X152979624Y-127308620D01*
X152977833Y-127308132D01*
X152961658Y-127309746D01*
X152957937Y-127310004D01*
X152851360Y-127314192D01*
X152851361Y-127314192D01*
X152499045Y-127355891D01*
X152480945Y-127357696D01*
X152478245Y-127357187D01*
X152461480Y-127360220D01*
X152457730Y-127360781D01*
X152410010Y-127366429D01*
X152355796Y-127372846D01*
X152131012Y-127417557D01*
X151995542Y-127444504D01*
X151987680Y-127445926D01*
X151984061Y-127445538D01*
X151966864Y-127450086D01*
X151963111Y-127450954D01*
X151895841Y-127464336D01*
X151866361Y-127470200D01*
X151730453Y-127508530D01*
X151504831Y-127572161D01*
X151499902Y-127572108D01*
X151480985Y-127578757D01*
X151477254Y-127579938D01*
X151386077Y-127605654D01*
X151386076Y-127605654D01*
X151031243Y-127736558D01*
X151025999Y-127736914D01*
X151006708Y-127745473D01*
X151003024Y-127746968D01*
X150917899Y-127778374D01*
X150917898Y-127778374D01*
X150880667Y-127795538D01*
X150464709Y-127987297D01*
X150464705Y-127987299D01*
X150029319Y-128231127D01*
X150029313Y-128231130D01*
X150029313Y-128231131D01*
X149614390Y-128508373D01*
X149222498Y-128817316D01*
X148856054Y-129156054D01*
X148517316Y-129522498D01*
X148208373Y-129914390D01*
X147974514Y-130264386D01*
X147931127Y-130329319D01*
X147733395Y-130682395D01*
X147687297Y-130764709D01*
X147478376Y-131217894D01*
X147478374Y-131217899D01*
X147348421Y-131570152D01*
X147305655Y-131686073D01*
X147170200Y-132166361D01*
X147072846Y-132655796D01*
X147056017Y-132797984D01*
X147031312Y-133006719D01*
X147014192Y-133151361D01*
X146994600Y-133650000D01*
X134691648Y-133650000D01*
X134685808Y-133501361D01*
X134661521Y-133296166D01*
X134657359Y-133243936D01*
X134649660Y-133195950D01*
X134627154Y-133005796D01*
X134585818Y-132797984D01*
X134577350Y-132745199D01*
X134577350Y-132745200D01*
X134566206Y-132699388D01*
X134529800Y-132516361D01*
X134470821Y-132307236D01*
X134457971Y-132254407D01*
X134457969Y-132254401D01*
X134457970Y-132254402D01*
X134452079Y-132236518D01*
X134443700Y-132211075D01*
X134403407Y-132068205D01*
X134394345Y-132036072D01*
X134394345Y-132036073D01*
X134317245Y-131827086D01*
X134299976Y-131774646D01*
X134299973Y-131774639D01*
X134299974Y-131774640D01*
X134282913Y-131734025D01*
X134265895Y-131687897D01*
X134221624Y-131567894D01*
X134126007Y-131360485D01*
X134104364Y-131308960D01*
X134104362Y-131308954D01*
X134085507Y-131272490D01*
X134084320Y-131270060D01*
X134012703Y-131114709D01*
X133898283Y-130910399D01*
X133883268Y-130881359D01*
X133872365Y-130860271D01*
X133872365Y-130860272D01*
X133851632Y-130826961D01*
X133850174Y-130824493D01*
X133768873Y-130679319D01*
X133689427Y-130560419D01*
X133635481Y-130479684D01*
X133605459Y-130431448D01*
X133605458Y-130431447D01*
X133583209Y-130401330D01*
X133581552Y-130398973D01*
X133491627Y-130264390D01*
X133491622Y-130264384D01*
X133491619Y-130264379D01*
X133339200Y-130071038D01*
X133305323Y-130025182D01*
X133281996Y-129998359D01*
X133280089Y-129996056D01*
X133182686Y-129872500D01*
X133182686Y-129872501D01*
X133182684Y-129872498D01*
X133011276Y-129687070D01*
X132995664Y-129669119D01*
X132973860Y-129644046D01*
X132949856Y-129620516D01*
X132947729Y-129618326D01*
X132843946Y-129506054D01*
X132757942Y-129426552D01*
X132653739Y-129330227D01*
X132613158Y-129290446D01*
X132613157Y-129290446D01*
X132588869Y-129270157D01*
X132586531Y-129268101D01*
X132540518Y-129225568D01*
X132477502Y-129167316D01*
X132268768Y-129002763D01*
X132225505Y-128966624D01*
X132201346Y-128949508D01*
X132198803Y-128947607D01*
X132173758Y-128927864D01*
X132085610Y-128858373D01*
X131975602Y-128784868D01*
X131858777Y-128706807D01*
X131813353Y-128674627D01*
X131813351Y-128674625D01*
X131800571Y-128667019D01*
X131789658Y-128660524D01*
X131786921Y-128658796D01*
X131670681Y-128581127D01*
X131426271Y-128444251D01*
X131379305Y-128416299D01*
X131379304Y-128416298D01*
X131356488Y-128405069D01*
X131353571Y-128403536D01*
X131294296Y-128370341D01*
X131235291Y-128337297D01*
X131207808Y-128324627D01*
X130973933Y-128216809D01*
X130926109Y-128193274D01*
X130926110Y-128193275D01*
X130926104Y-128193272D01*
X130904465Y-128184684D01*
X130901399Y-128183370D01*
X130793930Y-128133827D01*
X130782106Y-128128376D01*
X130782101Y-128128374D01*
X130504581Y-128025991D01*
X130493289Y-128021510D01*
X130456615Y-128006956D01*
X130456606Y-128006953D01*
X130456603Y-128006952D01*
X130456597Y-128006950D01*
X130454459Y-128006292D01*
X130454457Y-128006290D01*
X130436451Y-128000755D01*
X130433212Y-127999661D01*
X130313939Y-127955659D01*
X130313934Y-127955657D01*
X130313927Y-127955655D01*
X130112403Y-127898819D01*
X130021128Y-127873077D01*
X129999504Y-127866429D01*
X129973808Y-127858530D01*
X129970218Y-127857732D01*
X129955398Y-127854437D01*
X129952025Y-127853587D01*
X129833648Y-127820202D01*
X129833641Y-127820200D01*
X129833639Y-127820200D01*
X129526586Y-127759123D01*
X129512386Y-127755967D01*
X129480732Y-127748931D01*
X129480735Y-127748931D01*
X129481758Y-127749116D01*
X129481643Y-127749058D01*
X129480735Y-127748931D01*
X129480732Y-127748931D01*
X129480723Y-127748929D01*
X129464264Y-127746624D01*
X129460772Y-127746032D01*
X129371318Y-127728239D01*
X129344204Y-127722846D01*
X129270027Y-127714066D01*
X129023953Y-127684941D01*
X128980763Y-127678891D01*
X128980705Y-127678864D01*
X128966186Y-127677998D01*
X128962595Y-127677678D01*
X128848639Y-127664192D01*
X128848640Y-127664192D01*
X128516365Y-127651136D01*
X128480595Y-127648999D01*
X128479696Y-127648675D01*
X128464281Y-127648982D01*
X128460614Y-127648946D01*
X128350000Y-127644600D01*
X128007043Y-127658075D01*
X127979624Y-127658620D01*
X127977833Y-127658132D01*
X127961658Y-127659746D01*
X127957937Y-127660004D01*
X127851360Y-127664192D01*
X127851361Y-127664192D01*
X127499045Y-127705891D01*
X127480945Y-127707696D01*
X127478245Y-127707187D01*
X127461480Y-127710220D01*
X127457730Y-127710781D01*
X127410010Y-127716429D01*
X127355796Y-127722846D01*
X127131012Y-127767557D01*
X126995542Y-127794504D01*
X126987680Y-127795926D01*
X126984061Y-127795538D01*
X126966864Y-127800086D01*
X126963111Y-127800954D01*
X126895841Y-127814336D01*
X126866361Y-127820200D01*
X126730453Y-127858530D01*
X126504831Y-127922161D01*
X126499902Y-127922108D01*
X126480985Y-127928757D01*
X126477254Y-127929938D01*
X126386077Y-127955654D01*
X126386076Y-127955654D01*
X126031243Y-128086558D01*
X126025999Y-128086914D01*
X126006708Y-128095473D01*
X126003024Y-128096968D01*
X125917899Y-128128374D01*
X125917898Y-128128374D01*
X125917892Y-128128376D01*
X125917894Y-128128376D01*
X125464709Y-128337297D01*
X125464705Y-128337299D01*
X125029319Y-128581127D01*
X125029313Y-128581130D01*
X125029313Y-128581131D01*
X124614390Y-128858373D01*
X124222498Y-129167316D01*
X123856054Y-129506054D01*
X123517316Y-129872498D01*
X123208373Y-130264390D01*
X123010573Y-130560419D01*
X122931127Y-130679319D01*
X122745660Y-131010494D01*
X122687297Y-131114709D01*
X122520237Y-131477091D01*
X122478374Y-131567899D01*
X122334738Y-131957241D01*
X122305655Y-132036073D01*
X122170200Y-132516361D01*
X122072846Y-133005796D01*
X122050342Y-133195930D01*
X122014192Y-133501360D01*
X121994600Y-134000000D01*
X109691648Y-134000000D01*
X109693520Y-133952358D01*
X109697490Y-133902554D01*
X109698170Y-133833999D01*
X109705400Y-133650000D01*
X109698170Y-133466001D01*
X109697490Y-133397446D01*
X109693520Y-133347641D01*
X109685808Y-133151361D01*
X109661521Y-132946166D01*
X109657359Y-132893936D01*
X109649660Y-132845950D01*
X109627154Y-132655796D01*
X109585818Y-132447984D01*
X109577350Y-132395199D01*
X109577350Y-132395200D01*
X109566206Y-132349388D01*
X109529800Y-132166361D01*
X109470821Y-131957236D01*
X109457971Y-131904407D01*
X109457969Y-131904401D01*
X109457970Y-131904402D01*
X109452079Y-131886518D01*
X109443700Y-131861075D01*
X109403407Y-131718205D01*
X109394345Y-131686072D01*
X109394345Y-131686073D01*
X109317245Y-131477086D01*
X109299976Y-131424646D01*
X109299973Y-131424639D01*
X109299974Y-131424640D01*
X109282913Y-131384025D01*
X109221624Y-131217894D01*
X109221623Y-131217893D01*
X109126007Y-131010485D01*
X109104364Y-130958960D01*
X109104362Y-130958954D01*
X109085507Y-130922490D01*
X109084320Y-130920060D01*
X109012703Y-130764709D01*
X108898283Y-130560399D01*
X108883268Y-130531359D01*
X108872365Y-130510271D01*
X108872365Y-130510272D01*
X108851632Y-130476961D01*
X108850174Y-130474493D01*
X108768873Y-130329319D01*
X108635484Y-130129688D01*
X108605459Y-130081448D01*
X108605458Y-130081447D01*
X108597761Y-130071028D01*
X108583209Y-130051330D01*
X108581552Y-130048973D01*
X108491627Y-129914390D01*
X108491622Y-129914384D01*
X108491619Y-129914379D01*
X108339200Y-129721038D01*
X108305323Y-129675182D01*
X108281996Y-129648359D01*
X108280089Y-129646056D01*
X108278504Y-129644046D01*
X108185705Y-129526330D01*
X108182686Y-129522500D01*
X108182686Y-129522501D01*
X108182684Y-129522498D01*
X108011276Y-129337070D01*
X107995664Y-129319119D01*
X107973860Y-129294046D01*
X107949856Y-129270516D01*
X107947729Y-129268326D01*
X107854356Y-129167316D01*
X107843946Y-129156054D01*
X107757942Y-129076552D01*
X107653739Y-128980227D01*
X107613158Y-128940446D01*
X107613157Y-128940446D01*
X107588869Y-128920157D01*
X107586531Y-128918101D01*
X107540518Y-128875568D01*
X107477502Y-128817316D01*
X107296502Y-128674627D01*
X107268768Y-128652763D01*
X107225505Y-128616624D01*
X107201346Y-128599508D01*
X107198803Y-128597607D01*
X107173758Y-128577864D01*
X107085610Y-128508373D01*
X106975602Y-128434868D01*
X106858777Y-128356807D01*
X106813353Y-128324627D01*
X106813351Y-128324625D01*
X106800571Y-128317019D01*
X106789658Y-128310524D01*
X106786921Y-128308796D01*
X106670681Y-128231127D01*
X106426271Y-128094251D01*
X106379305Y-128066299D01*
X106379304Y-128066298D01*
X106356488Y-128055069D01*
X106353571Y-128053536D01*
X106294296Y-128020341D01*
X106235291Y-127987297D01*
X106108308Y-127928757D01*
X105973933Y-127866809D01*
X105926109Y-127843274D01*
X105926110Y-127843275D01*
X105926104Y-127843272D01*
X105904465Y-127834684D01*
X105901399Y-127833370D01*
X105793930Y-127783827D01*
X105782106Y-127778376D01*
X105702794Y-127749116D01*
X105504581Y-127675991D01*
X105493289Y-127671510D01*
X105456615Y-127656956D01*
X105456606Y-127656953D01*
X105456603Y-127656952D01*
X105456597Y-127656950D01*
X105454459Y-127656292D01*
X105454457Y-127656290D01*
X105436451Y-127650755D01*
X105433212Y-127649661D01*
X105313939Y-127605659D01*
X105313934Y-127605657D01*
X105313927Y-127605655D01*
X105112403Y-127548819D01*
X105021128Y-127523077D01*
X104999504Y-127516429D01*
X104973808Y-127508530D01*
X104970218Y-127507732D01*
X104955398Y-127504437D01*
X104952025Y-127503587D01*
X104833648Y-127470202D01*
X104833641Y-127470200D01*
X104833639Y-127470200D01*
X104526586Y-127409123D01*
X104512386Y-127405967D01*
X104480732Y-127398931D01*
X104480735Y-127398931D01*
X104481758Y-127399116D01*
X104481643Y-127399058D01*
X104480735Y-127398931D01*
X104480732Y-127398931D01*
X104480723Y-127398929D01*
X104464264Y-127396624D01*
X104460772Y-127396032D01*
X104371318Y-127378239D01*
X104344204Y-127372846D01*
X104270027Y-127364066D01*
X104023953Y-127334941D01*
X103980763Y-127328891D01*
X103980705Y-127328864D01*
X103966186Y-127327998D01*
X103962595Y-127327678D01*
X103848639Y-127314192D01*
X103848640Y-127314192D01*
X103516365Y-127301136D01*
X103480595Y-127298999D01*
X103479696Y-127298675D01*
X103464281Y-127298982D01*
X103460614Y-127298946D01*
X103350000Y-127294600D01*
X103007043Y-127308075D01*
X102979624Y-127308620D01*
X102977833Y-127308132D01*
X102961658Y-127309746D01*
X102957937Y-127310004D01*
X102851360Y-127314192D01*
X102851361Y-127314192D01*
X102499045Y-127355891D01*
X102480945Y-127357696D01*
X102478245Y-127357187D01*
X102461480Y-127360220D01*
X102457730Y-127360781D01*
X102410010Y-127366429D01*
X102355796Y-127372846D01*
X102131012Y-127417557D01*
X101995542Y-127444504D01*
X101987680Y-127445926D01*
X101984061Y-127445538D01*
X101966864Y-127450086D01*
X101963111Y-127450954D01*
X101895841Y-127464336D01*
X101866361Y-127470200D01*
X101730453Y-127508530D01*
X101504831Y-127572161D01*
X101499902Y-127572108D01*
X101480985Y-127578757D01*
X101477254Y-127579938D01*
X101386077Y-127605654D01*
X101386076Y-127605654D01*
X101031243Y-127736558D01*
X101025999Y-127736914D01*
X101006708Y-127745473D01*
X101003024Y-127746968D01*
X100917899Y-127778374D01*
X100917898Y-127778374D01*
X100880667Y-127795538D01*
X100464709Y-127987297D01*
X100464705Y-127987299D01*
X100029319Y-128231127D01*
X100029313Y-128231130D01*
X100029313Y-128231131D01*
X99614390Y-128508373D01*
X99222498Y-128817316D01*
X98856054Y-129156054D01*
X98517316Y-129522498D01*
X98208373Y-129914390D01*
X97974514Y-130264386D01*
X97931127Y-130329319D01*
X97733395Y-130682395D01*
X97687297Y-130764709D01*
X97478376Y-131217894D01*
X97478374Y-131217899D01*
X97348421Y-131570152D01*
X97305655Y-131686073D01*
X97170200Y-132166361D01*
X97072846Y-132655796D01*
X97056017Y-132797984D01*
X97031312Y-133006719D01*
X97014192Y-133151361D01*
X96994600Y-133650000D01*
X84705400Y-133650000D01*
X84698170Y-133466001D01*
X84697490Y-133397446D01*
X84693520Y-133347641D01*
X84685808Y-133151361D01*
X84661521Y-132946166D01*
X84657359Y-132893936D01*
X84649660Y-132845950D01*
X84627154Y-132655796D01*
X84585818Y-132447984D01*
X84577350Y-132395199D01*
X84577350Y-132395200D01*
X84566206Y-132349388D01*
X84529800Y-132166361D01*
X84470821Y-131957236D01*
X84457971Y-131904407D01*
X84457969Y-131904401D01*
X84457970Y-131904402D01*
X84452079Y-131886518D01*
X84443700Y-131861075D01*
X84403407Y-131718205D01*
X84394345Y-131686072D01*
X84394345Y-131686073D01*
X84317245Y-131477086D01*
X84299976Y-131424646D01*
X84299973Y-131424639D01*
X84299974Y-131424640D01*
X84282913Y-131384025D01*
X84221624Y-131217894D01*
X84221623Y-131217893D01*
X84126007Y-131010485D01*
X84104364Y-130958960D01*
X84104362Y-130958954D01*
X84085507Y-130922490D01*
X84084320Y-130920060D01*
X84012703Y-130764709D01*
X83898283Y-130560399D01*
X83883268Y-130531359D01*
X83872365Y-130510271D01*
X83872365Y-130510272D01*
X83851632Y-130476961D01*
X83850174Y-130474493D01*
X83768873Y-130329319D01*
X83635484Y-130129688D01*
X83605459Y-130081448D01*
X83605458Y-130081447D01*
X83597761Y-130071028D01*
X83583209Y-130051330D01*
X83581552Y-130048973D01*
X83491627Y-129914390D01*
X83491622Y-129914384D01*
X83491619Y-129914379D01*
X83339200Y-129721038D01*
X83305323Y-129675182D01*
X83281996Y-129648359D01*
X83280089Y-129646056D01*
X83278504Y-129644046D01*
X83185705Y-129526330D01*
X83182686Y-129522500D01*
X83182686Y-129522501D01*
X83182684Y-129522498D01*
X83011276Y-129337070D01*
X82995664Y-129319119D01*
X82973860Y-129294046D01*
X82949856Y-129270516D01*
X82947729Y-129268326D01*
X82854356Y-129167316D01*
X82843946Y-129156054D01*
X82757942Y-129076552D01*
X82653739Y-128980227D01*
X82613158Y-128940446D01*
X82613157Y-128940446D01*
X82588869Y-128920157D01*
X82586531Y-128918101D01*
X82540518Y-128875568D01*
X82477502Y-128817316D01*
X82296502Y-128674627D01*
X82268768Y-128652763D01*
X82225505Y-128616624D01*
X82201346Y-128599508D01*
X82198803Y-128597607D01*
X82173758Y-128577864D01*
X82085610Y-128508373D01*
X81975602Y-128434868D01*
X81858777Y-128356807D01*
X81813353Y-128324627D01*
X81813351Y-128324625D01*
X81800571Y-128317019D01*
X81789658Y-128310524D01*
X81786921Y-128308796D01*
X81670681Y-128231127D01*
X81426271Y-128094251D01*
X81379305Y-128066299D01*
X81379304Y-128066298D01*
X81356488Y-128055069D01*
X81353571Y-128053536D01*
X81294296Y-128020341D01*
X81235291Y-127987297D01*
X81108308Y-127928757D01*
X80973933Y-127866809D01*
X80926109Y-127843274D01*
X80926110Y-127843275D01*
X80926104Y-127843272D01*
X80904465Y-127834684D01*
X80901399Y-127833370D01*
X80793930Y-127783827D01*
X80782106Y-127778376D01*
X80702794Y-127749116D01*
X80504581Y-127675991D01*
X80493289Y-127671510D01*
X80456615Y-127656956D01*
X80456606Y-127656953D01*
X80456603Y-127656952D01*
X80456597Y-127656950D01*
X80454459Y-127656292D01*
X80454457Y-127656290D01*
X80436451Y-127650755D01*
X80433212Y-127649661D01*
X80313939Y-127605659D01*
X80313934Y-127605657D01*
X80313927Y-127605655D01*
X80112403Y-127548819D01*
X80021128Y-127523077D01*
X79999504Y-127516429D01*
X79973808Y-127508530D01*
X79970218Y-127507732D01*
X79955398Y-127504437D01*
X79952025Y-127503587D01*
X79833648Y-127470202D01*
X79833641Y-127470200D01*
X79833639Y-127470200D01*
X79526586Y-127409123D01*
X79512386Y-127405967D01*
X79480732Y-127398931D01*
X79480735Y-127398931D01*
X79481758Y-127399116D01*
X79481643Y-127399058D01*
X79480735Y-127398931D01*
X79480732Y-127398931D01*
X79480723Y-127398929D01*
X79464264Y-127396624D01*
X79460772Y-127396032D01*
X79371318Y-127378239D01*
X79344204Y-127372846D01*
X79270027Y-127364066D01*
X79023953Y-127334941D01*
X78980763Y-127328891D01*
X78980705Y-127328864D01*
X78966186Y-127327998D01*
X78962595Y-127327678D01*
X78848639Y-127314192D01*
X78848640Y-127314192D01*
X78516365Y-127301136D01*
X78480595Y-127298999D01*
X78479696Y-127298675D01*
X78464281Y-127298982D01*
X78460614Y-127298946D01*
X78350000Y-127294600D01*
X78007043Y-127308075D01*
X77979624Y-127308620D01*
X77977833Y-127308132D01*
X77961658Y-127309746D01*
X77957937Y-127310004D01*
X77851360Y-127314192D01*
X77851361Y-127314192D01*
X77499045Y-127355891D01*
X77480945Y-127357696D01*
X77478245Y-127357187D01*
X77461480Y-127360220D01*
X77457730Y-127360781D01*
X77410010Y-127366429D01*
X77355796Y-127372846D01*
X77131012Y-127417557D01*
X76995542Y-127444504D01*
X76987680Y-127445926D01*
X76984061Y-127445538D01*
X76966864Y-127450086D01*
X76963111Y-127450954D01*
X76895841Y-127464336D01*
X76866361Y-127470200D01*
X76730453Y-127508530D01*
X76504831Y-127572161D01*
X76499902Y-127572108D01*
X76480985Y-127578757D01*
X76477254Y-127579938D01*
X76386077Y-127605654D01*
X76386076Y-127605654D01*
X76031243Y-127736558D01*
X76025999Y-127736914D01*
X76006708Y-127745473D01*
X76003024Y-127746968D01*
X75917899Y-127778374D01*
X75917898Y-127778374D01*
X75880667Y-127795538D01*
X75464709Y-127987297D01*
X75464705Y-127987299D01*
X75029319Y-128231127D01*
X75029313Y-128231130D01*
X75029313Y-128231131D01*
X74614390Y-128508373D01*
X74222498Y-128817316D01*
X73856054Y-129156054D01*
X73517316Y-129522498D01*
X73208373Y-129914390D01*
X72974514Y-130264386D01*
X72931127Y-130329319D01*
X72733395Y-130682395D01*
X72687297Y-130764709D01*
X72478376Y-131217894D01*
X72478374Y-131217899D01*
X72348421Y-131570152D01*
X72305655Y-131686073D01*
X72170200Y-132166361D01*
X72072846Y-132655796D01*
X72056017Y-132797984D01*
X72031312Y-133006719D01*
X72014192Y-133151361D01*
X71994600Y-133650000D01*
X50000500Y-133650000D01*
X50000500Y-85037870D01*
X59019500Y-85037870D01*
X59019501Y-85037876D01*
X59025908Y-85097483D01*
X59076202Y-85232328D01*
X59076206Y-85232335D01*
X59162452Y-85347544D01*
X59162455Y-85347547D01*
X59277664Y-85433793D01*
X59277671Y-85433797D01*
X59412517Y-85484091D01*
X59412516Y-85484091D01*
X59419444Y-85484835D01*
X59472127Y-85490500D01*
X61700993Y-85490499D01*
X61768032Y-85510184D01*
X61788674Y-85526818D01*
X66873992Y-90612136D01*
X66877396Y-90615829D01*
X66914362Y-90659350D01*
X66914363Y-90659351D01*
X66914365Y-90659352D01*
X66914369Y-90659357D01*
X66980736Y-90709808D01*
X66980737Y-90709808D01*
X67045699Y-90762027D01*
X67045701Y-90762029D01*
X67045872Y-90762114D01*
X67065814Y-90774483D01*
X67065971Y-90774602D01*
X67141640Y-90809610D01*
X67216307Y-90846641D01*
X67216481Y-90846684D01*
X67238626Y-90854480D01*
X67238803Y-90854562D01*
X67238806Y-90854562D01*
X67238807Y-90854563D01*
X67238806Y-90854563D01*
X67320228Y-90872485D01*
X67336337Y-90876490D01*
X67401111Y-90892600D01*
X67401284Y-90892604D01*
X67424602Y-90895460D01*
X67424784Y-90895500D01*
X67424787Y-90895500D01*
X67508160Y-90895500D01*
X67591473Y-90897757D01*
X67591655Y-90897721D01*
X67615023Y-90895500D01*
X93385500Y-90895500D01*
X93452539Y-90915185D01*
X93498294Y-90967989D01*
X93509500Y-91019500D01*
X93509500Y-91071645D01*
X93511355Y-91094035D01*
X93524789Y-91256165D01*
X93585428Y-91495623D01*
X93667661Y-91683097D01*
X93684652Y-91721831D01*
X93724237Y-91782420D01*
X93806685Y-91908617D01*
X93819755Y-91928621D01*
X93987052Y-92110355D01*
X93987055Y-92110357D01*
X93987058Y-92110360D01*
X94181971Y-92262067D01*
X94181977Y-92262071D01*
X94181980Y-92262073D01*
X94399221Y-92379638D01*
X94496416Y-92413005D01*
X94632846Y-92459842D01*
X94632848Y-92459842D01*
X94632850Y-92459843D01*
X94876494Y-92500500D01*
X94876495Y-92500500D01*
X95123505Y-92500500D01*
X95123506Y-92500500D01*
X95367150Y-92459843D01*
X95600779Y-92379638D01*
X95818020Y-92262073D01*
X95836148Y-92247963D01*
X95901140Y-92222320D01*
X95969680Y-92235886D01*
X95999990Y-92258135D01*
X102308992Y-98567136D01*
X102312396Y-98570829D01*
X102349362Y-98614350D01*
X102349363Y-98614351D01*
X102349365Y-98614352D01*
X102349369Y-98614357D01*
X102415737Y-98664808D01*
X102480699Y-98717027D01*
X102480701Y-98717029D01*
X102480872Y-98717114D01*
X102500814Y-98729483D01*
X102500971Y-98729602D01*
X102576640Y-98764610D01*
X102651307Y-98801641D01*
X102651481Y-98801684D01*
X102673626Y-98809480D01*
X102673803Y-98809562D01*
X102673806Y-98809562D01*
X102673807Y-98809563D01*
X102673806Y-98809563D01*
X102755228Y-98827485D01*
X102763850Y-98829629D01*
X102836111Y-98847600D01*
X102836284Y-98847604D01*
X102859602Y-98850460D01*
X102859784Y-98850500D01*
X102859787Y-98850500D01*
X102943160Y-98850500D01*
X103026473Y-98852757D01*
X103026655Y-98852721D01*
X103050023Y-98850500D01*
X110744665Y-98850500D01*
X110749699Y-98850705D01*
X110806611Y-98855339D01*
X110806612Y-98855338D01*
X110806615Y-98855339D01*
X110889208Y-98844085D01*
X110972083Y-98835073D01*
X110972248Y-98835017D01*
X110995124Y-98829655D01*
X110995304Y-98829631D01*
X111073560Y-98800880D01*
X111152547Y-98774267D01*
X111152694Y-98774178D01*
X111173883Y-98764024D01*
X111174055Y-98763961D01*
X111244303Y-98719059D01*
X111315721Y-98676089D01*
X111315850Y-98675966D01*
X111334364Y-98661494D01*
X111334374Y-98661487D01*
X111334511Y-98661400D01*
X111363986Y-98631923D01*
X111393463Y-98602448D01*
X111430754Y-98567124D01*
X111453974Y-98545129D01*
X111454072Y-98544983D01*
X111469031Y-98526878D01*
X115592142Y-94403767D01*
X115595810Y-94400385D01*
X115639357Y-94363398D01*
X115689808Y-94297029D01*
X115742030Y-94232064D01*
X115742109Y-94231905D01*
X115754489Y-94211944D01*
X115754602Y-94211796D01*
X115760166Y-94199771D01*
X115789610Y-94136126D01*
X115806472Y-94102127D01*
X115826641Y-94061460D01*
X115826685Y-94061281D01*
X115834484Y-94039130D01*
X115834562Y-94038964D01*
X115840533Y-94011840D01*
X115852485Y-93957538D01*
X115855825Y-93944104D01*
X115872600Y-93876656D01*
X115872604Y-93876482D01*
X115875461Y-93853158D01*
X115875500Y-93852983D01*
X115875500Y-93769607D01*
X115877757Y-93686294D01*
X115877720Y-93686101D01*
X115875500Y-93662742D01*
X115875500Y-92413005D01*
X115895185Y-92345966D01*
X115947989Y-92300211D01*
X116017147Y-92290267D01*
X116080703Y-92319292D01*
X116087166Y-92325310D01*
X122408992Y-98647136D01*
X122412396Y-98650829D01*
X122449362Y-98694350D01*
X122449363Y-98694351D01*
X122449365Y-98694352D01*
X122449369Y-98694357D01*
X122515737Y-98744808D01*
X122580699Y-98797027D01*
X122580701Y-98797029D01*
X122580872Y-98797114D01*
X122600814Y-98809483D01*
X122600971Y-98809602D01*
X122676640Y-98844610D01*
X122751307Y-98881641D01*
X122751483Y-98881684D01*
X122773625Y-98889479D01*
X122773803Y-98889562D01*
X122814513Y-98898523D01*
X122855223Y-98907484D01*
X122870359Y-98911248D01*
X122936110Y-98927600D01*
X122936283Y-98927604D01*
X122959602Y-98930460D01*
X122959784Y-98930500D01*
X122959787Y-98930500D01*
X123043159Y-98930500D01*
X123126473Y-98932757D01*
X123126655Y-98932721D01*
X123150023Y-98930500D01*
X130906898Y-98930500D01*
X130911932Y-98930705D01*
X130968844Y-98935339D01*
X130968845Y-98935338D01*
X130968848Y-98935339D01*
X131051441Y-98924085D01*
X131134316Y-98915073D01*
X131134481Y-98915017D01*
X131157357Y-98909655D01*
X131157537Y-98909631D01*
X131235793Y-98880880D01*
X131314780Y-98854267D01*
X131314927Y-98854178D01*
X131336116Y-98844024D01*
X131336288Y-98843961D01*
X131406536Y-98799059D01*
X131477954Y-98756089D01*
X131478083Y-98755966D01*
X131496597Y-98741494D01*
X131496607Y-98741487D01*
X131496744Y-98741400D01*
X131526219Y-98711923D01*
X131555696Y-98682448D01*
X131592987Y-98647124D01*
X131616207Y-98625129D01*
X131616305Y-98624983D01*
X131631264Y-98606878D01*
X135592142Y-94646000D01*
X135595810Y-94642618D01*
X135639357Y-94605631D01*
X135689808Y-94539262D01*
X135742030Y-94474297D01*
X135742109Y-94474138D01*
X135754489Y-94454177D01*
X135754602Y-94454029D01*
X135778478Y-94402422D01*
X135789610Y-94378359D01*
X135797030Y-94363398D01*
X135826641Y-94303693D01*
X135826685Y-94303514D01*
X135834484Y-94281363D01*
X135834562Y-94281197D01*
X135849808Y-94211935D01*
X135852485Y-94199771D01*
X135861394Y-94163946D01*
X135872600Y-94118889D01*
X135872604Y-94118715D01*
X135875461Y-94095391D01*
X135875500Y-94095216D01*
X135875500Y-94011840D01*
X135877757Y-93928527D01*
X135877720Y-93928334D01*
X135875500Y-93904975D01*
X135875500Y-92413006D01*
X135895185Y-92345967D01*
X135947989Y-92300212D01*
X136017147Y-92290268D01*
X136080703Y-92319293D01*
X136087180Y-92325324D01*
X142328992Y-98567136D01*
X142332396Y-98570829D01*
X142369362Y-98614350D01*
X142369363Y-98614351D01*
X142369365Y-98614352D01*
X142369369Y-98614357D01*
X142435737Y-98664808D01*
X142500699Y-98717027D01*
X142500701Y-98717029D01*
X142500872Y-98717114D01*
X142520814Y-98729483D01*
X142520971Y-98729602D01*
X142596640Y-98764610D01*
X142671307Y-98801641D01*
X142671483Y-98801684D01*
X142693625Y-98809479D01*
X142693803Y-98809562D01*
X142734513Y-98818523D01*
X142775223Y-98827484D01*
X142790359Y-98831248D01*
X142856110Y-98847600D01*
X142856283Y-98847604D01*
X142879602Y-98850460D01*
X142879784Y-98850500D01*
X142879787Y-98850500D01*
X142963159Y-98850500D01*
X143046473Y-98852757D01*
X143046655Y-98852721D01*
X143070023Y-98850500D01*
X150744665Y-98850500D01*
X150749699Y-98850705D01*
X150806611Y-98855339D01*
X150806612Y-98855338D01*
X150806615Y-98855339D01*
X150889208Y-98844085D01*
X150972083Y-98835073D01*
X150972248Y-98835017D01*
X150995124Y-98829655D01*
X150995304Y-98829631D01*
X151073560Y-98800880D01*
X151152547Y-98774267D01*
X151152694Y-98774178D01*
X151173883Y-98764024D01*
X151174055Y-98763961D01*
X151244303Y-98719059D01*
X151315721Y-98676089D01*
X151315850Y-98675966D01*
X151334364Y-98661494D01*
X151334374Y-98661487D01*
X151334511Y-98661400D01*
X151363986Y-98631923D01*
X151393463Y-98602448D01*
X151430754Y-98567124D01*
X151453974Y-98545129D01*
X151454072Y-98544983D01*
X151469031Y-98526878D01*
X155592142Y-94403767D01*
X155595810Y-94400385D01*
X155639357Y-94363398D01*
X155689808Y-94297029D01*
X155742030Y-94232064D01*
X155742109Y-94231905D01*
X155754489Y-94211944D01*
X155754602Y-94211796D01*
X155760166Y-94199771D01*
X155789610Y-94136126D01*
X155806472Y-94102127D01*
X155826641Y-94061460D01*
X155826685Y-94061281D01*
X155834484Y-94039130D01*
X155834562Y-94038964D01*
X155840533Y-94011840D01*
X155852485Y-93957538D01*
X155855825Y-93944104D01*
X155872600Y-93876656D01*
X155872604Y-93876482D01*
X155875461Y-93853158D01*
X155875500Y-93852983D01*
X155875500Y-93769607D01*
X155877757Y-93686294D01*
X155877720Y-93686101D01*
X155875500Y-93662742D01*
X155875500Y-92257954D01*
X155895185Y-92190915D01*
X155923336Y-92160101D01*
X156012948Y-92090355D01*
X156070469Y-92027870D01*
X158509500Y-92027870D01*
X158509501Y-92027876D01*
X158515908Y-92087483D01*
X158566202Y-92222328D01*
X158566206Y-92222335D01*
X158652452Y-92337544D01*
X158652455Y-92337547D01*
X158767664Y-92423793D01*
X158767671Y-92423797D01*
X158767674Y-92423798D01*
X158902517Y-92474091D01*
X158962127Y-92480500D01*
X159000499Y-92480499D01*
X159067537Y-92500182D01*
X159113293Y-92552985D01*
X159124500Y-92604499D01*
X159124500Y-92961897D01*
X159124295Y-92966931D01*
X159119660Y-93023843D01*
X159130914Y-93106441D01*
X159139927Y-93189316D01*
X159139929Y-93189327D01*
X159139990Y-93189506D01*
X159145340Y-93212331D01*
X159145366Y-93212525D01*
X159145368Y-93212535D01*
X159145369Y-93212537D01*
X159159555Y-93251150D01*
X159174119Y-93290794D01*
X159200730Y-93369774D01*
X159200734Y-93369782D01*
X159200832Y-93369945D01*
X159210969Y-93391099D01*
X159211036Y-93391283D01*
X159211038Y-93391286D01*
X159211039Y-93391288D01*
X159230592Y-93421878D01*
X159236704Y-93431442D01*
X159255940Y-93461536D01*
X159298911Y-93532954D01*
X159299042Y-93533092D01*
X159313495Y-93551579D01*
X159313602Y-93551747D01*
X159372552Y-93610696D01*
X159421852Y-93662742D01*
X159429871Y-93671207D01*
X159430028Y-93671314D01*
X159448121Y-93686265D01*
X163078992Y-97317136D01*
X163082396Y-97320829D01*
X163119365Y-97364354D01*
X163119367Y-97364356D01*
X163185744Y-97414814D01*
X163250704Y-97467030D01*
X163250870Y-97467112D01*
X163270817Y-97479485D01*
X163270971Y-97479602D01*
X163346647Y-97514613D01*
X163421307Y-97551641D01*
X163421483Y-97551684D01*
X163443625Y-97559479D01*
X163443803Y-97559562D01*
X163443805Y-97559562D01*
X163443805Y-97559563D01*
X163525208Y-97577481D01*
X163536731Y-97580346D01*
X163606111Y-97597601D01*
X163606301Y-97597606D01*
X163629605Y-97600460D01*
X163629784Y-97600500D01*
X163629785Y-97600500D01*
X163713143Y-97600500D01*
X163796473Y-97602757D01*
X163796655Y-97602721D01*
X163820023Y-97600500D01*
X170183621Y-97600500D01*
X170203682Y-97602133D01*
X170217322Y-97604370D01*
X170287027Y-97600590D01*
X170290382Y-97600500D01*
X170312459Y-97600500D01*
X170312465Y-97600500D01*
X170334430Y-97598110D01*
X170337739Y-97597841D01*
X170407475Y-97594061D01*
X170420796Y-97590361D01*
X170440569Y-97586567D01*
X170454316Y-97585073D01*
X170520528Y-97562762D01*
X170523667Y-97561799D01*
X170590967Y-97543114D01*
X170603184Y-97536635D01*
X170621675Y-97528681D01*
X170634780Y-97524267D01*
X170694640Y-97488249D01*
X170697515Y-97486624D01*
X170759216Y-97453914D01*
X170766596Y-97447644D01*
X170769755Y-97444962D01*
X170786103Y-97433218D01*
X170797954Y-97426089D01*
X170848681Y-97378036D01*
X170851112Y-97375856D01*
X170904357Y-97330631D01*
X170912731Y-97319614D01*
X170926164Y-97304641D01*
X170936207Y-97295129D01*
X170975391Y-97237335D01*
X170977338Y-97234626D01*
X171019598Y-97179034D01*
X171019601Y-97179030D01*
X171019600Y-97179030D01*
X171019602Y-97179029D01*
X171025408Y-97166476D01*
X171035315Y-97148953D01*
X171043075Y-97137510D01*
X171068915Y-97072652D01*
X171070243Y-97069567D01*
X171099562Y-97006197D01*
X171102535Y-96992690D01*
X171108443Y-96973446D01*
X171113562Y-96960602D01*
X171124860Y-96891679D01*
X171125481Y-96888443D01*
X171140500Y-96820216D01*
X171140500Y-96806378D01*
X171142134Y-96786315D01*
X171144370Y-96772677D01*
X171140591Y-96702974D01*
X171140500Y-96699617D01*
X171140500Y-93021017D01*
X171140705Y-93015982D01*
X171145339Y-92959072D01*
X171145339Y-92959069D01*
X171141066Y-92927715D01*
X171140499Y-92919347D01*
X171140499Y-92443793D01*
X171140500Y-91952535D01*
X171140499Y-91952534D01*
X171140499Y-91683072D01*
X171140703Y-91678079D01*
X171145339Y-91621152D01*
X171141067Y-91589803D01*
X171140500Y-91581425D01*
X171140500Y-89143098D01*
X171140705Y-89138063D01*
X171145339Y-89081154D01*
X171145339Y-89081152D01*
X171141067Y-89049803D01*
X171140500Y-89041425D01*
X171140500Y-86581378D01*
X171142134Y-86561315D01*
X171144370Y-86547677D01*
X171140591Y-86477974D01*
X171140500Y-86474617D01*
X171140500Y-84063098D01*
X171140705Y-84058063D01*
X171145339Y-84001154D01*
X171145339Y-84001152D01*
X171141067Y-83969803D01*
X171140500Y-83961425D01*
X171140500Y-81523098D01*
X171140705Y-81518063D01*
X171142205Y-81499630D01*
X171145339Y-81461152D01*
X171134085Y-81378558D01*
X171125073Y-81295684D01*
X171125014Y-81295509D01*
X171119656Y-81272649D01*
X171119631Y-81272463D01*
X171090885Y-81194220D01*
X171064267Y-81115220D01*
X171064164Y-81115049D01*
X171054026Y-81093890D01*
X171053961Y-81093715D01*
X171053960Y-81093712D01*
X171009068Y-81023478D01*
X170966089Y-80952046D01*
X170965955Y-80951904D01*
X170951504Y-80933419D01*
X170951400Y-80933256D01*
X170892447Y-80874303D01*
X170835129Y-80813793D01*
X170834970Y-80813685D01*
X170816877Y-80798733D01*
X169927091Y-79908947D01*
X169893606Y-79847624D01*
X169891244Y-79810457D01*
X169895659Y-79760000D01*
X169895659Y-79759999D01*
X169882508Y-79609685D01*
X169875063Y-79524592D01*
X169813903Y-79296337D01*
X169714035Y-79082171D01*
X169708731Y-79074595D01*
X169578494Y-78888597D01*
X169411402Y-78721506D01*
X169411396Y-78721501D01*
X169225842Y-78591575D01*
X169182217Y-78536998D01*
X169175023Y-78467500D01*
X169206546Y-78405145D01*
X169225842Y-78388425D01*
X169297152Y-78338493D01*
X169411401Y-78258495D01*
X169578495Y-78091401D01*
X169714035Y-77897830D01*
X169813903Y-77683663D01*
X169875063Y-77455408D01*
X169895659Y-77220000D01*
X169875063Y-76984592D01*
X169813903Y-76756337D01*
X169714035Y-76542171D01*
X169708425Y-76534158D01*
X169578494Y-76348597D01*
X169411402Y-76181506D01*
X169411401Y-76181505D01*
X169225842Y-76051575D01*
X169225405Y-76051269D01*
X169181781Y-75996692D01*
X169174588Y-75927193D01*
X169206110Y-75864839D01*
X169225405Y-75848119D01*
X169411082Y-75718105D01*
X169578105Y-75551082D01*
X169713600Y-75357578D01*
X169813429Y-75143492D01*
X169813432Y-75143486D01*
X169870636Y-74930000D01*
X168973686Y-74930000D01*
X168999493Y-74889844D01*
X169040000Y-74751889D01*
X169040000Y-74608111D01*
X168999493Y-74470156D01*
X168973686Y-74430000D01*
X169870636Y-74430000D01*
X169870635Y-74429999D01*
X169813432Y-74216513D01*
X169813429Y-74216507D01*
X169713600Y-74002422D01*
X169713599Y-74002420D01*
X169578113Y-73808926D01*
X169578108Y-73808920D01*
X169411078Y-73641890D01*
X169225405Y-73511879D01*
X169181780Y-73457302D01*
X169174588Y-73387804D01*
X169206110Y-73325449D01*
X169225406Y-73308730D01*
X169297152Y-73258493D01*
X169411401Y-73178495D01*
X169578495Y-73011401D01*
X169714035Y-72817830D01*
X169813903Y-72603663D01*
X169875063Y-72375408D01*
X169895659Y-72140000D01*
X169875063Y-71904592D01*
X169813903Y-71676337D01*
X169714035Y-71462171D01*
X169708425Y-71454158D01*
X169578494Y-71268597D01*
X169411402Y-71101506D01*
X169411401Y-71101505D01*
X169225842Y-70971575D01*
X169225841Y-70971574D01*
X169182216Y-70916997D01*
X169175024Y-70847498D01*
X169206546Y-70785144D01*
X169225836Y-70768428D01*
X169411401Y-70638495D01*
X169578495Y-70471401D01*
X169714035Y-70277830D01*
X169813903Y-70063663D01*
X169875063Y-69835408D01*
X169895659Y-69600000D01*
X169875063Y-69364592D01*
X169813903Y-69136337D01*
X169714035Y-68922171D01*
X169712419Y-68919862D01*
X169578494Y-68728597D01*
X169411402Y-68561506D01*
X169411396Y-68561501D01*
X169225842Y-68431575D01*
X169182217Y-68376998D01*
X169175023Y-68307500D01*
X169206546Y-68245145D01*
X169225842Y-68228425D01*
X169297152Y-68178493D01*
X169411401Y-68098495D01*
X169578495Y-67931401D01*
X169714035Y-67737830D01*
X169813903Y-67523663D01*
X169875063Y-67295408D01*
X169895659Y-67060000D01*
X169875063Y-66824592D01*
X169813903Y-66596337D01*
X169714035Y-66382171D01*
X169708425Y-66374158D01*
X169578494Y-66188597D01*
X169411402Y-66021506D01*
X169411401Y-66021505D01*
X169225842Y-65891575D01*
X169225841Y-65891574D01*
X169182216Y-65836997D01*
X169175024Y-65767498D01*
X169206546Y-65705144D01*
X169225836Y-65688428D01*
X169411401Y-65558495D01*
X169578495Y-65391401D01*
X169714035Y-65197830D01*
X169813903Y-64983663D01*
X169875063Y-64755408D01*
X169895659Y-64520000D01*
X169875063Y-64284592D01*
X169813903Y-64056337D01*
X169714035Y-63842171D01*
X169708425Y-63834158D01*
X169578494Y-63648597D01*
X169411402Y-63481506D01*
X169411395Y-63481501D01*
X169217834Y-63345967D01*
X169217830Y-63345965D01*
X169175223Y-63326097D01*
X169003663Y-63246097D01*
X169003659Y-63246096D01*
X169003655Y-63246094D01*
X168775413Y-63184938D01*
X168775403Y-63184936D01*
X168540001Y-63164341D01*
X168539999Y-63164341D01*
X168304596Y-63184936D01*
X168304586Y-63184938D01*
X168076344Y-63246094D01*
X168076335Y-63246098D01*
X167862171Y-63345964D01*
X167862169Y-63345965D01*
X167668597Y-63481505D01*
X167501505Y-63648597D01*
X167371575Y-63834158D01*
X167316998Y-63877783D01*
X167247500Y-63884977D01*
X167185145Y-63853454D01*
X167168425Y-63834158D01*
X167038494Y-63648597D01*
X166871402Y-63481506D01*
X166871395Y-63481501D01*
X166677834Y-63345967D01*
X166677830Y-63345965D01*
X166635223Y-63326097D01*
X166463663Y-63246097D01*
X166463659Y-63246096D01*
X166463655Y-63246094D01*
X166235413Y-63184938D01*
X166235403Y-63184936D01*
X166000001Y-63164341D01*
X165999999Y-63164341D01*
X165764596Y-63184936D01*
X165764586Y-63184938D01*
X165536344Y-63246094D01*
X165536335Y-63246098D01*
X165322171Y-63345964D01*
X165322169Y-63345965D01*
X165128597Y-63481505D01*
X164961505Y-63648597D01*
X164825965Y-63842169D01*
X164825964Y-63842171D01*
X164726098Y-64056335D01*
X164726094Y-64056344D01*
X164664938Y-64284586D01*
X164664936Y-64284596D01*
X164644341Y-64519999D01*
X164644341Y-64520000D01*
X164664936Y-64755403D01*
X164664938Y-64755413D01*
X164726094Y-64983655D01*
X164726096Y-64983659D01*
X164726097Y-64983663D01*
X164806004Y-65155023D01*
X164825965Y-65197830D01*
X164825967Y-65197834D01*
X164907943Y-65314907D01*
X164961504Y-65391400D01*
X164961506Y-65391402D01*
X165128597Y-65558493D01*
X165128603Y-65558498D01*
X165314158Y-65688425D01*
X165357783Y-65743002D01*
X165364977Y-65812500D01*
X165333454Y-65874855D01*
X165314158Y-65891575D01*
X165128597Y-66021505D01*
X164961505Y-66188597D01*
X164825965Y-66382169D01*
X164825964Y-66382171D01*
X164726098Y-66596335D01*
X164726094Y-66596344D01*
X164664938Y-66824586D01*
X164664936Y-66824596D01*
X164644341Y-67059999D01*
X164644341Y-67060000D01*
X164664936Y-67295403D01*
X164664938Y-67295413D01*
X164726094Y-67523655D01*
X164726096Y-67523659D01*
X164726097Y-67523663D01*
X164806004Y-67695023D01*
X164825965Y-67737830D01*
X164825967Y-67737834D01*
X164934281Y-67892521D01*
X164961504Y-67931400D01*
X164961506Y-67931402D01*
X165128597Y-68098493D01*
X165128603Y-68098498D01*
X165314158Y-68228425D01*
X165357783Y-68283002D01*
X165364977Y-68352500D01*
X165333454Y-68414855D01*
X165314158Y-68431575D01*
X165128597Y-68561505D01*
X164961505Y-68728597D01*
X164825965Y-68922169D01*
X164825964Y-68922171D01*
X164726098Y-69136335D01*
X164726094Y-69136344D01*
X164664938Y-69364586D01*
X164664936Y-69364596D01*
X164644341Y-69599999D01*
X164644341Y-69600000D01*
X164664936Y-69835403D01*
X164664938Y-69835413D01*
X164726094Y-70063655D01*
X164726096Y-70063659D01*
X164726097Y-70063663D01*
X164806004Y-70235023D01*
X164825965Y-70277830D01*
X164825967Y-70277834D01*
X164934281Y-70432521D01*
X164961504Y-70471400D01*
X164961506Y-70471402D01*
X165128597Y-70638493D01*
X165128603Y-70638498D01*
X165314158Y-70768425D01*
X165357783Y-70823002D01*
X165364977Y-70892500D01*
X165333454Y-70954855D01*
X165314158Y-70971575D01*
X165128597Y-71101505D01*
X164961505Y-71268597D01*
X164825965Y-71462169D01*
X164825964Y-71462171D01*
X164726098Y-71676335D01*
X164726094Y-71676344D01*
X164664938Y-71904586D01*
X164664936Y-71904596D01*
X164644341Y-72139999D01*
X164644341Y-72140000D01*
X164664936Y-72375403D01*
X164664938Y-72375413D01*
X164726094Y-72603655D01*
X164726096Y-72603659D01*
X164726097Y-72603663D01*
X164806004Y-72775023D01*
X164825965Y-72817830D01*
X164825967Y-72817834D01*
X164934281Y-72972521D01*
X164961501Y-73011396D01*
X164961506Y-73011402D01*
X165128597Y-73178493D01*
X165128603Y-73178498D01*
X165314158Y-73308425D01*
X165357783Y-73363002D01*
X165364977Y-73432500D01*
X165333454Y-73494855D01*
X165314158Y-73511575D01*
X165128597Y-73641505D01*
X164961505Y-73808597D01*
X164825965Y-74002169D01*
X164825964Y-74002171D01*
X164726098Y-74216335D01*
X164726094Y-74216344D01*
X164664938Y-74444586D01*
X164664936Y-74444596D01*
X164644341Y-74679999D01*
X164644341Y-74680000D01*
X164664936Y-74915403D01*
X164664938Y-74915413D01*
X164726094Y-75143655D01*
X164726096Y-75143659D01*
X164726097Y-75143663D01*
X164809155Y-75321781D01*
X164825965Y-75357830D01*
X164825967Y-75357834D01*
X164887286Y-75445406D01*
X164961501Y-75551396D01*
X164961506Y-75551402D01*
X165128597Y-75718493D01*
X165128603Y-75718498D01*
X165314158Y-75848425D01*
X165357783Y-75903002D01*
X165364977Y-75972500D01*
X165333454Y-76034855D01*
X165314158Y-76051575D01*
X165128597Y-76181505D01*
X164961505Y-76348597D01*
X164825965Y-76542169D01*
X164825964Y-76542171D01*
X164726098Y-76756335D01*
X164726094Y-76756344D01*
X164664938Y-76984586D01*
X164664936Y-76984596D01*
X164644341Y-77219999D01*
X164644341Y-77220000D01*
X164664936Y-77455403D01*
X164664938Y-77455413D01*
X164726094Y-77683655D01*
X164726096Y-77683659D01*
X164726097Y-77683663D01*
X164789557Y-77819752D01*
X164825965Y-77897830D01*
X164825967Y-77897834D01*
X164888439Y-77987052D01*
X164961501Y-78091396D01*
X164961506Y-78091402D01*
X165128597Y-78258493D01*
X165128603Y-78258498D01*
X165314594Y-78388730D01*
X165358219Y-78443307D01*
X165365413Y-78512805D01*
X165333890Y-78575160D01*
X165314595Y-78591880D01*
X165128922Y-78721890D01*
X165128920Y-78721891D01*
X164961891Y-78888920D01*
X164961886Y-78888926D01*
X164826400Y-79082420D01*
X164826399Y-79082422D01*
X164726570Y-79296507D01*
X164726567Y-79296513D01*
X164669364Y-79509999D01*
X164669364Y-79510000D01*
X165566314Y-79510000D01*
X165540507Y-79550156D01*
X165500000Y-79688111D01*
X165500000Y-79831889D01*
X165540507Y-79969844D01*
X165566314Y-80010000D01*
X164669364Y-80010000D01*
X164726567Y-80223486D01*
X164726570Y-80223492D01*
X164826399Y-80437578D01*
X164961894Y-80631082D01*
X165128917Y-80798105D01*
X165315031Y-80928425D01*
X165358656Y-80983003D01*
X165365848Y-81052501D01*
X165334326Y-81114856D01*
X165315031Y-81131575D01*
X165128922Y-81261890D01*
X165128920Y-81261891D01*
X164961891Y-81428920D01*
X164961886Y-81428926D01*
X164826400Y-81622420D01*
X164826399Y-81622422D01*
X164726570Y-81836507D01*
X164726567Y-81836513D01*
X164669364Y-82049999D01*
X164669364Y-82050000D01*
X165566314Y-82050000D01*
X165540507Y-82090156D01*
X165500000Y-82228111D01*
X165500000Y-82371889D01*
X165540507Y-82509844D01*
X165566314Y-82550000D01*
X164669364Y-82550000D01*
X164726567Y-82763486D01*
X164726570Y-82763492D01*
X164826399Y-82977578D01*
X164961894Y-83171082D01*
X165128917Y-83338105D01*
X165315031Y-83468425D01*
X165358656Y-83523003D01*
X165365848Y-83592501D01*
X165334326Y-83654856D01*
X165315031Y-83671575D01*
X165128922Y-83801890D01*
X165128920Y-83801891D01*
X164961891Y-83968920D01*
X164961886Y-83968926D01*
X164826400Y-84162420D01*
X164826399Y-84162422D01*
X164726570Y-84376507D01*
X164726567Y-84376513D01*
X164669364Y-84589999D01*
X164669364Y-84590000D01*
X165566314Y-84590000D01*
X165540507Y-84630156D01*
X165500000Y-84768111D01*
X165500000Y-84911889D01*
X165540507Y-85049844D01*
X165566314Y-85090000D01*
X164669364Y-85090000D01*
X164726567Y-85303486D01*
X164726570Y-85303492D01*
X164826399Y-85517578D01*
X164961894Y-85711082D01*
X165128917Y-85878105D01*
X165315031Y-86008425D01*
X165358656Y-86063003D01*
X165365848Y-86132501D01*
X165334326Y-86194856D01*
X165315031Y-86211575D01*
X165128922Y-86341890D01*
X165128920Y-86341891D01*
X164961891Y-86508920D01*
X164961886Y-86508926D01*
X164826400Y-86702420D01*
X164826399Y-86702422D01*
X164726570Y-86916507D01*
X164726567Y-86916513D01*
X164669364Y-87129999D01*
X164669364Y-87130000D01*
X165566314Y-87130000D01*
X165540507Y-87170156D01*
X165500000Y-87308111D01*
X165500000Y-87451889D01*
X165540507Y-87589844D01*
X165566314Y-87630000D01*
X164669364Y-87630000D01*
X164726567Y-87843486D01*
X164726570Y-87843492D01*
X164826399Y-88057578D01*
X164961894Y-88251082D01*
X165128917Y-88418105D01*
X165315031Y-88548425D01*
X165358656Y-88603003D01*
X165365848Y-88672501D01*
X165334326Y-88734856D01*
X165315031Y-88751575D01*
X165128922Y-88881890D01*
X165128920Y-88881891D01*
X164961891Y-89048920D01*
X164961886Y-89048926D01*
X164826400Y-89242420D01*
X164826399Y-89242422D01*
X164726570Y-89456507D01*
X164726567Y-89456513D01*
X164669364Y-89669999D01*
X164669364Y-89670000D01*
X165566314Y-89670000D01*
X165540507Y-89710156D01*
X165500000Y-89848111D01*
X165500000Y-89991889D01*
X165540507Y-90129844D01*
X165566314Y-90170000D01*
X164669364Y-90170000D01*
X164726567Y-90383486D01*
X164726570Y-90383492D01*
X164826399Y-90597578D01*
X164961894Y-90791082D01*
X165128917Y-90958105D01*
X165315031Y-91088425D01*
X165358656Y-91143003D01*
X165365848Y-91212501D01*
X165334326Y-91274856D01*
X165315031Y-91291575D01*
X165128922Y-91421890D01*
X165128920Y-91421891D01*
X164961891Y-91588920D01*
X164961886Y-91588926D01*
X164826400Y-91782420D01*
X164826399Y-91782422D01*
X164726570Y-91996507D01*
X164726567Y-91996513D01*
X164669364Y-92209999D01*
X164669364Y-92210000D01*
X165566314Y-92210000D01*
X165540507Y-92250156D01*
X165500000Y-92388111D01*
X165500000Y-92531889D01*
X165540507Y-92669844D01*
X165566314Y-92710000D01*
X164669364Y-92710000D01*
X164726567Y-92923486D01*
X164726570Y-92923492D01*
X164826399Y-93137578D01*
X164961894Y-93331082D01*
X165128917Y-93498105D01*
X165315031Y-93628425D01*
X165358656Y-93683003D01*
X165365848Y-93752501D01*
X165334326Y-93814856D01*
X165315031Y-93831575D01*
X165128922Y-93961890D01*
X165128920Y-93961891D01*
X164961891Y-94128920D01*
X164961886Y-94128926D01*
X164826400Y-94322420D01*
X164826399Y-94322422D01*
X164726570Y-94536507D01*
X164726567Y-94536513D01*
X164669364Y-94749999D01*
X164669364Y-94750000D01*
X165566314Y-94750000D01*
X165540507Y-94790156D01*
X165500000Y-94928111D01*
X165500000Y-95071889D01*
X165540507Y-95209844D01*
X165566314Y-95250000D01*
X164669364Y-95250000D01*
X164726567Y-95463486D01*
X164726570Y-95463492D01*
X164824309Y-95673095D01*
X164834801Y-95742173D01*
X164806281Y-95805957D01*
X164747805Y-95844196D01*
X164711927Y-95849500D01*
X164139006Y-95849500D01*
X164071967Y-95829815D01*
X164051325Y-95813181D01*
X160930324Y-92692180D01*
X160896839Y-92630857D01*
X160901823Y-92561165D01*
X160943695Y-92505232D01*
X161009159Y-92480815D01*
X161018005Y-92480499D01*
X161037871Y-92480499D01*
X161037872Y-92480499D01*
X161097483Y-92474091D01*
X161232331Y-92423796D01*
X161347546Y-92337546D01*
X161433796Y-92222331D01*
X161484091Y-92087483D01*
X161490500Y-92027873D01*
X161490499Y-87972128D01*
X161484091Y-87912517D01*
X161458346Y-87843492D01*
X161433797Y-87777671D01*
X161433793Y-87777664D01*
X161347547Y-87662455D01*
X161347544Y-87662452D01*
X161232335Y-87576206D01*
X161232328Y-87576202D01*
X161097482Y-87525908D01*
X161097483Y-87525908D01*
X161037883Y-87519501D01*
X161037881Y-87519500D01*
X161037873Y-87519500D01*
X161037864Y-87519500D01*
X158962129Y-87519500D01*
X158962123Y-87519501D01*
X158902516Y-87525908D01*
X158767671Y-87576202D01*
X158767664Y-87576206D01*
X158652455Y-87662452D01*
X158652452Y-87662455D01*
X158566206Y-87777664D01*
X158566202Y-87777671D01*
X158515908Y-87912517D01*
X158509501Y-87972116D01*
X158509501Y-87972123D01*
X158509500Y-87972135D01*
X158509500Y-92027870D01*
X156070469Y-92027870D01*
X156180245Y-91908621D01*
X156315348Y-91701831D01*
X156414572Y-91475623D01*
X156475210Y-91236169D01*
X156490500Y-91051645D01*
X156490500Y-88948355D01*
X156475210Y-88763831D01*
X156414572Y-88524377D01*
X156315348Y-88298169D01*
X156180245Y-88091379D01*
X156012948Y-87909645D01*
X156012943Y-87909641D01*
X156012941Y-87909639D01*
X155818028Y-87757932D01*
X155818022Y-87757928D01*
X155600780Y-87640362D01*
X155600771Y-87640359D01*
X155367153Y-87560157D01*
X155161907Y-87525908D01*
X155123506Y-87519500D01*
X154876494Y-87519500D01*
X154838093Y-87525908D01*
X154632846Y-87560157D01*
X154399228Y-87640359D01*
X154399219Y-87640362D01*
X154181977Y-87757928D01*
X154181971Y-87757932D01*
X153987058Y-87909639D01*
X153987055Y-87909642D01*
X153987052Y-87909644D01*
X153987052Y-87909645D01*
X153968644Y-87929642D01*
X153819752Y-88091382D01*
X153684650Y-88298172D01*
X153585428Y-88524376D01*
X153524789Y-88763834D01*
X153509500Y-88948357D01*
X153509500Y-91051643D01*
X153524789Y-91236165D01*
X153585428Y-91475623D01*
X153676434Y-91683097D01*
X153684652Y-91701831D01*
X153723032Y-91760576D01*
X153789571Y-91862422D01*
X153819755Y-91908621D01*
X153987052Y-92090355D01*
X154076662Y-92160101D01*
X154117475Y-92216810D01*
X154124500Y-92257954D01*
X154124500Y-93343761D01*
X154104815Y-93410800D01*
X154088181Y-93431442D01*
X151352181Y-96167441D01*
X151290858Y-96200926D01*
X151221166Y-96195942D01*
X151165233Y-96154070D01*
X151140816Y-96088606D01*
X151140500Y-96079760D01*
X151140500Y-93021017D01*
X151140705Y-93015982D01*
X151145339Y-92959073D01*
X151145339Y-92959071D01*
X151141067Y-92927722D01*
X151140500Y-92919344D01*
X151140500Y-91927873D01*
X151140499Y-91927867D01*
X151140499Y-91818219D01*
X151140499Y-91683072D01*
X151140703Y-91678079D01*
X151145339Y-91621152D01*
X151141067Y-91589803D01*
X151140500Y-91581425D01*
X151140500Y-89143098D01*
X151140705Y-89138063D01*
X151145339Y-89081154D01*
X151145339Y-89081152D01*
X151141067Y-89049803D01*
X151140500Y-89041425D01*
X151140500Y-86581378D01*
X151142134Y-86561315D01*
X151144370Y-86547677D01*
X151140591Y-86477974D01*
X151140500Y-86474617D01*
X151140500Y-84081378D01*
X151142134Y-84061315D01*
X151142668Y-84058062D01*
X151144370Y-84047678D01*
X151140590Y-83977971D01*
X151140500Y-83974617D01*
X151140500Y-81523098D01*
X151140705Y-81518063D01*
X151142205Y-81499630D01*
X151145339Y-81461152D01*
X151134085Y-81378558D01*
X151125073Y-81295684D01*
X151125014Y-81295509D01*
X151119656Y-81272649D01*
X151119631Y-81272463D01*
X151090885Y-81194220D01*
X151064267Y-81115220D01*
X151064164Y-81115049D01*
X151054026Y-81093890D01*
X151053961Y-81093715D01*
X151053960Y-81093712D01*
X151009068Y-81023478D01*
X150966089Y-80952046D01*
X150965955Y-80951904D01*
X150951504Y-80933419D01*
X150951400Y-80933256D01*
X150892447Y-80874303D01*
X150835129Y-80813793D01*
X150834970Y-80813685D01*
X150816877Y-80798733D01*
X149927091Y-79908947D01*
X149893606Y-79847624D01*
X149891244Y-79810457D01*
X149895659Y-79760000D01*
X149895659Y-79759999D01*
X149882508Y-79609685D01*
X149875063Y-79524592D01*
X149813903Y-79296337D01*
X149714035Y-79082171D01*
X149708731Y-79074595D01*
X149578494Y-78888597D01*
X149411402Y-78721506D01*
X149411396Y-78721501D01*
X149225842Y-78591575D01*
X149182217Y-78536998D01*
X149175023Y-78467500D01*
X149206546Y-78405145D01*
X149225842Y-78388425D01*
X149297152Y-78338493D01*
X149411401Y-78258495D01*
X149578495Y-78091401D01*
X149714035Y-77897830D01*
X149813903Y-77683663D01*
X149875063Y-77455408D01*
X149895659Y-77220000D01*
X149875063Y-76984592D01*
X149813903Y-76756337D01*
X149714035Y-76542171D01*
X149708425Y-76534158D01*
X149578494Y-76348597D01*
X149411402Y-76181506D01*
X149411401Y-76181505D01*
X149225842Y-76051575D01*
X149225405Y-76051269D01*
X149181781Y-75996692D01*
X149174588Y-75927193D01*
X149206110Y-75864839D01*
X149225405Y-75848119D01*
X149411082Y-75718105D01*
X149578105Y-75551082D01*
X149713600Y-75357578D01*
X149813429Y-75143492D01*
X149813432Y-75143486D01*
X149870636Y-74930000D01*
X148973686Y-74930000D01*
X148999493Y-74889844D01*
X149040000Y-74751889D01*
X149040000Y-74608111D01*
X148999493Y-74470156D01*
X148973686Y-74430000D01*
X149870636Y-74430000D01*
X149870635Y-74429999D01*
X149813432Y-74216513D01*
X149813429Y-74216507D01*
X149713600Y-74002422D01*
X149713599Y-74002420D01*
X149578113Y-73808926D01*
X149578108Y-73808920D01*
X149411078Y-73641890D01*
X149225405Y-73511879D01*
X149181780Y-73457302D01*
X149174588Y-73387804D01*
X149206110Y-73325449D01*
X149225406Y-73308730D01*
X149297152Y-73258493D01*
X149411401Y-73178495D01*
X149578495Y-73011401D01*
X149714035Y-72817830D01*
X149813903Y-72603663D01*
X149875063Y-72375408D01*
X149895659Y-72140000D01*
X149875063Y-71904592D01*
X149813903Y-71676337D01*
X149714035Y-71462171D01*
X149708425Y-71454158D01*
X149578494Y-71268597D01*
X149411402Y-71101506D01*
X149411401Y-71101505D01*
X149225842Y-70971575D01*
X149225841Y-70971574D01*
X149182216Y-70916997D01*
X149175024Y-70847498D01*
X149206546Y-70785144D01*
X149225836Y-70768428D01*
X149411401Y-70638495D01*
X149578495Y-70471401D01*
X149714035Y-70277830D01*
X149813903Y-70063663D01*
X149875063Y-69835408D01*
X149895659Y-69600000D01*
X149875063Y-69364592D01*
X149813903Y-69136337D01*
X149714035Y-68922171D01*
X149712419Y-68919862D01*
X149578494Y-68728597D01*
X149411402Y-68561506D01*
X149411396Y-68561501D01*
X149225842Y-68431575D01*
X149182217Y-68376998D01*
X149175023Y-68307500D01*
X149206546Y-68245145D01*
X149225842Y-68228425D01*
X149297152Y-68178493D01*
X149411401Y-68098495D01*
X149578495Y-67931401D01*
X149714035Y-67737830D01*
X149813903Y-67523663D01*
X149875063Y-67295408D01*
X149895659Y-67060000D01*
X149875063Y-66824592D01*
X149813903Y-66596337D01*
X149714035Y-66382171D01*
X149708425Y-66374158D01*
X149578494Y-66188597D01*
X149411402Y-66021506D01*
X149411401Y-66021505D01*
X149225842Y-65891575D01*
X149225841Y-65891574D01*
X149182216Y-65836997D01*
X149175024Y-65767498D01*
X149206546Y-65705144D01*
X149225836Y-65688428D01*
X149411401Y-65558495D01*
X149578495Y-65391401D01*
X149714035Y-65197830D01*
X149813903Y-64983663D01*
X149875063Y-64755408D01*
X149895659Y-64520000D01*
X149875063Y-64284592D01*
X149813903Y-64056337D01*
X149714035Y-63842171D01*
X149708425Y-63834158D01*
X149578494Y-63648597D01*
X149411402Y-63481506D01*
X149411395Y-63481501D01*
X149217834Y-63345967D01*
X149217830Y-63345965D01*
X149175223Y-63326097D01*
X149003663Y-63246097D01*
X149003659Y-63246096D01*
X149003655Y-63246094D01*
X148775413Y-63184938D01*
X148775403Y-63184936D01*
X148540001Y-63164341D01*
X148539999Y-63164341D01*
X148304596Y-63184936D01*
X148304586Y-63184938D01*
X148076344Y-63246094D01*
X148076335Y-63246098D01*
X147862171Y-63345964D01*
X147862169Y-63345965D01*
X147668597Y-63481505D01*
X147501505Y-63648597D01*
X147371575Y-63834158D01*
X147316998Y-63877783D01*
X147247500Y-63884977D01*
X147185145Y-63853454D01*
X147168425Y-63834158D01*
X147038494Y-63648597D01*
X146871402Y-63481506D01*
X146871395Y-63481501D01*
X146677834Y-63345967D01*
X146677830Y-63345965D01*
X146635223Y-63326097D01*
X146463663Y-63246097D01*
X146463659Y-63246096D01*
X146463655Y-63246094D01*
X146235413Y-63184938D01*
X146235403Y-63184936D01*
X146000001Y-63164341D01*
X145999999Y-63164341D01*
X145764596Y-63184936D01*
X145764586Y-63184938D01*
X145536344Y-63246094D01*
X145536335Y-63246098D01*
X145322171Y-63345964D01*
X145322169Y-63345965D01*
X145128597Y-63481505D01*
X144961505Y-63648597D01*
X144825965Y-63842169D01*
X144825964Y-63842171D01*
X144726098Y-64056335D01*
X144726094Y-64056344D01*
X144664938Y-64284586D01*
X144664936Y-64284596D01*
X144644341Y-64519999D01*
X144644341Y-64520000D01*
X144664936Y-64755403D01*
X144664938Y-64755413D01*
X144726094Y-64983655D01*
X144726096Y-64983659D01*
X144726097Y-64983663D01*
X144806004Y-65155023D01*
X144825965Y-65197830D01*
X144825967Y-65197834D01*
X144907943Y-65314907D01*
X144961504Y-65391400D01*
X144961506Y-65391402D01*
X145128597Y-65558493D01*
X145128603Y-65558498D01*
X145314158Y-65688425D01*
X145357783Y-65743002D01*
X145364977Y-65812500D01*
X145333454Y-65874855D01*
X145314158Y-65891575D01*
X145128597Y-66021505D01*
X144961505Y-66188597D01*
X144825965Y-66382169D01*
X144825964Y-66382171D01*
X144726098Y-66596335D01*
X144726094Y-66596344D01*
X144664938Y-66824586D01*
X144664936Y-66824596D01*
X144644341Y-67059999D01*
X144644341Y-67060000D01*
X144664936Y-67295403D01*
X144664938Y-67295413D01*
X144726094Y-67523655D01*
X144726096Y-67523659D01*
X144726097Y-67523663D01*
X144806004Y-67695023D01*
X144825965Y-67737830D01*
X144825967Y-67737834D01*
X144934281Y-67892521D01*
X144961504Y-67931400D01*
X144961506Y-67931402D01*
X145128597Y-68098493D01*
X145128603Y-68098498D01*
X145314158Y-68228425D01*
X145357783Y-68283002D01*
X145364977Y-68352500D01*
X145333454Y-68414855D01*
X145314158Y-68431575D01*
X145128597Y-68561505D01*
X144961505Y-68728597D01*
X144825965Y-68922169D01*
X144825964Y-68922171D01*
X144726098Y-69136335D01*
X144726094Y-69136344D01*
X144664938Y-69364586D01*
X144664936Y-69364596D01*
X144644341Y-69599999D01*
X144644341Y-69600000D01*
X144664936Y-69835403D01*
X144664938Y-69835413D01*
X144726094Y-70063655D01*
X144726096Y-70063659D01*
X144726097Y-70063663D01*
X144806004Y-70235023D01*
X144825965Y-70277830D01*
X144825967Y-70277834D01*
X144934281Y-70432521D01*
X144961504Y-70471400D01*
X144961506Y-70471402D01*
X145128597Y-70638493D01*
X145128603Y-70638498D01*
X145314158Y-70768425D01*
X145357783Y-70823002D01*
X145364977Y-70892500D01*
X145333454Y-70954855D01*
X145314158Y-70971575D01*
X145128597Y-71101505D01*
X144961505Y-71268597D01*
X144825965Y-71462169D01*
X144825964Y-71462171D01*
X144726098Y-71676335D01*
X144726094Y-71676344D01*
X144664938Y-71904586D01*
X144664936Y-71904596D01*
X144644341Y-72139999D01*
X144644341Y-72140000D01*
X144664936Y-72375403D01*
X144664938Y-72375413D01*
X144726094Y-72603655D01*
X144726096Y-72603659D01*
X144726097Y-72603663D01*
X144806004Y-72775023D01*
X144825965Y-72817830D01*
X144825967Y-72817834D01*
X144934281Y-72972521D01*
X144961501Y-73011396D01*
X144961506Y-73011402D01*
X145128597Y-73178493D01*
X145128603Y-73178498D01*
X145314158Y-73308425D01*
X145357783Y-73363002D01*
X145364977Y-73432500D01*
X145333454Y-73494855D01*
X145314158Y-73511575D01*
X145128597Y-73641505D01*
X144961505Y-73808597D01*
X144825965Y-74002169D01*
X144825964Y-74002171D01*
X144726098Y-74216335D01*
X144726094Y-74216344D01*
X144664938Y-74444586D01*
X144664936Y-74444596D01*
X144644341Y-74679999D01*
X144644341Y-74680000D01*
X144664936Y-74915403D01*
X144664938Y-74915413D01*
X144726094Y-75143655D01*
X144726096Y-75143659D01*
X144726097Y-75143663D01*
X144809155Y-75321781D01*
X144825965Y-75357830D01*
X144825967Y-75357834D01*
X144887286Y-75445406D01*
X144961501Y-75551396D01*
X144961506Y-75551402D01*
X145128597Y-75718493D01*
X145128603Y-75718498D01*
X145314158Y-75848425D01*
X145357783Y-75903002D01*
X145364977Y-75972500D01*
X145333454Y-76034855D01*
X145314158Y-76051575D01*
X145128597Y-76181505D01*
X144961505Y-76348597D01*
X144825965Y-76542169D01*
X144825964Y-76542171D01*
X144726098Y-76756335D01*
X144726094Y-76756344D01*
X144664938Y-76984586D01*
X144664936Y-76984596D01*
X144644341Y-77219999D01*
X144644341Y-77220000D01*
X144664936Y-77455403D01*
X144664938Y-77455413D01*
X144726094Y-77683655D01*
X144726096Y-77683659D01*
X144726097Y-77683663D01*
X144789557Y-77819752D01*
X144825965Y-77897830D01*
X144825967Y-77897834D01*
X144888439Y-77987052D01*
X144961501Y-78091396D01*
X144961506Y-78091402D01*
X145128597Y-78258493D01*
X145128603Y-78258498D01*
X145314594Y-78388730D01*
X145358219Y-78443307D01*
X145365413Y-78512805D01*
X145333890Y-78575160D01*
X145314595Y-78591880D01*
X145128922Y-78721890D01*
X145128920Y-78721891D01*
X144961891Y-78888920D01*
X144961886Y-78888926D01*
X144826400Y-79082420D01*
X144826399Y-79082422D01*
X144726570Y-79296507D01*
X144726567Y-79296513D01*
X144669364Y-79509999D01*
X144669364Y-79510000D01*
X145566314Y-79510000D01*
X145540507Y-79550156D01*
X145500000Y-79688111D01*
X145500000Y-79831889D01*
X145540507Y-79969844D01*
X145566314Y-80010000D01*
X144669364Y-80010000D01*
X144726567Y-80223486D01*
X144726570Y-80223492D01*
X144826399Y-80437578D01*
X144961894Y-80631082D01*
X145128917Y-80798105D01*
X145315031Y-80928425D01*
X145358656Y-80983003D01*
X145365848Y-81052501D01*
X145334326Y-81114856D01*
X145315031Y-81131575D01*
X145128922Y-81261890D01*
X145128920Y-81261891D01*
X144961891Y-81428920D01*
X144961886Y-81428926D01*
X144826400Y-81622420D01*
X144826399Y-81622422D01*
X144726570Y-81836507D01*
X144726567Y-81836513D01*
X144669364Y-82049999D01*
X144669364Y-82050000D01*
X145566314Y-82050000D01*
X145540507Y-82090156D01*
X145500000Y-82228111D01*
X145500000Y-82371889D01*
X145540507Y-82509844D01*
X145566314Y-82550000D01*
X144669364Y-82550000D01*
X144726567Y-82763486D01*
X144726570Y-82763492D01*
X144826399Y-82977578D01*
X144961894Y-83171082D01*
X145128917Y-83338105D01*
X145315031Y-83468425D01*
X145358656Y-83523003D01*
X145365848Y-83592501D01*
X145334326Y-83654856D01*
X145315031Y-83671575D01*
X145128922Y-83801890D01*
X145128920Y-83801891D01*
X144961891Y-83968920D01*
X144961886Y-83968926D01*
X144826400Y-84162420D01*
X144826399Y-84162422D01*
X144726570Y-84376507D01*
X144726567Y-84376513D01*
X144669364Y-84589999D01*
X144669364Y-84590000D01*
X145566314Y-84590000D01*
X145540507Y-84630156D01*
X145500000Y-84768111D01*
X145500000Y-84911889D01*
X145540507Y-85049844D01*
X145566314Y-85090000D01*
X144669364Y-85090000D01*
X144726567Y-85303486D01*
X144726570Y-85303492D01*
X144826399Y-85517578D01*
X144961894Y-85711082D01*
X145128917Y-85878105D01*
X145315031Y-86008425D01*
X145358656Y-86063003D01*
X145365848Y-86132501D01*
X145334326Y-86194856D01*
X145315031Y-86211575D01*
X145128922Y-86341890D01*
X145128920Y-86341891D01*
X144961891Y-86508920D01*
X144961886Y-86508926D01*
X144826400Y-86702420D01*
X144826399Y-86702422D01*
X144726570Y-86916507D01*
X144726567Y-86916513D01*
X144669364Y-87129999D01*
X144669364Y-87130000D01*
X145566314Y-87130000D01*
X145540507Y-87170156D01*
X145500000Y-87308111D01*
X145500000Y-87451889D01*
X145540507Y-87589844D01*
X145566314Y-87630000D01*
X144669364Y-87630000D01*
X144726567Y-87843486D01*
X144726570Y-87843492D01*
X144826399Y-88057578D01*
X144961894Y-88251082D01*
X145128917Y-88418105D01*
X145315031Y-88548425D01*
X145358656Y-88603003D01*
X145365848Y-88672501D01*
X145334326Y-88734856D01*
X145315031Y-88751575D01*
X145128922Y-88881890D01*
X145128920Y-88881891D01*
X144961891Y-89048920D01*
X144961886Y-89048926D01*
X144826400Y-89242420D01*
X144826399Y-89242422D01*
X144726570Y-89456507D01*
X144726567Y-89456513D01*
X144669364Y-89669999D01*
X144669364Y-89670000D01*
X145566314Y-89670000D01*
X145540507Y-89710156D01*
X145500000Y-89848111D01*
X145500000Y-89991889D01*
X145540507Y-90129844D01*
X145566314Y-90170000D01*
X144669364Y-90170000D01*
X144726567Y-90383486D01*
X144726570Y-90383492D01*
X144826399Y-90597578D01*
X144961894Y-90791082D01*
X145128917Y-90958105D01*
X145315031Y-91088425D01*
X145358656Y-91143003D01*
X145365848Y-91212501D01*
X145334326Y-91274856D01*
X145315031Y-91291575D01*
X145128922Y-91421890D01*
X145128920Y-91421891D01*
X144961891Y-91588920D01*
X144961886Y-91588926D01*
X144826400Y-91782420D01*
X144826399Y-91782422D01*
X144726570Y-91996507D01*
X144726567Y-91996513D01*
X144669364Y-92209999D01*
X144669364Y-92210000D01*
X145566314Y-92210000D01*
X145540507Y-92250156D01*
X145500000Y-92388111D01*
X145500000Y-92531889D01*
X145540507Y-92669844D01*
X145566314Y-92710000D01*
X144669364Y-92710000D01*
X144726567Y-92923486D01*
X144726570Y-92923492D01*
X144826399Y-93137578D01*
X144961894Y-93331082D01*
X145128917Y-93498105D01*
X145315031Y-93628425D01*
X145358656Y-93683003D01*
X145365848Y-93752501D01*
X145334326Y-93814856D01*
X145315031Y-93831575D01*
X145128922Y-93961890D01*
X145128920Y-93961891D01*
X144961891Y-94128920D01*
X144961886Y-94128926D01*
X144826400Y-94322420D01*
X144826399Y-94322422D01*
X144726570Y-94536507D01*
X144726567Y-94536513D01*
X144669364Y-94749999D01*
X144669364Y-94750000D01*
X145566314Y-94750000D01*
X145540507Y-94790156D01*
X145500000Y-94928111D01*
X145500000Y-95071889D01*
X145540507Y-95209844D01*
X145566314Y-95250000D01*
X144669364Y-95250000D01*
X144726567Y-95463486D01*
X144726570Y-95463492D01*
X144824309Y-95673095D01*
X144834801Y-95742173D01*
X144806281Y-95805957D01*
X144747805Y-95844196D01*
X144711927Y-95849500D01*
X144139006Y-95849500D01*
X144071967Y-95829815D01*
X144051325Y-95813181D01*
X140930325Y-92692180D01*
X140896840Y-92630857D01*
X140901824Y-92561165D01*
X140943696Y-92505232D01*
X141009160Y-92480815D01*
X141018006Y-92480499D01*
X141037871Y-92480499D01*
X141037872Y-92480499D01*
X141097483Y-92474091D01*
X141232331Y-92423796D01*
X141347546Y-92337546D01*
X141433796Y-92222331D01*
X141484091Y-92087483D01*
X141490500Y-92027873D01*
X141490499Y-87972128D01*
X141484091Y-87912517D01*
X141458346Y-87843492D01*
X141433797Y-87777671D01*
X141433793Y-87777664D01*
X141347547Y-87662455D01*
X141347544Y-87662452D01*
X141232335Y-87576206D01*
X141232328Y-87576202D01*
X141097482Y-87525908D01*
X141097483Y-87525908D01*
X141037883Y-87519501D01*
X141037881Y-87519500D01*
X141037873Y-87519500D01*
X141037864Y-87519500D01*
X138962129Y-87519500D01*
X138962123Y-87519501D01*
X138902516Y-87525908D01*
X138767671Y-87576202D01*
X138767664Y-87576206D01*
X138652455Y-87662452D01*
X138652452Y-87662455D01*
X138566206Y-87777664D01*
X138566202Y-87777671D01*
X138515908Y-87912517D01*
X138509501Y-87972116D01*
X138509501Y-87972123D01*
X138509500Y-87972135D01*
X138509500Y-91971994D01*
X138489815Y-92039033D01*
X138437011Y-92084788D01*
X138367853Y-92094732D01*
X138304297Y-92065707D01*
X138297819Y-92059675D01*
X136526819Y-90288675D01*
X136493334Y-90227352D01*
X136490500Y-90200994D01*
X136490500Y-88948357D01*
X136484993Y-88881894D01*
X136475210Y-88763831D01*
X136414572Y-88524377D01*
X136315348Y-88298169D01*
X136180245Y-88091379D01*
X136012948Y-87909645D01*
X136012943Y-87909641D01*
X136012941Y-87909639D01*
X135818028Y-87757932D01*
X135818022Y-87757928D01*
X135600780Y-87640362D01*
X135600771Y-87640359D01*
X135367153Y-87560157D01*
X135161907Y-87525908D01*
X135123506Y-87519500D01*
X134876494Y-87519500D01*
X134838093Y-87525908D01*
X134632846Y-87560157D01*
X134399228Y-87640359D01*
X134399219Y-87640362D01*
X134181977Y-87757928D01*
X134181971Y-87757932D01*
X133987058Y-87909639D01*
X133987055Y-87909642D01*
X133987052Y-87909644D01*
X133987052Y-87909645D01*
X133968644Y-87929642D01*
X133819752Y-88091382D01*
X133684650Y-88298172D01*
X133585428Y-88524376D01*
X133524789Y-88763834D01*
X133509500Y-88948357D01*
X133509500Y-91051643D01*
X133524789Y-91236165D01*
X133585428Y-91475623D01*
X133676434Y-91683097D01*
X133684652Y-91701831D01*
X133723032Y-91760576D01*
X133789571Y-91862422D01*
X133819755Y-91908621D01*
X133987052Y-92090355D01*
X134076662Y-92160101D01*
X134117475Y-92216810D01*
X134124500Y-92257954D01*
X134124500Y-93585994D01*
X134104815Y-93653033D01*
X134088181Y-93673675D01*
X131352180Y-96409674D01*
X131290857Y-96443159D01*
X131221165Y-96438175D01*
X131165232Y-96396303D01*
X131140815Y-96330839D01*
X131140500Y-96322020D01*
X131140500Y-93101017D01*
X131140705Y-93095982D01*
X131145339Y-93039073D01*
X131145338Y-93039065D01*
X131142879Y-93021017D01*
X131141067Y-93007719D01*
X131140500Y-92999358D01*
X131140500Y-91952535D01*
X131140500Y-91952534D01*
X131140500Y-91763098D01*
X131140705Y-91758063D01*
X131145339Y-91701154D01*
X131145339Y-91701152D01*
X131141067Y-91669803D01*
X131140500Y-91661425D01*
X131140500Y-89427873D01*
X131140499Y-89427867D01*
X131140499Y-89358219D01*
X131140499Y-89223072D01*
X131140703Y-89218079D01*
X131145339Y-89161152D01*
X131141067Y-89129803D01*
X131140500Y-89121425D01*
X131140500Y-86683098D01*
X131140705Y-86678063D01*
X131145339Y-86621154D01*
X131145339Y-86621152D01*
X131141067Y-86589803D01*
X131140500Y-86581425D01*
X131140500Y-84143098D01*
X131140705Y-84138063D01*
X131145339Y-84081154D01*
X131145339Y-84081152D01*
X131141067Y-84049803D01*
X131140500Y-84041425D01*
X131140500Y-81603098D01*
X131140705Y-81598063D01*
X131142205Y-81579630D01*
X131145339Y-81541152D01*
X131134085Y-81458558D01*
X131125073Y-81375684D01*
X131125014Y-81375509D01*
X131119656Y-81352649D01*
X131119631Y-81352463D01*
X131090885Y-81274220D01*
X131064267Y-81195220D01*
X131064164Y-81195049D01*
X131054026Y-81173890D01*
X131053961Y-81173715D01*
X131053960Y-81173712D01*
X131009068Y-81103478D01*
X130984715Y-81063002D01*
X130966090Y-81032047D01*
X130965957Y-81031907D01*
X130951504Y-81013419D01*
X130951400Y-81013256D01*
X130892447Y-80954303D01*
X130835129Y-80893793D01*
X130834970Y-80893685D01*
X130816877Y-80878733D01*
X129927091Y-79988947D01*
X129893606Y-79927624D01*
X129891244Y-79890457D01*
X129895659Y-79840000D01*
X129895659Y-79839999D01*
X129877636Y-79634000D01*
X129875063Y-79604592D01*
X129813903Y-79376337D01*
X129714035Y-79162171D01*
X129708731Y-79154595D01*
X129578494Y-78968597D01*
X129411402Y-78801506D01*
X129411396Y-78801501D01*
X129225842Y-78671575D01*
X129182217Y-78616998D01*
X129175023Y-78547500D01*
X129206546Y-78485145D01*
X129225842Y-78468425D01*
X129324678Y-78399219D01*
X129411401Y-78338495D01*
X129578495Y-78171401D01*
X129714035Y-77977830D01*
X129813903Y-77763663D01*
X129875063Y-77535408D01*
X129895659Y-77300000D01*
X129875063Y-77064592D01*
X129813903Y-76836337D01*
X129714035Y-76622171D01*
X129708425Y-76614158D01*
X129578494Y-76428597D01*
X129411402Y-76261506D01*
X129411401Y-76261505D01*
X129225842Y-76131575D01*
X129225405Y-76131269D01*
X129181781Y-76076692D01*
X129174588Y-76007193D01*
X129206110Y-75944839D01*
X129225405Y-75928119D01*
X129411082Y-75798105D01*
X129578105Y-75631082D01*
X129713600Y-75437578D01*
X129813429Y-75223492D01*
X129813432Y-75223486D01*
X129870636Y-75010000D01*
X128973686Y-75010000D01*
X128999493Y-74969844D01*
X129040000Y-74831889D01*
X129040000Y-74688111D01*
X128999493Y-74550156D01*
X128973686Y-74510000D01*
X129870636Y-74510000D01*
X129870635Y-74509999D01*
X129813432Y-74296513D01*
X129813429Y-74296507D01*
X129713600Y-74082422D01*
X129713599Y-74082420D01*
X129578113Y-73888926D01*
X129578108Y-73888920D01*
X129411078Y-73721890D01*
X129225405Y-73591879D01*
X129181780Y-73537302D01*
X129174588Y-73467804D01*
X129206110Y-73405449D01*
X129225406Y-73388730D01*
X129225842Y-73388425D01*
X129411401Y-73258495D01*
X129578495Y-73091401D01*
X129714035Y-72897830D01*
X129813903Y-72683663D01*
X129875063Y-72455408D01*
X129895659Y-72220000D01*
X129875063Y-71984592D01*
X129813903Y-71756337D01*
X129714035Y-71542171D01*
X129708425Y-71534158D01*
X129578494Y-71348597D01*
X129411402Y-71181506D01*
X129411401Y-71181505D01*
X129225842Y-71051575D01*
X129225841Y-71051574D01*
X129182216Y-70996997D01*
X129175024Y-70927498D01*
X129206546Y-70865144D01*
X129225836Y-70848428D01*
X129411401Y-70718495D01*
X129578495Y-70551401D01*
X129714035Y-70357830D01*
X129813903Y-70143663D01*
X129875063Y-69915408D01*
X129895659Y-69680000D01*
X129875063Y-69444592D01*
X129813903Y-69216337D01*
X129714035Y-69002171D01*
X129708425Y-68994158D01*
X129578494Y-68808597D01*
X129411402Y-68641506D01*
X129411396Y-68641501D01*
X129225842Y-68511575D01*
X129182217Y-68456998D01*
X129175023Y-68387500D01*
X129206546Y-68325145D01*
X129225842Y-68308425D01*
X129316215Y-68245145D01*
X129411401Y-68178495D01*
X129578495Y-68011401D01*
X129714035Y-67817830D01*
X129813903Y-67603663D01*
X129875063Y-67375408D01*
X129895659Y-67140000D01*
X129875063Y-66904592D01*
X129813903Y-66676337D01*
X129714035Y-66462171D01*
X129708425Y-66454158D01*
X129578494Y-66268597D01*
X129411402Y-66101506D01*
X129411396Y-66101501D01*
X129225842Y-65971575D01*
X129182217Y-65916998D01*
X129175023Y-65847500D01*
X129206546Y-65785145D01*
X129225842Y-65768425D01*
X129316216Y-65705144D01*
X129411401Y-65638495D01*
X129578495Y-65471401D01*
X129714035Y-65277830D01*
X129813903Y-65063663D01*
X129875063Y-64835408D01*
X129895659Y-64600000D01*
X129875063Y-64364592D01*
X129813903Y-64136337D01*
X129714035Y-63922171D01*
X129712419Y-63919862D01*
X129578494Y-63728597D01*
X129411402Y-63561506D01*
X129411395Y-63561501D01*
X129217834Y-63425967D01*
X129217830Y-63425965D01*
X129186396Y-63411307D01*
X129003663Y-63326097D01*
X129003659Y-63326096D01*
X129003655Y-63326094D01*
X128775413Y-63264938D01*
X128775403Y-63264936D01*
X128540001Y-63244341D01*
X128539999Y-63244341D01*
X128304596Y-63264936D01*
X128304586Y-63264938D01*
X128076344Y-63326094D01*
X128076335Y-63326098D01*
X127862171Y-63425964D01*
X127862169Y-63425965D01*
X127668597Y-63561505D01*
X127501505Y-63728597D01*
X127371575Y-63914158D01*
X127316998Y-63957783D01*
X127247500Y-63964977D01*
X127185145Y-63933454D01*
X127168425Y-63914158D01*
X127038494Y-63728597D01*
X126871402Y-63561506D01*
X126871395Y-63561501D01*
X126677834Y-63425967D01*
X126677830Y-63425965D01*
X126646396Y-63411307D01*
X126463663Y-63326097D01*
X126463659Y-63326096D01*
X126463655Y-63326094D01*
X126235413Y-63264938D01*
X126235403Y-63264936D01*
X126000001Y-63244341D01*
X125999999Y-63244341D01*
X125764596Y-63264936D01*
X125764586Y-63264938D01*
X125536344Y-63326094D01*
X125536335Y-63326098D01*
X125322171Y-63425964D01*
X125322169Y-63425965D01*
X125128597Y-63561505D01*
X124961505Y-63728597D01*
X124825965Y-63922169D01*
X124825964Y-63922171D01*
X124726098Y-64136335D01*
X124726094Y-64136344D01*
X124664938Y-64364586D01*
X124664936Y-64364596D01*
X124644341Y-64599999D01*
X124644341Y-64600000D01*
X124664936Y-64835403D01*
X124664938Y-64835413D01*
X124726094Y-65063655D01*
X124726096Y-65063659D01*
X124726097Y-65063663D01*
X124806004Y-65235023D01*
X124825965Y-65277830D01*
X124825967Y-65277834D01*
X124905488Y-65391401D01*
X124961501Y-65471396D01*
X124961506Y-65471402D01*
X125128597Y-65638493D01*
X125128603Y-65638498D01*
X125314158Y-65768425D01*
X125357783Y-65823002D01*
X125364977Y-65892500D01*
X125333454Y-65954855D01*
X125314158Y-65971575D01*
X125128597Y-66101505D01*
X124961505Y-66268597D01*
X124825965Y-66462169D01*
X124825964Y-66462171D01*
X124726098Y-66676335D01*
X124726094Y-66676344D01*
X124664938Y-66904586D01*
X124664936Y-66904596D01*
X124644341Y-67139999D01*
X124644341Y-67140000D01*
X124664936Y-67375403D01*
X124664938Y-67375413D01*
X124726094Y-67603655D01*
X124726096Y-67603659D01*
X124726097Y-67603663D01*
X124802685Y-67767906D01*
X124825965Y-67817830D01*
X124825967Y-67817834D01*
X124927034Y-67962172D01*
X124961501Y-68011396D01*
X124961506Y-68011402D01*
X125128597Y-68178493D01*
X125128603Y-68178498D01*
X125314158Y-68308425D01*
X125357783Y-68363002D01*
X125364977Y-68432500D01*
X125333454Y-68494855D01*
X125314158Y-68511575D01*
X125128597Y-68641505D01*
X124961505Y-68808597D01*
X124825965Y-69002169D01*
X124825964Y-69002171D01*
X124726098Y-69216335D01*
X124726094Y-69216344D01*
X124664938Y-69444586D01*
X124664936Y-69444596D01*
X124644341Y-69679999D01*
X124644341Y-69680000D01*
X124664936Y-69915403D01*
X124664938Y-69915413D01*
X124726094Y-70143655D01*
X124726096Y-70143659D01*
X124726097Y-70143663D01*
X124806004Y-70315023D01*
X124825965Y-70357830D01*
X124825967Y-70357834D01*
X124934281Y-70512521D01*
X124961504Y-70551400D01*
X124961506Y-70551402D01*
X125128597Y-70718493D01*
X125128603Y-70718498D01*
X125314158Y-70848425D01*
X125357783Y-70903002D01*
X125364977Y-70972500D01*
X125333454Y-71034855D01*
X125314158Y-71051575D01*
X125128597Y-71181505D01*
X124961505Y-71348597D01*
X124825965Y-71542169D01*
X124825964Y-71542171D01*
X124726098Y-71756335D01*
X124726094Y-71756344D01*
X124664938Y-71984586D01*
X124664936Y-71984596D01*
X124644341Y-72219999D01*
X124644341Y-72220000D01*
X124664936Y-72455403D01*
X124664938Y-72455413D01*
X124726094Y-72683655D01*
X124726096Y-72683659D01*
X124726097Y-72683663D01*
X124806004Y-72855023D01*
X124825965Y-72897830D01*
X124825967Y-72897834D01*
X124905484Y-73011395D01*
X124961504Y-73091400D01*
X124961506Y-73091402D01*
X125128597Y-73258493D01*
X125128603Y-73258498D01*
X125314158Y-73388425D01*
X125357783Y-73443002D01*
X125364977Y-73512500D01*
X125333454Y-73574855D01*
X125314158Y-73591575D01*
X125128597Y-73721505D01*
X124961505Y-73888597D01*
X124825965Y-74082169D01*
X124825964Y-74082171D01*
X124726098Y-74296335D01*
X124726094Y-74296344D01*
X124664938Y-74524586D01*
X124664936Y-74524596D01*
X124644341Y-74759999D01*
X124644341Y-74760000D01*
X124664936Y-74995403D01*
X124664938Y-74995413D01*
X124726094Y-75223655D01*
X124726096Y-75223659D01*
X124726097Y-75223663D01*
X124809155Y-75401781D01*
X124825965Y-75437830D01*
X124825967Y-75437834D01*
X124905262Y-75551078D01*
X124961501Y-75631396D01*
X124961506Y-75631402D01*
X125128597Y-75798493D01*
X125128603Y-75798498D01*
X125314158Y-75928425D01*
X125357783Y-75983002D01*
X125364977Y-76052500D01*
X125333454Y-76114855D01*
X125314158Y-76131575D01*
X125128597Y-76261505D01*
X124961505Y-76428597D01*
X124825965Y-76622169D01*
X124825964Y-76622171D01*
X124726098Y-76836335D01*
X124726094Y-76836344D01*
X124664938Y-77064586D01*
X124664936Y-77064596D01*
X124644341Y-77299999D01*
X124644341Y-77300000D01*
X124664936Y-77535403D01*
X124664938Y-77535413D01*
X124726094Y-77763655D01*
X124726096Y-77763659D01*
X124726097Y-77763663D01*
X124806004Y-77935023D01*
X124825965Y-77977830D01*
X124825967Y-77977834D01*
X124905484Y-78091395D01*
X124961505Y-78171401D01*
X125128599Y-78338495D01*
X125313271Y-78467804D01*
X125314594Y-78468730D01*
X125358219Y-78523307D01*
X125365413Y-78592805D01*
X125333890Y-78655160D01*
X125314595Y-78671880D01*
X125128922Y-78801890D01*
X125128920Y-78801891D01*
X124961891Y-78968920D01*
X124961886Y-78968926D01*
X124826400Y-79162420D01*
X124826399Y-79162422D01*
X124726570Y-79376507D01*
X124726567Y-79376513D01*
X124669364Y-79589999D01*
X124669364Y-79590000D01*
X125566314Y-79590000D01*
X125540507Y-79630156D01*
X125500000Y-79768111D01*
X125500000Y-79911889D01*
X125540507Y-80049844D01*
X125566314Y-80090000D01*
X124669364Y-80090000D01*
X124726567Y-80303486D01*
X124726570Y-80303492D01*
X124826399Y-80517578D01*
X124961894Y-80711082D01*
X125128917Y-80878105D01*
X125315031Y-81008425D01*
X125358656Y-81063003D01*
X125365848Y-81132501D01*
X125334326Y-81194856D01*
X125315031Y-81211575D01*
X125128922Y-81341890D01*
X125128920Y-81341891D01*
X124961891Y-81508920D01*
X124961886Y-81508926D01*
X124826400Y-81702420D01*
X124826399Y-81702422D01*
X124726570Y-81916507D01*
X124726567Y-81916513D01*
X124669364Y-82129999D01*
X124669364Y-82130000D01*
X125566314Y-82130000D01*
X125540507Y-82170156D01*
X125500000Y-82308111D01*
X125500000Y-82451889D01*
X125540507Y-82589844D01*
X125566314Y-82630000D01*
X124669364Y-82630000D01*
X124726567Y-82843486D01*
X124726570Y-82843492D01*
X124826399Y-83057578D01*
X124961894Y-83251082D01*
X125128917Y-83418105D01*
X125315031Y-83548425D01*
X125358656Y-83603003D01*
X125365848Y-83672501D01*
X125334326Y-83734856D01*
X125315031Y-83751575D01*
X125128922Y-83881890D01*
X125128920Y-83881891D01*
X124961891Y-84048920D01*
X124961886Y-84048926D01*
X124826400Y-84242420D01*
X124826399Y-84242422D01*
X124726570Y-84456507D01*
X124726567Y-84456513D01*
X124669364Y-84669999D01*
X124669364Y-84670000D01*
X125566314Y-84670000D01*
X125540507Y-84710156D01*
X125500000Y-84848111D01*
X125500000Y-84991889D01*
X125540507Y-85129844D01*
X125566314Y-85170000D01*
X124669364Y-85170000D01*
X124726567Y-85383486D01*
X124726570Y-85383492D01*
X124826399Y-85597578D01*
X124961894Y-85791082D01*
X125128917Y-85958105D01*
X125315031Y-86088425D01*
X125358656Y-86143003D01*
X125365848Y-86212501D01*
X125334326Y-86274856D01*
X125315031Y-86291575D01*
X125128922Y-86421890D01*
X125128920Y-86421891D01*
X124961891Y-86588920D01*
X124961886Y-86588926D01*
X124826400Y-86782420D01*
X124826399Y-86782422D01*
X124726570Y-86996507D01*
X124726567Y-86996513D01*
X124669364Y-87209999D01*
X124669364Y-87210000D01*
X125566314Y-87210000D01*
X125540507Y-87250156D01*
X125500000Y-87388111D01*
X125500000Y-87531889D01*
X125540507Y-87669844D01*
X125566314Y-87710000D01*
X124669364Y-87710000D01*
X124726567Y-87923486D01*
X124726570Y-87923492D01*
X124826399Y-88137578D01*
X124961894Y-88331082D01*
X125128917Y-88498105D01*
X125315031Y-88628425D01*
X125358656Y-88683003D01*
X125365848Y-88752501D01*
X125334326Y-88814856D01*
X125315031Y-88831575D01*
X125128922Y-88961890D01*
X125128920Y-88961891D01*
X124961891Y-89128920D01*
X124961886Y-89128926D01*
X124826400Y-89322420D01*
X124826399Y-89322422D01*
X124726570Y-89536507D01*
X124726567Y-89536513D01*
X124669364Y-89749999D01*
X124669364Y-89750000D01*
X125566314Y-89750000D01*
X125540507Y-89790156D01*
X125500000Y-89928111D01*
X125500000Y-90071889D01*
X125540507Y-90209844D01*
X125566314Y-90250000D01*
X124669364Y-90250000D01*
X124726567Y-90463486D01*
X124726570Y-90463492D01*
X124826399Y-90677578D01*
X124961894Y-90871082D01*
X125128917Y-91038105D01*
X125315031Y-91168425D01*
X125358656Y-91223003D01*
X125365848Y-91292501D01*
X125334326Y-91354856D01*
X125315031Y-91371575D01*
X125128922Y-91501890D01*
X125128920Y-91501891D01*
X124961891Y-91668920D01*
X124961886Y-91668926D01*
X124826400Y-91862420D01*
X124826399Y-91862422D01*
X124726570Y-92076507D01*
X124726567Y-92076513D01*
X124669364Y-92289999D01*
X124669364Y-92290000D01*
X125566314Y-92290000D01*
X125540507Y-92330156D01*
X125500000Y-92468111D01*
X125500000Y-92611889D01*
X125540507Y-92749844D01*
X125566314Y-92790000D01*
X124669364Y-92790000D01*
X124726567Y-93003486D01*
X124726570Y-93003492D01*
X124826399Y-93217578D01*
X124961894Y-93411082D01*
X125128917Y-93578105D01*
X125315031Y-93708425D01*
X125358656Y-93763003D01*
X125365848Y-93832501D01*
X125334326Y-93894856D01*
X125315031Y-93911575D01*
X125128922Y-94041890D01*
X125128920Y-94041891D01*
X124961891Y-94208920D01*
X124961886Y-94208926D01*
X124826400Y-94402420D01*
X124826399Y-94402422D01*
X124726570Y-94616507D01*
X124726567Y-94616513D01*
X124669364Y-94829999D01*
X124669364Y-94830000D01*
X125566314Y-94830000D01*
X125540507Y-94870156D01*
X125500000Y-95008111D01*
X125500000Y-95151889D01*
X125540507Y-95289844D01*
X125566314Y-95330000D01*
X124669364Y-95330000D01*
X124726567Y-95543486D01*
X124726570Y-95543492D01*
X124824309Y-95753095D01*
X124834801Y-95822173D01*
X124806281Y-95885957D01*
X124747805Y-95924196D01*
X124711927Y-95929500D01*
X124489006Y-95929500D01*
X124421967Y-95909815D01*
X124401325Y-95893181D01*
X121149978Y-92641834D01*
X121116493Y-92580511D01*
X121121477Y-92510819D01*
X121163349Y-92454886D01*
X121194327Y-92437971D01*
X121232326Y-92423798D01*
X121232326Y-92423797D01*
X121232331Y-92423796D01*
X121347546Y-92337546D01*
X121433796Y-92222331D01*
X121484091Y-92087483D01*
X121490500Y-92027873D01*
X121490499Y-87972128D01*
X121484091Y-87912517D01*
X121458346Y-87843492D01*
X121433797Y-87777671D01*
X121433793Y-87777664D01*
X121347547Y-87662455D01*
X121347544Y-87662452D01*
X121232335Y-87576206D01*
X121232328Y-87576202D01*
X121097482Y-87525908D01*
X121097483Y-87525908D01*
X121037883Y-87519501D01*
X121037881Y-87519500D01*
X121037873Y-87519500D01*
X121037864Y-87519500D01*
X118962129Y-87519500D01*
X118962123Y-87519501D01*
X118902516Y-87525908D01*
X118767671Y-87576202D01*
X118767664Y-87576206D01*
X118652455Y-87662452D01*
X118652452Y-87662455D01*
X118566206Y-87777664D01*
X118566202Y-87777671D01*
X118515908Y-87912517D01*
X118509501Y-87972116D01*
X118509501Y-87972123D01*
X118509500Y-87972135D01*
X118509500Y-91971994D01*
X118489815Y-92039033D01*
X118437011Y-92084788D01*
X118367853Y-92094732D01*
X118304297Y-92065707D01*
X118297819Y-92059675D01*
X116526819Y-90288675D01*
X116493334Y-90227352D01*
X116490500Y-90200994D01*
X116490500Y-88948357D01*
X116484993Y-88881894D01*
X116475210Y-88763831D01*
X116414572Y-88524377D01*
X116315348Y-88298169D01*
X116180245Y-88091379D01*
X116012948Y-87909645D01*
X116012943Y-87909641D01*
X116012941Y-87909639D01*
X115818028Y-87757932D01*
X115818022Y-87757928D01*
X115600780Y-87640362D01*
X115600771Y-87640359D01*
X115367153Y-87560157D01*
X115161907Y-87525908D01*
X115123506Y-87519500D01*
X114876494Y-87519500D01*
X114838093Y-87525908D01*
X114632846Y-87560157D01*
X114399228Y-87640359D01*
X114399219Y-87640362D01*
X114181977Y-87757928D01*
X114181971Y-87757932D01*
X113987058Y-87909639D01*
X113987055Y-87909642D01*
X113987052Y-87909644D01*
X113987052Y-87909645D01*
X113968644Y-87929642D01*
X113819752Y-88091382D01*
X113684650Y-88298172D01*
X113585428Y-88524376D01*
X113524789Y-88763834D01*
X113509500Y-88948357D01*
X113509500Y-91051643D01*
X113524789Y-91236165D01*
X113585428Y-91475623D01*
X113676434Y-91683097D01*
X113684652Y-91701831D01*
X113723032Y-91760576D01*
X113789571Y-91862422D01*
X113819755Y-91908621D01*
X113987052Y-92090355D01*
X114018372Y-92114732D01*
X114076661Y-92160100D01*
X114117474Y-92216811D01*
X114124499Y-92257954D01*
X114124499Y-93343761D01*
X114104814Y-93410800D01*
X114088180Y-93431442D01*
X111352180Y-96167441D01*
X111290857Y-96200926D01*
X111221165Y-96195942D01*
X111165232Y-96154070D01*
X111140815Y-96088606D01*
X111140499Y-96079760D01*
X111140499Y-94870156D01*
X111140499Y-93313072D01*
X111140703Y-93308079D01*
X111145339Y-93251152D01*
X111141067Y-93219803D01*
X111140500Y-93211425D01*
X111140500Y-91952535D01*
X111140500Y-91818219D01*
X111140500Y-91683072D01*
X111140703Y-91678079D01*
X111145339Y-91621152D01*
X111141067Y-91589803D01*
X111140500Y-91581425D01*
X111140500Y-89143098D01*
X111140705Y-89138063D01*
X111145339Y-89081154D01*
X111145339Y-89081152D01*
X111141067Y-89049803D01*
X111140500Y-89041425D01*
X111140500Y-86603098D01*
X111140705Y-86598063D01*
X111145339Y-86541154D01*
X111145339Y-86541152D01*
X111141067Y-86509803D01*
X111140500Y-86501425D01*
X111140500Y-84427873D01*
X111140499Y-84427867D01*
X111140499Y-84278219D01*
X111140499Y-84063072D01*
X111140703Y-84058079D01*
X111145339Y-84001152D01*
X111141067Y-83969803D01*
X111140500Y-83961425D01*
X111140500Y-81523098D01*
X111140705Y-81518063D01*
X111142205Y-81499630D01*
X111145339Y-81461152D01*
X111134085Y-81378558D01*
X111125073Y-81295684D01*
X111125014Y-81295509D01*
X111119656Y-81272649D01*
X111119631Y-81272463D01*
X111090885Y-81194220D01*
X111064267Y-81115220D01*
X111064164Y-81115049D01*
X111054026Y-81093890D01*
X111053961Y-81093715D01*
X111053960Y-81093712D01*
X111009068Y-81023478D01*
X110966089Y-80952046D01*
X110965955Y-80951904D01*
X110951504Y-80933419D01*
X110951400Y-80933256D01*
X110892447Y-80874303D01*
X110835129Y-80813793D01*
X110834970Y-80813685D01*
X110816877Y-80798733D01*
X109927091Y-79908947D01*
X109893606Y-79847624D01*
X109891244Y-79810457D01*
X109895659Y-79760000D01*
X109895659Y-79759999D01*
X109882508Y-79609685D01*
X109875063Y-79524592D01*
X109813903Y-79296337D01*
X109714035Y-79082171D01*
X109708731Y-79074595D01*
X109578494Y-78888597D01*
X109411402Y-78721506D01*
X109411396Y-78721501D01*
X109225842Y-78591575D01*
X109182217Y-78536998D01*
X109175023Y-78467500D01*
X109206546Y-78405145D01*
X109225842Y-78388425D01*
X109297152Y-78338493D01*
X109411401Y-78258495D01*
X109578495Y-78091401D01*
X109714035Y-77897830D01*
X109813903Y-77683663D01*
X109875063Y-77455408D01*
X109895659Y-77220000D01*
X109875063Y-76984592D01*
X109813903Y-76756337D01*
X109714035Y-76542171D01*
X109708425Y-76534158D01*
X109578494Y-76348597D01*
X109411402Y-76181506D01*
X109411401Y-76181505D01*
X109225842Y-76051575D01*
X109225405Y-76051269D01*
X109181781Y-75996692D01*
X109174588Y-75927193D01*
X109206110Y-75864839D01*
X109225405Y-75848119D01*
X109411082Y-75718105D01*
X109578105Y-75551082D01*
X109713600Y-75357578D01*
X109813429Y-75143492D01*
X109813432Y-75143486D01*
X109870636Y-74930000D01*
X108973686Y-74930000D01*
X108999493Y-74889844D01*
X109040000Y-74751889D01*
X109040000Y-74608111D01*
X108999493Y-74470156D01*
X108973686Y-74430000D01*
X109870636Y-74430000D01*
X109870635Y-74429999D01*
X109813432Y-74216513D01*
X109813429Y-74216507D01*
X109713600Y-74002422D01*
X109713599Y-74002420D01*
X109578113Y-73808926D01*
X109578108Y-73808920D01*
X109411078Y-73641890D01*
X109225405Y-73511879D01*
X109181780Y-73457302D01*
X109174588Y-73387804D01*
X109206110Y-73325449D01*
X109225406Y-73308730D01*
X109297152Y-73258493D01*
X109411401Y-73178495D01*
X109578495Y-73011401D01*
X109714035Y-72817830D01*
X109813903Y-72603663D01*
X109875063Y-72375408D01*
X109895659Y-72140000D01*
X109875063Y-71904592D01*
X109813903Y-71676337D01*
X109714035Y-71462171D01*
X109708425Y-71454158D01*
X109578494Y-71268597D01*
X109411402Y-71101506D01*
X109411396Y-71101501D01*
X109225842Y-70971575D01*
X109182217Y-70916998D01*
X109175023Y-70847500D01*
X109206546Y-70785145D01*
X109225842Y-70768425D01*
X109297152Y-70718493D01*
X109411401Y-70638495D01*
X109578495Y-70471401D01*
X109714035Y-70277830D01*
X109813903Y-70063663D01*
X109875063Y-69835408D01*
X109895659Y-69600000D01*
X109875063Y-69364592D01*
X109813903Y-69136337D01*
X109714035Y-68922171D01*
X109712419Y-68919862D01*
X109578494Y-68728597D01*
X109411402Y-68561506D01*
X109411396Y-68561501D01*
X109225842Y-68431575D01*
X109182217Y-68376998D01*
X109175023Y-68307500D01*
X109206546Y-68245145D01*
X109225842Y-68228425D01*
X109297152Y-68178493D01*
X109411401Y-68098495D01*
X109578495Y-67931401D01*
X109714035Y-67737830D01*
X109813903Y-67523663D01*
X109875063Y-67295408D01*
X109895659Y-67060000D01*
X109875063Y-66824592D01*
X109813903Y-66596337D01*
X109714035Y-66382171D01*
X109708425Y-66374158D01*
X109578494Y-66188597D01*
X109411402Y-66021506D01*
X109411396Y-66021501D01*
X109225842Y-65891575D01*
X109182217Y-65836998D01*
X109175023Y-65767500D01*
X109206546Y-65705145D01*
X109225842Y-65688425D01*
X109297152Y-65638493D01*
X109411401Y-65558495D01*
X109578495Y-65391401D01*
X109714035Y-65197830D01*
X109813903Y-64983663D01*
X109875063Y-64755408D01*
X109895659Y-64520000D01*
X109875063Y-64284592D01*
X109813903Y-64056337D01*
X109714035Y-63842171D01*
X109708425Y-63834158D01*
X109578494Y-63648597D01*
X109411402Y-63481506D01*
X109411395Y-63481501D01*
X109217834Y-63345967D01*
X109217830Y-63345965D01*
X109175223Y-63326097D01*
X109003663Y-63246097D01*
X109003659Y-63246096D01*
X109003655Y-63246094D01*
X108775413Y-63184938D01*
X108775403Y-63184936D01*
X108540001Y-63164341D01*
X108539999Y-63164341D01*
X108304596Y-63184936D01*
X108304586Y-63184938D01*
X108076344Y-63246094D01*
X108076335Y-63246098D01*
X107862171Y-63345964D01*
X107862169Y-63345965D01*
X107668597Y-63481505D01*
X107501505Y-63648597D01*
X107371575Y-63834158D01*
X107316998Y-63877783D01*
X107247500Y-63884977D01*
X107185145Y-63853454D01*
X107168425Y-63834158D01*
X107038494Y-63648597D01*
X106871402Y-63481506D01*
X106871395Y-63481501D01*
X106677834Y-63345967D01*
X106677830Y-63345965D01*
X106635223Y-63326097D01*
X106463663Y-63246097D01*
X106463659Y-63246096D01*
X106463655Y-63246094D01*
X106235413Y-63184938D01*
X106235403Y-63184936D01*
X106000001Y-63164341D01*
X105999999Y-63164341D01*
X105764596Y-63184936D01*
X105764586Y-63184938D01*
X105536344Y-63246094D01*
X105536335Y-63246098D01*
X105322171Y-63345964D01*
X105322169Y-63345965D01*
X105128597Y-63481505D01*
X104961505Y-63648597D01*
X104825965Y-63842169D01*
X104825964Y-63842171D01*
X104726098Y-64056335D01*
X104726094Y-64056344D01*
X104664938Y-64284586D01*
X104664936Y-64284596D01*
X104644341Y-64519999D01*
X104644341Y-64520000D01*
X104664936Y-64755403D01*
X104664938Y-64755413D01*
X104726094Y-64983655D01*
X104726096Y-64983659D01*
X104726097Y-64983663D01*
X104806004Y-65155023D01*
X104825965Y-65197830D01*
X104825967Y-65197834D01*
X104907943Y-65314907D01*
X104961504Y-65391400D01*
X104961506Y-65391402D01*
X105128597Y-65558493D01*
X105128603Y-65558498D01*
X105314158Y-65688425D01*
X105357783Y-65743002D01*
X105364977Y-65812500D01*
X105333454Y-65874855D01*
X105314158Y-65891575D01*
X105128597Y-66021505D01*
X104961505Y-66188597D01*
X104825965Y-66382169D01*
X104825964Y-66382171D01*
X104726098Y-66596335D01*
X104726094Y-66596344D01*
X104664938Y-66824586D01*
X104664936Y-66824596D01*
X104644341Y-67059999D01*
X104644341Y-67060000D01*
X104664936Y-67295403D01*
X104664938Y-67295413D01*
X104726094Y-67523655D01*
X104726096Y-67523659D01*
X104726097Y-67523663D01*
X104806004Y-67695023D01*
X104825965Y-67737830D01*
X104825967Y-67737834D01*
X104934281Y-67892521D01*
X104961504Y-67931400D01*
X104961506Y-67931402D01*
X105128597Y-68098493D01*
X105128603Y-68098498D01*
X105314158Y-68228425D01*
X105357783Y-68283002D01*
X105364977Y-68352500D01*
X105333454Y-68414855D01*
X105314158Y-68431575D01*
X105128597Y-68561505D01*
X104961505Y-68728597D01*
X104825965Y-68922169D01*
X104825964Y-68922171D01*
X104726098Y-69136335D01*
X104726094Y-69136344D01*
X104664938Y-69364586D01*
X104664936Y-69364596D01*
X104644341Y-69599999D01*
X104644341Y-69600000D01*
X104664936Y-69835403D01*
X104664938Y-69835413D01*
X104726094Y-70063655D01*
X104726096Y-70063659D01*
X104726097Y-70063663D01*
X104806004Y-70235023D01*
X104825965Y-70277830D01*
X104825967Y-70277834D01*
X104934281Y-70432521D01*
X104961504Y-70471400D01*
X104961506Y-70471402D01*
X105128597Y-70638493D01*
X105128603Y-70638498D01*
X105314158Y-70768425D01*
X105357783Y-70823002D01*
X105364977Y-70892500D01*
X105333454Y-70954855D01*
X105314158Y-70971575D01*
X105128597Y-71101505D01*
X104961505Y-71268597D01*
X104825965Y-71462169D01*
X104825964Y-71462171D01*
X104726098Y-71676335D01*
X104726094Y-71676344D01*
X104664938Y-71904586D01*
X104664936Y-71904596D01*
X104644341Y-72139999D01*
X104644341Y-72140000D01*
X104664936Y-72375403D01*
X104664938Y-72375413D01*
X104726094Y-72603655D01*
X104726096Y-72603659D01*
X104726097Y-72603663D01*
X104806004Y-72775023D01*
X104825965Y-72817830D01*
X104825967Y-72817834D01*
X104934281Y-72972521D01*
X104961501Y-73011396D01*
X104961506Y-73011402D01*
X105128597Y-73178493D01*
X105128603Y-73178498D01*
X105314158Y-73308425D01*
X105357783Y-73363002D01*
X105364977Y-73432500D01*
X105333454Y-73494855D01*
X105314158Y-73511575D01*
X105128597Y-73641505D01*
X104961505Y-73808597D01*
X104825965Y-74002169D01*
X104825964Y-74002171D01*
X104726098Y-74216335D01*
X104726094Y-74216344D01*
X104664938Y-74444586D01*
X104664936Y-74444596D01*
X104644341Y-74679999D01*
X104644341Y-74680000D01*
X104664936Y-74915403D01*
X104664938Y-74915413D01*
X104726094Y-75143655D01*
X104726096Y-75143659D01*
X104726097Y-75143663D01*
X104809155Y-75321781D01*
X104825965Y-75357830D01*
X104825967Y-75357834D01*
X104887286Y-75445406D01*
X104961501Y-75551396D01*
X104961506Y-75551402D01*
X105128597Y-75718493D01*
X105128603Y-75718498D01*
X105314158Y-75848425D01*
X105357783Y-75903002D01*
X105364977Y-75972500D01*
X105333454Y-76034855D01*
X105314158Y-76051575D01*
X105128597Y-76181505D01*
X104961505Y-76348597D01*
X104825965Y-76542169D01*
X104825964Y-76542171D01*
X104726098Y-76756335D01*
X104726094Y-76756344D01*
X104664938Y-76984586D01*
X104664936Y-76984596D01*
X104644341Y-77219999D01*
X104644341Y-77220000D01*
X104664936Y-77455403D01*
X104664938Y-77455413D01*
X104726094Y-77683655D01*
X104726096Y-77683659D01*
X104726097Y-77683663D01*
X104789557Y-77819752D01*
X104825965Y-77897830D01*
X104825967Y-77897834D01*
X104888439Y-77987052D01*
X104961501Y-78091396D01*
X104961506Y-78091402D01*
X105128597Y-78258493D01*
X105128603Y-78258498D01*
X105314594Y-78388730D01*
X105358219Y-78443307D01*
X105365413Y-78512805D01*
X105333890Y-78575160D01*
X105314595Y-78591880D01*
X105128922Y-78721890D01*
X105128920Y-78721891D01*
X104961891Y-78888920D01*
X104961886Y-78888926D01*
X104826400Y-79082420D01*
X104826399Y-79082422D01*
X104726570Y-79296507D01*
X104726567Y-79296513D01*
X104669364Y-79509999D01*
X104669364Y-79510000D01*
X105566314Y-79510000D01*
X105540507Y-79550156D01*
X105500000Y-79688111D01*
X105500000Y-79831889D01*
X105540507Y-79969844D01*
X105566314Y-80010000D01*
X104669364Y-80010000D01*
X104726567Y-80223486D01*
X104726570Y-80223492D01*
X104826399Y-80437578D01*
X104961894Y-80631082D01*
X105128917Y-80798105D01*
X105315031Y-80928425D01*
X105358656Y-80983003D01*
X105365848Y-81052501D01*
X105334326Y-81114856D01*
X105315031Y-81131575D01*
X105128922Y-81261890D01*
X105128920Y-81261891D01*
X104961891Y-81428920D01*
X104961886Y-81428926D01*
X104826400Y-81622420D01*
X104826399Y-81622422D01*
X104726570Y-81836507D01*
X104726567Y-81836513D01*
X104669364Y-82049999D01*
X104669364Y-82050000D01*
X105566314Y-82050000D01*
X105540507Y-82090156D01*
X105500000Y-82228111D01*
X105500000Y-82371889D01*
X105540507Y-82509844D01*
X105566314Y-82550000D01*
X104669364Y-82550000D01*
X104726567Y-82763486D01*
X104726570Y-82763492D01*
X104826399Y-82977578D01*
X104961894Y-83171082D01*
X105128917Y-83338105D01*
X105315031Y-83468425D01*
X105358656Y-83523003D01*
X105365848Y-83592501D01*
X105334326Y-83654856D01*
X105315031Y-83671575D01*
X105128922Y-83801890D01*
X105128920Y-83801891D01*
X104961891Y-83968920D01*
X104961886Y-83968926D01*
X104826400Y-84162420D01*
X104826399Y-84162422D01*
X104726570Y-84376507D01*
X104726567Y-84376513D01*
X104669364Y-84589999D01*
X104669364Y-84590000D01*
X105566314Y-84590000D01*
X105540507Y-84630156D01*
X105500000Y-84768111D01*
X105500000Y-84911889D01*
X105540507Y-85049844D01*
X105566314Y-85090000D01*
X104669364Y-85090000D01*
X104726567Y-85303486D01*
X104726570Y-85303492D01*
X104826399Y-85517578D01*
X104961894Y-85711082D01*
X105128917Y-85878105D01*
X105315031Y-86008425D01*
X105358656Y-86063003D01*
X105365848Y-86132501D01*
X105334326Y-86194856D01*
X105315031Y-86211575D01*
X105128922Y-86341890D01*
X105128920Y-86341891D01*
X104961891Y-86508920D01*
X104961886Y-86508926D01*
X104826400Y-86702420D01*
X104826399Y-86702422D01*
X104726570Y-86916507D01*
X104726567Y-86916513D01*
X104669364Y-87129999D01*
X104669364Y-87130000D01*
X105566314Y-87130000D01*
X105540507Y-87170156D01*
X105500000Y-87308111D01*
X105500000Y-87451889D01*
X105540507Y-87589844D01*
X105566314Y-87630000D01*
X104669364Y-87630000D01*
X104726567Y-87843486D01*
X104726570Y-87843492D01*
X104826399Y-88057578D01*
X104961894Y-88251082D01*
X105128917Y-88418105D01*
X105315031Y-88548425D01*
X105358656Y-88603003D01*
X105365848Y-88672501D01*
X105334326Y-88734856D01*
X105315031Y-88751575D01*
X105128922Y-88881890D01*
X105128920Y-88881891D01*
X104961891Y-89048920D01*
X104961886Y-89048926D01*
X104826400Y-89242420D01*
X104826399Y-89242422D01*
X104726570Y-89456507D01*
X104726567Y-89456513D01*
X104669364Y-89669999D01*
X104669364Y-89670000D01*
X105566314Y-89670000D01*
X105540507Y-89710156D01*
X105500000Y-89848111D01*
X105500000Y-89991889D01*
X105540507Y-90129844D01*
X105566314Y-90170000D01*
X104669364Y-90170000D01*
X104726567Y-90383486D01*
X104726570Y-90383492D01*
X104826399Y-90597578D01*
X104961894Y-90791082D01*
X105128917Y-90958105D01*
X105315031Y-91088425D01*
X105358656Y-91143003D01*
X105365848Y-91212501D01*
X105334326Y-91274856D01*
X105315031Y-91291575D01*
X105128922Y-91421890D01*
X105128920Y-91421891D01*
X104961891Y-91588920D01*
X104961886Y-91588926D01*
X104826400Y-91782420D01*
X104826399Y-91782422D01*
X104726570Y-91996507D01*
X104726567Y-91996513D01*
X104669364Y-92209999D01*
X104669364Y-92210000D01*
X105566314Y-92210000D01*
X105540507Y-92250156D01*
X105500000Y-92388111D01*
X105500000Y-92531889D01*
X105540507Y-92669844D01*
X105566314Y-92710000D01*
X104669364Y-92710000D01*
X104726567Y-92923486D01*
X104726570Y-92923492D01*
X104826399Y-93137578D01*
X104961894Y-93331082D01*
X105128917Y-93498105D01*
X105315031Y-93628425D01*
X105358656Y-93683003D01*
X105365848Y-93752501D01*
X105334326Y-93814856D01*
X105315031Y-93831575D01*
X105128922Y-93961890D01*
X105128920Y-93961891D01*
X104961891Y-94128920D01*
X104961886Y-94128926D01*
X104826400Y-94322420D01*
X104826399Y-94322422D01*
X104726570Y-94536507D01*
X104726567Y-94536513D01*
X104669364Y-94749999D01*
X104669364Y-94750000D01*
X105566314Y-94750000D01*
X105540507Y-94790156D01*
X105500000Y-94928111D01*
X105500000Y-95071889D01*
X105540507Y-95209844D01*
X105566314Y-95250000D01*
X104669364Y-95250000D01*
X104726567Y-95463486D01*
X104726570Y-95463492D01*
X104824309Y-95673095D01*
X104834801Y-95742173D01*
X104806281Y-95805957D01*
X104747805Y-95844196D01*
X104711927Y-95849500D01*
X104389006Y-95849500D01*
X104321967Y-95829815D01*
X104301325Y-95813181D01*
X101149978Y-92661834D01*
X101116493Y-92600511D01*
X101121477Y-92530819D01*
X101163349Y-92474886D01*
X101194327Y-92457971D01*
X101232326Y-92443798D01*
X101232326Y-92443797D01*
X101232331Y-92443796D01*
X101347546Y-92357546D01*
X101433796Y-92242331D01*
X101484091Y-92107483D01*
X101490500Y-92047873D01*
X101490499Y-87992128D01*
X101484091Y-87932517D01*
X101476631Y-87912517D01*
X101433797Y-87797671D01*
X101433793Y-87797664D01*
X101347547Y-87682455D01*
X101347544Y-87682452D01*
X101232335Y-87596206D01*
X101232328Y-87596202D01*
X101097482Y-87545908D01*
X101097483Y-87545908D01*
X101037883Y-87539501D01*
X101037881Y-87539500D01*
X101037873Y-87539500D01*
X101037864Y-87539500D01*
X98962129Y-87539500D01*
X98962123Y-87539501D01*
X98902516Y-87545908D01*
X98767671Y-87596202D01*
X98767664Y-87596206D01*
X98652455Y-87682452D01*
X98652452Y-87682455D01*
X98566206Y-87797664D01*
X98566202Y-87797671D01*
X98515908Y-87932517D01*
X98511650Y-87972127D01*
X98509501Y-87992123D01*
X98509500Y-87992135D01*
X98509500Y-91991994D01*
X98489815Y-92059033D01*
X98437011Y-92104788D01*
X98367853Y-92114732D01*
X98304297Y-92085707D01*
X98297819Y-92079675D01*
X96526819Y-90308675D01*
X96493334Y-90247352D01*
X96490500Y-90220994D01*
X96490500Y-88968357D01*
X96490500Y-88968355D01*
X96475210Y-88783831D01*
X96414572Y-88544377D01*
X96315348Y-88318169D01*
X96180245Y-88111379D01*
X96012948Y-87929645D01*
X96012943Y-87929641D01*
X96012941Y-87929639D01*
X95818028Y-87777932D01*
X95818022Y-87777928D01*
X95600780Y-87660362D01*
X95600771Y-87660359D01*
X95367153Y-87580157D01*
X95161907Y-87545908D01*
X95123506Y-87539500D01*
X94876494Y-87539500D01*
X94838093Y-87545908D01*
X94632846Y-87580157D01*
X94399228Y-87660359D01*
X94399219Y-87660362D01*
X94181977Y-87777928D01*
X94181971Y-87777932D01*
X93987058Y-87929639D01*
X93987055Y-87929642D01*
X93987052Y-87929644D01*
X93987052Y-87929645D01*
X93929544Y-87992116D01*
X93819752Y-88111382D01*
X93684650Y-88318172D01*
X93585428Y-88544376D01*
X93524789Y-88783834D01*
X93516664Y-88881894D01*
X93510036Y-88961894D01*
X93509500Y-88968357D01*
X93509500Y-89020500D01*
X93489815Y-89087539D01*
X93437011Y-89133294D01*
X93385500Y-89144500D01*
X67934006Y-89144500D01*
X67866967Y-89124815D01*
X67846325Y-89108181D01*
X63992825Y-85254681D01*
X63959340Y-85193358D01*
X63964323Y-85123669D01*
X63974091Y-85097483D01*
X63980500Y-85037873D01*
X63980499Y-82962128D01*
X63974091Y-82902517D01*
X63923796Y-82767669D01*
X63923795Y-82767668D01*
X63923793Y-82767664D01*
X63837547Y-82652455D01*
X63837544Y-82652452D01*
X63722335Y-82566206D01*
X63722328Y-82566202D01*
X63587482Y-82515908D01*
X63587483Y-82515908D01*
X63527883Y-82509501D01*
X63527881Y-82509500D01*
X63527873Y-82509500D01*
X63527865Y-82509500D01*
X62624500Y-82509500D01*
X62557461Y-82489815D01*
X62511706Y-82437011D01*
X62500500Y-82385500D01*
X62500500Y-80608887D01*
X62520185Y-80541848D01*
X62572989Y-80496093D01*
X62614252Y-80485312D01*
X62736169Y-80475210D01*
X62975623Y-80414572D01*
X63201831Y-80315348D01*
X63408621Y-80180245D01*
X63590355Y-80012948D01*
X63724966Y-79839999D01*
X63742067Y-79818028D01*
X63742071Y-79818022D01*
X63742073Y-79818020D01*
X63859638Y-79600779D01*
X63939843Y-79367150D01*
X63980500Y-79123506D01*
X63980500Y-78876494D01*
X63939843Y-78632850D01*
X63934505Y-78617302D01*
X63883396Y-78468425D01*
X63859638Y-78399221D01*
X63856831Y-78394035D01*
X63742071Y-78181977D01*
X63742067Y-78181971D01*
X63590360Y-77987058D01*
X63590357Y-77987055D01*
X63590355Y-77987052D01*
X63408621Y-77819755D01*
X63408618Y-77819753D01*
X63408617Y-77819752D01*
X63322754Y-77763655D01*
X63201831Y-77684652D01*
X63201828Y-77684650D01*
X63201827Y-77684650D01*
X62975623Y-77585428D01*
X62778118Y-77535413D01*
X62736169Y-77524790D01*
X62736168Y-77524789D01*
X62736165Y-77524789D01*
X62588297Y-77512537D01*
X62551645Y-77509500D01*
X60448355Y-77509500D01*
X60415014Y-77512262D01*
X60263834Y-77524789D01*
X60024376Y-77585428D01*
X59798172Y-77684650D01*
X59591382Y-77819752D01*
X59545253Y-77862217D01*
X59410960Y-77985842D01*
X59409642Y-77987055D01*
X59409639Y-77987058D01*
X59257932Y-78181971D01*
X59257928Y-78181977D01*
X59140362Y-78399219D01*
X59140359Y-78399228D01*
X59060157Y-78632846D01*
X59019500Y-78876495D01*
X59019500Y-79123504D01*
X59060157Y-79367153D01*
X59140359Y-79600771D01*
X59140362Y-79600780D01*
X59257928Y-79818022D01*
X59257932Y-79818028D01*
X59409639Y-80012941D01*
X59409641Y-80012943D01*
X59409645Y-80012948D01*
X59591379Y-80180245D01*
X59798169Y-80315348D01*
X60024377Y-80414572D01*
X60263831Y-80475210D01*
X60385744Y-80485311D01*
X60450924Y-80510463D01*
X60492163Y-80566865D01*
X60499500Y-80608887D01*
X60499500Y-82385500D01*
X60479815Y-82452539D01*
X60427011Y-82498294D01*
X60375500Y-82509500D01*
X59472129Y-82509500D01*
X59472123Y-82509501D01*
X59412516Y-82515908D01*
X59277671Y-82566202D01*
X59277664Y-82566206D01*
X59162455Y-82652452D01*
X59162452Y-82652455D01*
X59076206Y-82767664D01*
X59076202Y-82767671D01*
X59025908Y-82902517D01*
X59019501Y-82962116D01*
X59019501Y-82962123D01*
X59019500Y-82962135D01*
X59019500Y-85037870D01*
X50000500Y-85037870D01*
X50000500Y-70037844D01*
X59020000Y-70037844D01*
X59026401Y-70097372D01*
X59026403Y-70097379D01*
X59076645Y-70232086D01*
X59076649Y-70232093D01*
X59162809Y-70347187D01*
X59162812Y-70347190D01*
X59277906Y-70433350D01*
X59277913Y-70433354D01*
X59412620Y-70483596D01*
X59412627Y-70483598D01*
X59472155Y-70489999D01*
X59472172Y-70490000D01*
X61249999Y-70490000D01*
X61249999Y-69611057D01*
X61340892Y-69645528D01*
X61460081Y-69660000D01*
X61539919Y-69660000D01*
X61659108Y-69645528D01*
X61750000Y-69611057D01*
X61750000Y-70490000D01*
X63527828Y-70490000D01*
X63527844Y-70489999D01*
X63587372Y-70483598D01*
X63587379Y-70483596D01*
X63722086Y-70433354D01*
X63722093Y-70433350D01*
X63837187Y-70347190D01*
X63837190Y-70347187D01*
X63923350Y-70232093D01*
X63923354Y-70232086D01*
X63973596Y-70097379D01*
X63973598Y-70097372D01*
X63979999Y-70037844D01*
X63980000Y-70037827D01*
X63980000Y-69250000D01*
X62114168Y-69250000D01*
X62121643Y-69235758D01*
X62160000Y-69080138D01*
X62160000Y-68919862D01*
X62121643Y-68764242D01*
X62114168Y-68750000D01*
X63980000Y-68750000D01*
X63980000Y-67962172D01*
X63979999Y-67962155D01*
X63973598Y-67902627D01*
X63973596Y-67902620D01*
X63923354Y-67767913D01*
X63923350Y-67767906D01*
X63837190Y-67652812D01*
X63837187Y-67652809D01*
X63722093Y-67566649D01*
X63722086Y-67566645D01*
X63587379Y-67516403D01*
X63587372Y-67516401D01*
X63527844Y-67510000D01*
X61750000Y-67510000D01*
X61750000Y-68388942D01*
X61659108Y-68354472D01*
X61539919Y-68340000D01*
X61460081Y-68340000D01*
X61340892Y-68354472D01*
X61249999Y-68388942D01*
X61250000Y-67510000D01*
X59472155Y-67510000D01*
X59412627Y-67516401D01*
X59412620Y-67516403D01*
X59277913Y-67566645D01*
X59277906Y-67566649D01*
X59162812Y-67652809D01*
X59162809Y-67652812D01*
X59076649Y-67767906D01*
X59076645Y-67767913D01*
X59026403Y-67902620D01*
X59026401Y-67902627D01*
X59020000Y-67962155D01*
X59020000Y-68750000D01*
X60885832Y-68750000D01*
X60878357Y-68764242D01*
X60840000Y-68919862D01*
X60840000Y-69080138D01*
X60878357Y-69235758D01*
X60885832Y-69250000D01*
X59020000Y-69250000D01*
X59020000Y-70037844D01*
X50000500Y-70037844D01*
X50000500Y-63749999D01*
X59041114Y-63749999D01*
X59041116Y-63750000D01*
X60885832Y-63750000D01*
X60878357Y-63764242D01*
X60840000Y-63919862D01*
X60840000Y-64080138D01*
X60878357Y-64235758D01*
X60885832Y-64250000D01*
X59041115Y-64250000D01*
X59060643Y-64367029D01*
X59140818Y-64600570D01*
X59140821Y-64600578D01*
X59258348Y-64817748D01*
X59258352Y-64817754D01*
X59410008Y-65012601D01*
X59410011Y-65012605D01*
X59591688Y-65179851D01*
X59798408Y-65314907D01*
X60024539Y-65414098D01*
X60263909Y-65474715D01*
X60448369Y-65490000D01*
X61249999Y-65490000D01*
X61249999Y-64611057D01*
X61340892Y-64645528D01*
X61460081Y-64660000D01*
X61539919Y-64660000D01*
X61659108Y-64645528D01*
X61750000Y-64611057D01*
X61750000Y-65490000D01*
X62551631Y-65490000D01*
X62736090Y-65474715D01*
X62975460Y-65414098D01*
X63201591Y-65314907D01*
X63408311Y-65179851D01*
X63589988Y-65012605D01*
X63589991Y-65012601D01*
X63741647Y-64817754D01*
X63741651Y-64817748D01*
X63859178Y-64600578D01*
X63859181Y-64600570D01*
X63939356Y-64367029D01*
X63958885Y-64250000D01*
X62114168Y-64250000D01*
X62121643Y-64235758D01*
X62160000Y-64080138D01*
X62160000Y-63919862D01*
X62121643Y-63764242D01*
X62114168Y-63750000D01*
X63958884Y-63750000D01*
X63958885Y-63749999D01*
X63939356Y-63632970D01*
X63859181Y-63399429D01*
X63859178Y-63399421D01*
X63741651Y-63182251D01*
X63741647Y-63182245D01*
X63589991Y-62987398D01*
X63589988Y-62987394D01*
X63408311Y-62820148D01*
X63201591Y-62685092D01*
X62975460Y-62585901D01*
X62736090Y-62525284D01*
X62551631Y-62510000D01*
X61750000Y-62510000D01*
X61750000Y-63388942D01*
X61659108Y-63354472D01*
X61539919Y-63340000D01*
X61460081Y-63340000D01*
X61340892Y-63354472D01*
X61249999Y-63388942D01*
X61250000Y-62510000D01*
X60448369Y-62510000D01*
X60263909Y-62525284D01*
X60024539Y-62585901D01*
X59798408Y-62685092D01*
X59591688Y-62820148D01*
X59410011Y-62987394D01*
X59410008Y-62987398D01*
X59258352Y-63182245D01*
X59258348Y-63182251D01*
X59140821Y-63399421D01*
X59140818Y-63399429D01*
X59060643Y-63632970D01*
X59041114Y-63749999D01*
X50000500Y-63749999D01*
X50000500Y-55000000D01*
X51294922Y-55000000D01*
X51315219Y-55387287D01*
X51375886Y-55770323D01*
X51375887Y-55770330D01*
X51476262Y-56144936D01*
X51615244Y-56506994D01*
X51791310Y-56852543D01*
X52002531Y-57177793D01*
X52211095Y-57435350D01*
X52211096Y-57435350D01*
X53702266Y-55944180D01*
X53865130Y-56134870D01*
X54055819Y-56297733D01*
X52564648Y-57788903D01*
X52564649Y-57788904D01*
X52822206Y-57997468D01*
X53147456Y-58208689D01*
X53493005Y-58384755D01*
X53855063Y-58523737D01*
X54229669Y-58624112D01*
X54229676Y-58624113D01*
X54612712Y-58684780D01*
X54999999Y-58705078D01*
X55000001Y-58705078D01*
X55387287Y-58684780D01*
X55770323Y-58624113D01*
X55770330Y-58624112D01*
X56144936Y-58523737D01*
X56506994Y-58384755D01*
X56852543Y-58208689D01*
X57177783Y-57997476D01*
X57177785Y-57997475D01*
X57435349Y-57788902D01*
X55944180Y-56297733D01*
X56134870Y-56134870D01*
X56297733Y-55944180D01*
X57788902Y-57435349D01*
X57997475Y-57177785D01*
X57997476Y-57177783D01*
X58208689Y-56852543D01*
X58384755Y-56506994D01*
X58523737Y-56144936D01*
X58624112Y-55770330D01*
X58624113Y-55770323D01*
X58684780Y-55387287D01*
X58705078Y-55000000D01*
X111294922Y-55000000D01*
X111315219Y-55387287D01*
X111375886Y-55770323D01*
X111375887Y-55770330D01*
X111476262Y-56144936D01*
X111615244Y-56506994D01*
X111791310Y-56852543D01*
X112002531Y-57177793D01*
X112211095Y-57435350D01*
X112211096Y-57435350D01*
X113702266Y-55944179D01*
X113865130Y-56134870D01*
X114055819Y-56297733D01*
X112564648Y-57788903D01*
X112564649Y-57788904D01*
X112822206Y-57997468D01*
X113147456Y-58208689D01*
X113493005Y-58384755D01*
X113855063Y-58523737D01*
X114229669Y-58624112D01*
X114229676Y-58624113D01*
X114612712Y-58684780D01*
X114999999Y-58705078D01*
X115000001Y-58705078D01*
X115387287Y-58684780D01*
X115770323Y-58624113D01*
X115770330Y-58624112D01*
X116144936Y-58523737D01*
X116506994Y-58384755D01*
X116852543Y-58208689D01*
X117177783Y-57997476D01*
X117177785Y-57997475D01*
X117435349Y-57788902D01*
X115944180Y-56297733D01*
X116134870Y-56134870D01*
X116297733Y-55944180D01*
X117788902Y-57435349D01*
X117997475Y-57177785D01*
X117997476Y-57177783D01*
X118208689Y-56852543D01*
X118384755Y-56506994D01*
X118523737Y-56144936D01*
X118624112Y-55770330D01*
X118624113Y-55770323D01*
X118684780Y-55387287D01*
X118705078Y-55000000D01*
X171294922Y-55000000D01*
X171315219Y-55387287D01*
X171375886Y-55770323D01*
X171375887Y-55770330D01*
X171476262Y-56144936D01*
X171615244Y-56506994D01*
X171791310Y-56852543D01*
X172002531Y-57177793D01*
X172211095Y-57435350D01*
X172211096Y-57435350D01*
X173702266Y-55944179D01*
X173865130Y-56134870D01*
X174055819Y-56297733D01*
X172564648Y-57788903D01*
X172564649Y-57788904D01*
X172822206Y-57997468D01*
X173147456Y-58208689D01*
X173493005Y-58384755D01*
X173855063Y-58523737D01*
X174229669Y-58624112D01*
X174229676Y-58624113D01*
X174612712Y-58684780D01*
X174999999Y-58705078D01*
X175000001Y-58705078D01*
X175387287Y-58684780D01*
X175770323Y-58624113D01*
X175770330Y-58624112D01*
X176144936Y-58523737D01*
X176506994Y-58384755D01*
X176852543Y-58208689D01*
X177177783Y-57997476D01*
X177177785Y-57997475D01*
X177435349Y-57788902D01*
X175944180Y-56297733D01*
X176134870Y-56134870D01*
X176297733Y-55944180D01*
X177788902Y-57435349D01*
X177997475Y-57177785D01*
X177997476Y-57177783D01*
X178208689Y-56852543D01*
X178384755Y-56506994D01*
X178523737Y-56144936D01*
X178624112Y-55770330D01*
X178624113Y-55770323D01*
X178684780Y-55387287D01*
X178705078Y-55000000D01*
X178705078Y-54999999D01*
X178684780Y-54612712D01*
X178624113Y-54229676D01*
X178624112Y-54229669D01*
X178523737Y-53855063D01*
X178384755Y-53493005D01*
X178208689Y-53147456D01*
X177997468Y-52822206D01*
X177788904Y-52564649D01*
X177788903Y-52564648D01*
X176297732Y-54055818D01*
X176134870Y-53865130D01*
X175944180Y-53702266D01*
X177435350Y-52211096D01*
X177435350Y-52211095D01*
X177177793Y-52002531D01*
X176852543Y-51791310D01*
X176506994Y-51615244D01*
X176144936Y-51476262D01*
X175770330Y-51375887D01*
X175770323Y-51375886D01*
X175387287Y-51315219D01*
X175000001Y-51294922D01*
X174999999Y-51294922D01*
X174612712Y-51315219D01*
X174229676Y-51375886D01*
X174229669Y-51375887D01*
X173855063Y-51476262D01*
X173493005Y-51615244D01*
X173147456Y-51791310D01*
X172822206Y-52002531D01*
X172564648Y-52211095D01*
X172564648Y-52211096D01*
X174055819Y-53702266D01*
X173865130Y-53865130D01*
X173702266Y-54055818D01*
X172211096Y-52564648D01*
X172211095Y-52564648D01*
X172002531Y-52822206D01*
X171791310Y-53147456D01*
X171615244Y-53493005D01*
X171476262Y-53855063D01*
X171375887Y-54229669D01*
X171375886Y-54229676D01*
X171315219Y-54612712D01*
X171294922Y-54999999D01*
X171294922Y-55000000D01*
X118705078Y-55000000D01*
X118705078Y-54999999D01*
X118684780Y-54612712D01*
X118624113Y-54229676D01*
X118624112Y-54229669D01*
X118523737Y-53855063D01*
X118384755Y-53493005D01*
X118208689Y-53147456D01*
X117997468Y-52822206D01*
X117788904Y-52564649D01*
X117788903Y-52564648D01*
X116297732Y-54055818D01*
X116134870Y-53865130D01*
X115944179Y-53702265D01*
X117435350Y-52211096D01*
X117435350Y-52211095D01*
X117177793Y-52002531D01*
X116852543Y-51791310D01*
X116506994Y-51615244D01*
X116144936Y-51476262D01*
X115770330Y-51375887D01*
X115770323Y-51375886D01*
X115387287Y-51315219D01*
X115000001Y-51294922D01*
X114999999Y-51294922D01*
X114612712Y-51315219D01*
X114229676Y-51375886D01*
X114229669Y-51375887D01*
X113855063Y-51476262D01*
X113493005Y-51615244D01*
X113147456Y-51791310D01*
X112822206Y-52002531D01*
X112564648Y-52211095D01*
X112564648Y-52211096D01*
X114055819Y-53702266D01*
X113865130Y-53865130D01*
X113702267Y-54055818D01*
X112211096Y-52564648D01*
X112211095Y-52564648D01*
X112002531Y-52822206D01*
X111791310Y-53147456D01*
X111615244Y-53493005D01*
X111476262Y-53855063D01*
X111375887Y-54229669D01*
X111375886Y-54229676D01*
X111315219Y-54612712D01*
X111294922Y-54999999D01*
X111294922Y-55000000D01*
X58705078Y-55000000D01*
X58705078Y-54999999D01*
X58684780Y-54612712D01*
X58624113Y-54229676D01*
X58624112Y-54229669D01*
X58523737Y-53855063D01*
X58384755Y-53493005D01*
X58208689Y-53147456D01*
X57997468Y-52822206D01*
X57788904Y-52564649D01*
X57788903Y-52564648D01*
X56297732Y-54055818D01*
X56134870Y-53865130D01*
X55944180Y-53702266D01*
X57435350Y-52211096D01*
X57435350Y-52211095D01*
X57177793Y-52002531D01*
X56852543Y-51791310D01*
X56506994Y-51615244D01*
X56144936Y-51476262D01*
X55770330Y-51375887D01*
X55770323Y-51375886D01*
X55387287Y-51315219D01*
X55000001Y-51294922D01*
X54999999Y-51294922D01*
X54612712Y-51315219D01*
X54229676Y-51375886D01*
X54229669Y-51375887D01*
X53855063Y-51476262D01*
X53493005Y-51615244D01*
X53147456Y-51791310D01*
X52822206Y-52002531D01*
X52564648Y-52211095D01*
X52564648Y-52211096D01*
X54055819Y-53702266D01*
X53865130Y-53865130D01*
X53702266Y-54055818D01*
X52211096Y-52564648D01*
X52211095Y-52564648D01*
X52002531Y-52822206D01*
X51791310Y-53147456D01*
X51615244Y-53493005D01*
X51476262Y-53855063D01*
X51375887Y-54229669D01*
X51375886Y-54229676D01*
X51315219Y-54612712D01*
X51294922Y-54999999D01*
X51294922Y-55000000D01*
X50000500Y-55000000D01*
X50000500Y-52501875D01*
X50000613Y-52498132D01*
X50000872Y-52493835D01*
X50006489Y-52400972D01*
X50020082Y-52193596D01*
X50020962Y-52186501D01*
X50045836Y-52050771D01*
X50078944Y-51884326D01*
X50080547Y-51878029D01*
X50123922Y-51738834D01*
X50176160Y-51584946D01*
X50178311Y-51579481D01*
X50239520Y-51443481D01*
X50310211Y-51300136D01*
X50312733Y-51295530D01*
X50390083Y-51167577D01*
X50391550Y-51165270D01*
X50478995Y-51034400D01*
X50481718Y-51030639D01*
X50574343Y-50912412D01*
X50576487Y-50909827D01*
X50679905Y-50791901D01*
X50682629Y-50788992D01*
X50788992Y-50682629D01*
X50791901Y-50679905D01*
X50909827Y-50576487D01*
X50912412Y-50574343D01*
X51030639Y-50481718D01*
X51034400Y-50478995D01*
X51165270Y-50391550D01*
X51167577Y-50390083D01*
X51295530Y-50312733D01*
X51300136Y-50310211D01*
X51443481Y-50239520D01*
X51579481Y-50178311D01*
X51584946Y-50176160D01*
X51738812Y-50123929D01*
X51878029Y-50080547D01*
X51884326Y-50078944D01*
X52050771Y-50045836D01*
X52186501Y-50020962D01*
X52193596Y-50020082D01*
X52401027Y-50006486D01*
X52498131Y-50000613D01*
X52501876Y-50000500D01*
X177498123Y-50000500D01*
X177501867Y-50000613D01*
G37*
%TD.AperFunction*%
%TD*%
M02*
