M48
; DRILL file {KiCad 7.0.6-1.fc38} date Wed 16 Aug 2023 08:18:29 PM EDT
; FORMAT={-:-/ absolute / inch / decimal}
; #@! TF.CreationDate,2023-08-16T20:18:29-04:00
; #@! TF.GenerationSoftware,Kicad,Pcbnew,7.0.6-1.fc38
; #@! TF.FileFunction,Plated,1,2,PTH
FMAT,2
INCH
; #@! TA.AperFunction,Plated,PTH,ViaDrill
T1C0.0197
; #@! TA.AperFunction,Plated,PTH,ComponentDrill
T2C0.0394
; #@! TA.AperFunction,Plated,PTH,ComponentDrill
T3C0.0520
; #@! TA.AperFunction,Plated,PTH,ComponentDrill
T4C0.1260
%
G90
G05
T1
X2.1654Y-2.3228
X2.1654Y-5.5512
X2.2835Y-2.2835
X2.3228Y-2.1654
X2.3228Y-5.7087
X4.3701Y-2.1654
X4.3701Y-5.7087
X4.685Y-2.1654
X4.685Y-5.7087
X6.7323Y-2.1654
X6.7323Y-5.7087
X6.8898Y-2.3228
X6.8898Y-5.5512
T2
X4.1732Y-2.5402
X4.1732Y-2.6402
X4.1732Y-2.7402
X4.1732Y-2.8402
X4.1732Y-2.9402
X4.1732Y-3.0402
X4.1732Y-3.1402
X4.1732Y-3.2402
X4.1732Y-3.3402
X4.1732Y-3.4402
X4.1732Y-3.5402
X4.1732Y-3.6402
X4.1732Y-3.7402
X4.2732Y-2.5402
X4.2732Y-2.6402
X4.2732Y-2.7402
X4.2732Y-2.8402
X4.2732Y-2.9402
X4.2732Y-3.0402
X4.2732Y-3.1402
X4.2732Y-3.2402
X4.2732Y-3.3402
X4.2732Y-3.4402
X4.2732Y-3.5402
X4.2732Y-3.6402
X4.2732Y-3.7402
X4.9606Y-2.5433
X4.9606Y-2.6433
X4.9606Y-2.7433
X4.9606Y-2.8433
X4.9606Y-2.9433
X4.9606Y-3.0433
X4.9606Y-3.1433
X4.9606Y-3.2433
X4.9606Y-3.3433
X4.9606Y-3.4433
X4.9606Y-3.5433
X4.9606Y-3.6433
X4.9606Y-3.7433
X5.0606Y-2.5433
X5.0606Y-2.6433
X5.0606Y-2.7433
X5.0606Y-2.8433
X5.0606Y-2.9433
X5.0606Y-3.0433
X5.0606Y-3.1433
X5.0606Y-3.2433
X5.0606Y-3.3433
X5.0606Y-3.4433
X5.0606Y-3.5433
X5.0606Y-3.6433
X5.0606Y-3.7433
X5.748Y-2.5402
X5.748Y-2.6402
X5.748Y-2.7402
X5.748Y-2.8402
X5.748Y-2.9402
X5.748Y-3.0402
X5.748Y-3.1402
X5.748Y-3.2402
X5.748Y-3.3402
X5.748Y-3.4402
X5.748Y-3.5402
X5.748Y-3.6402
X5.748Y-3.7402
X5.848Y-2.5402
X5.848Y-2.6402
X5.848Y-2.7402
X5.848Y-2.8402
X5.848Y-2.9402
X5.848Y-3.0402
X5.848Y-3.1402
X5.848Y-3.2402
X5.848Y-3.3402
X5.848Y-3.4402
X5.848Y-3.5402
X5.848Y-3.6402
X5.848Y-3.7402
X6.5354Y-2.5402
X6.5354Y-2.6402
X6.5354Y-2.7402
X6.5354Y-2.8402
X6.5354Y-2.9402
X6.5354Y-3.0402
X6.5354Y-3.1402
X6.5354Y-3.2402
X6.5354Y-3.3402
X6.5354Y-3.4402
X6.5354Y-3.5402
X6.5354Y-3.6402
X6.5354Y-3.7402
X6.6354Y-2.5402
X6.6354Y-2.6402
X6.6354Y-2.7402
X6.6354Y-2.8402
X6.6354Y-2.9402
X6.6354Y-3.0402
X6.6354Y-3.1402
X6.6354Y-3.2402
X6.6354Y-3.3402
X6.6354Y-3.4402
X6.6354Y-3.5402
X6.6354Y-3.6402
X6.6354Y-3.7402
T3
X2.4213Y-2.5197
X2.4213Y-2.7165
X2.4213Y-3.1102
X2.4213Y-3.3071
X3.7402Y-3.5441
X3.937Y-3.5441
X4.5276Y-3.5433
X4.7244Y-3.5433
X5.315Y-3.5433
X5.5118Y-3.5433
X6.1024Y-3.5433
X6.2992Y-3.5433
T4
X2.1654Y-2.1654
X2.1654Y-5.7087
X4.5276Y-2.1654
X4.5276Y-5.7087
X6.8898Y-2.1654
X6.8898Y-5.7087
T0
M30
